{"glyphs":{"0":{"ha":963,"x_min":102,"x_max":861,"o":"m 477 -18 q 313 12 389 -18 q 193 92 237 41 q 102 338 102 195 l 102 659 q 232 945 102 844 q 488 1019 328 1019 q 808 863 713 1019 q 861 656 861 775 l 861 340 q 806 137 861 227 q 477 -18 709 -18 m 488 134 q 644 227 602 134 q 666 334 666 273 l 666 664 q 633 798 666 741 q 481 867 593 867 q 327 773 369 867 q 305 664 305 726 l 305 334 q 356 185 305 235 q 488 134 406 134 z "},"1":{"ha":963,"x_min":135,"x_max":889,"o":"m 138 0 l 138 142 l 431 142 l 431 842 l 153 805 l 135 952 l 493 1001 l 632 1001 l 632 142 l 889 142 l 889 0 l 138 0 z "},"2":{"ha":963,"x_min":110,"x_max":843,"o":"m 648 725 q 493 867 648 867 q 356 824 396 867 q 317 673 317 781 l 110 673 q 197 937 110 854 q 484 1019 283 1019 q 823 840 753 1019 q 843 724 843 787 q 794 541 843 619 q 635 369 745 463 l 384 154 l 826 154 l 826 0 l 166 0 l 142 153 l 513 488 q 620 608 591 558 q 648 725 648 657 z "},"3":{"ha":963,"x_min":123,"x_max":854,"o":"m 485 134 q 663 289 663 134 q 645 396 663 362 q 579 445 626 429 q 444 460 532 460 l 444 595 q 639 645 608 595 q 658 740 658 676 q 619 835 658 803 q 483 867 581 867 q 347 831 385 867 q 309 701 309 795 l 127 701 q 222 948 129 877 q 482 1019 316 1019 q 747 947 648 1019 q 846 747 846 875 q 806 594 846 644 q 694 529 767 545 q 854 289 854 486 q 768 67 854 153 q 492 -18 681 -18 q 215 62 302 -18 q 123 296 127 142 l 305 296 q 348 169 307 203 q 485 134 390 134 z "},"4":{"ha":963,"x_min":115,"x_max":879,"o":"m 569 0 l 569 191 l 115 191 l 115 360 l 420 1001 l 627 1001 l 335 358 l 569 358 l 569 585 l 730 585 l 730 358 l 879 358 l 879 191 l 730 191 l 730 0 l 569 0 z "},"5":{"ha":963,"x_min":132,"x_max":870,"o":"m 347 583 q 549 644 405 644 q 782 551 693 644 q 870 311 870 457 q 768 74 870 165 q 492 -18 665 -18 q 284 13 386 -18 q 132 81 182 44 l 186 216 q 481 133 324 133 q 673 315 673 133 l 673 316 q 627 432 673 389 q 509 475 581 475 q 313 405 387 475 l 168 477 l 222 1001 l 793 1001 l 793 834 l 374 834 l 347 583 z "},"6":{"ha":963,"x_min":145,"x_max":867,"o":"m 507 488 q 338 310 338 488 q 510 131 338 131 q 682 308 682 131 q 641 442 682 395 q 507 488 600 488 m 432 613 q 538 631 492 631 q 785 554 703 631 q 867 304 867 477 q 777 56 867 130 q 501 -18 688 -18 q 230 60 314 -18 q 145 309 145 138 q 237 654 145 479 l 433 1002 l 650 1002 l 432 613 z "},"7":{"ha":963,"x_min":156,"x_max":833,"o":"m 244 0 l 613 844 l 156 844 l 156 1001 l 833 1001 l 833 861 l 457 0 l 244 0 z "},"8":{"ha":963,"x_min":111,"x_max":852,"o":"m 640 764 q 480 879 640 879 q 319 764 319 879 q 355 673 319 710 q 480 594 391 637 q 603 675 566 637 q 640 764 640 713 m 481 127 q 621 163 578 127 q 664 259 664 200 q 619 365 664 317 q 480 456 574 412 q 341 365 386 412 q 296 261 296 317 q 481 127 296 127 m 627 531 q 852 250 852 450 q 755 51 852 120 q 483 -18 659 -18 q 209 53 306 -18 q 111 248 111 123 q 323 531 111 438 q 130 774 130 601 q 214 950 130 881 q 481 1019 298 1019 q 808 868 742 1020 q 827 758 827 825 q 777 627 827 691 q 627 531 727 563 z "},"9":{"ha":963,"x_min":122,"x_max":844,"o":"m 315 706 q 315 658 315 706 q 353 572 315 610 q 484 535 391 535 q 611 573 577 535 q 646 709 646 612 q 612 840 646 806 q 485 874 578 874 q 353 839 391 874 q 315 706 315 803 m 557 399 q 443 386 515 386 q 207 458 291 386 q 122 704 122 530 q 211 948 122 878 q 488 1019 300 1019 q 760 944 676 1019 q 844 701 844 869 q 752 358 844 533 l 555 0 l 338 0 l 557 399 z "}," ":{"ha":350,"x_min":0,"x_max":0,"o":""},"!":{"ha":439,"x_min":130,"x_max":309,"o":"m 190 278 q 134 1002 134 922 l 309 1002 q 241 278 309 929 l 190 278 m 130 0 l 130 166 l 300 166 l 300 0 l 130 0 z "},"\"":{"ha":694,"x_min":134,"x_max":560,"o":"m 427 591 l 388 1028 l 560 1028 l 508 591 l 427 591 m 188 591 l 134 1028 l 306 1028 l 269 591 l 188 591 z "},"#":{"ha":970,"x_min":71,"x_max":860,"o":"m 363 419 l 538 419 l 572 608 l 396 608 l 363 419 m 151 0 l 210 324 l 71 324 l 71 419 l 227 419 l 260 608 l 87 608 l 87 703 l 277 703 l 330 1002 l 465 1002 l 413 703 l 589 703 l 642 1002 l 777 1002 l 725 703 l 860 703 l 860 608 l 708 608 l 675 419 l 844 419 l 844 324 l 659 324 l 603 0 l 463 0 l 522 324 l 347 324 l 291 0 l 151 0 z "},"$":{"ha":869,"x_min":81,"x_max":793,"o":"m 408 857 q 290 760 294 844 q 290 749 290 755 q 313 673 290 701 q 408 623 336 645 l 408 857 m 482 1017 q 775 940 654 1010 l 718 798 q 482 859 602 854 l 482 600 l 590 568 q 743 469 693 536 q 793 280 793 402 q 717 73 793 159 q 482 -18 642 -14 l 482 -164 l 408 -164 l 408 -16 q 81 73 218 -3 l 151 220 q 408 143 273 156 l 408 430 l 300 462 q 174 528 221 485 q 109 622 126 571 q 92 740 92 673 q 181 941 92 871 q 408 1017 269 1010 l 408 1111 l 482 1111 l 482 1017 m 482 141 q 608 263 608 149 q 595 338 608 316 q 482 408 569 381 l 482 141 z "},"%":{"ha":1434,"x_min":133,"x_max":1301,"o":"m 471 0 l 839 981 l 956 981 l 591 0 l 471 0 m 1253 54 q 1230 20 1253 54 q 1095 -13 1206 -13 q 937 54 983 -13 q 890 244 890 120 l 890 280 q 936 469 890 406 q 1094 532 982 532 q 1253 469 1206 532 q 1301 281 1299 406 l 1301 244 q 1253 54 1301 120 m 1095 75 q 1181 140 1165 76 q 1190 235 1191 175 l 1190 294 q 1167 417 1190 391 q 1106 444 1144 444 q 1007 387 1021 444 q 999 295 999 353 l 999 235 q 1023 105 999 136 q 1095 75 1046 75 m 133 707 l 133 743 q 179 932 133 869 q 336 995 224 995 q 495 932 448 995 q 543 744 542 869 l 543 707 q 495 517 543 583 q 335 450 448 450 q 177 519 222 450 q 133 707 133 587 m 380 547 q 423 600 413 562 q 433 698 433 637 l 433 757 q 410 880 433 853 q 349 907 387 907 q 250 850 264 907 q 241 758 241 816 l 241 698 q 265 569 241 599 q 326 538 289 538 q 380 547 362 538 z "},"&":{"ha":1035,"x_min":100,"x_max":1000,"o":"m 466 132 q 514 132 466 132 q 609 141 562 132 q 673 189 656 150 l 379 477 q 287 380 292 453 q 285 304 285 347 q 327 172 285 211 q 466 132 370 132 m 804 70 q 694 3 765 24 q 485 -18 623 -18 q 260 15 347 -18 q 137 119 174 49 q 100 301 100 190 q 146 471 100 413 q 293 559 193 530 q 203 666 233 615 q 174 790 174 718 q 252 965 174 909 q 509 1021 329 1021 q 765 975 690 1021 q 840 809 840 928 l 840 753 l 678 753 l 678 781 q 656 860 678 842 q 601 881 634 877 q 516 885 568 885 q 384 858 414 885 q 353 786 353 830 q 367 720 353 742 q 433 645 381 699 l 743 339 q 743 360 743 349 l 743 557 l 903 557 l 903 372 q 885 210 903 267 l 1000 102 l 891 -16 l 804 70 z "},"'":{"ha":522,"x_min":175,"x_max":347,"o":"m 229 591 l 175 1028 l 347 1028 l 309 591 l 229 591 z "},"(":{"ha":642,"x_min":141,"x_max":530,"o":"m 530 -108 q 153 152 206 -108 q 141 285 141 211 l 141 669 q 345 1040 141 966 q 530 1068 421 1068 l 530 922 q 415 903 457 922 q 330 692 330 864 l 330 264 q 415 56 331 94 q 530 38 457 38 l 530 -108 z "},")":{"ha":642,"x_min":123,"x_max":511,"o":"m 123 -108 l 123 39 q 237 58 195 39 q 323 268 323 96 l 323 695 q 239 903 323 866 q 123 922 197 922 l 123 1068 q 426 965 340 1068 q 511 675 511 861 l 511 292 q 309 -80 511 -7 q 123 -108 232 -108 z "},"*":{"ha":677,"x_min":58,"x_max":618,"o":"m 278 406 l 298 627 l 113 509 l 58 618 l 255 697 l 65 793 l 130 897 l 297 768 l 278 981 l 399 981 l 378 760 l 564 878 l 618 769 l 421 690 l 611 593 l 547 490 l 379 618 l 399 406 l 278 406 z "},"+":{"ha":655,"x_min":90,"x_max":566,"o":"m 272 106 l 272 330 l 90 330 l 90 440 l 272 440 l 272 656 l 383 656 l 383 440 l 566 440 l 566 330 l 383 330 l 383 106 l 272 106 z "},",":{"ha":521,"x_min":151,"x_max":370,"o":"m 237 -264 l 164 -233 q 231 -128 199 -193 q 263 0 263 -62 l 151 0 l 151 187 l 370 187 l 370 36 q 325 -139 370 -54 q 237 -264 280 -224 z "},"-":{"ha":656,"x_min":90,"x_max":567,"o":"m 90 335 l 90 435 l 567 435 l 567 335 l 90 335 z "},".":{"ha":521,"x_min":159,"x_max":361,"o":"m 159 0 l 159 193 l 361 193 l 361 0 l 159 0 z "},"/":{"ha":694,"x_min":72,"x_max":623,"o":"m 72 0 l 458 1028 l 623 1028 l 237 0 l 72 0 z "},":":{"ha":522,"x_min":163,"x_max":366,"o":"m 163 134 l 163 326 l 366 326 l 366 134 l 163 134 m 163 579 l 163 772 l 366 772 l 366 579 l 163 579 z "},";":{"ha":522,"x_min":161,"x_max":379,"o":"m 246 -130 l 174 -98 q 240 6 208 -59 q 273 134 273 72 l 161 134 l 161 321 l 379 321 l 379 170 q 334 -5 379 80 q 246 -130 290 -90 m 163 579 l 163 772 l 366 772 l 366 579 l 163 579 z "},"<":{"ha":694,"x_min":76,"x_max":581,"o":"m 581 21 l 76 302 l 76 450 l 581 733 l 581 576 l 199 377 l 581 178 l 581 21 z "},"=":{"ha":597,"x_min":76,"x_max":521,"o":"m 76 502 l 76 619 l 521 619 l 521 502 l 76 502 m 76 252 l 76 369 l 521 369 l 521 252 l 76 252 z "},">":{"ha":694,"x_min":103,"x_max":608,"o":"m 103 21 l 103 176 l 485 377 l 103 575 l 103 733 l 608 451 l 608 302 l 103 21 z "},"?":{"ha":844,"x_min":88,"x_max":758,"o":"m 291 0 l 291 166 l 460 166 l 460 0 l 291 0 m 302 292 l 470 502 q 560 691 560 615 q 549 795 560 768 q 524 836 538 823 q 421 867 490 867 q 328 852 351 867 q 296 825 305 837 q 274 710 274 798 l 274 652 l 88 652 l 88 703 q 125 903 88 842 q 232 990 162 963 q 391 1018 302 1018 q 530 1009 481 1017 q 674 950 625 993 q 741 850 724 907 q 758 708 758 794 q 717 548 758 622 q 581 395 675 473 l 457 292 l 302 292 z "},"@":{"ha":1389,"x_min":163,"x_max":1267,"o":"m 820 452 q 698 393 730 427 q 666 298 666 358 q 705 209 666 237 q 806 181 744 181 q 938 205 868 181 q 1012 256 1007 230 l 1012 505 q 928 481 1010 503 q 820 452 847 458 m 735 -323 q 163 236 163 -323 l 163 522 q 287 905 163 778 q 692 1033 412 1033 q 1082 930 972 1033 q 1193 585 1193 827 l 1194 267 q 1207 195 1194 214 q 1267 176 1220 176 l 1253 40 l 1181 40 q 1062 83 1097 41 q 1028 141 1045 104 q 923 66 996 96 q 770 36 850 36 q 573 104 652 36 q 494 290 494 172 q 516 398 494 360 q 568 460 538 437 q 774 549 635 512 l 1011 607 q 978 800 1011 748 q 884 874 944 852 q 742 895 823 895 q 617 891 661 895 q 454 844 515 882 q 365 725 394 806 q 336 503 336 644 l 336 246 q 505 -121 335 -28 q 736 -174 601 -174 q 969 -155 871 -174 q 1109 -127 1067 -136 q 1158 -117 1151 -118 l 1197 -254 q 735 -323 933 -323 z "},"A":{"ha":1025,"x_min":47,"x_max":978,"o":"m 356 325 l 669 325 l 515 851 l 356 325 m 47 0 l 377 1001 l 644 1001 l 978 0 l 764 0 l 708 191 l 316 191 l 258 0 l 47 0 z "},"B":{"ha":987,"x_min":129,"x_max":911,"o":"m 330 598 l 538 598 q 653 649 635 598 q 663 734 663 677 q 651 817 663 791 q 605 853 638 842 q 501 863 572 863 l 330 863 l 330 598 m 330 141 l 526 141 q 621 147 587 141 q 676 173 655 153 q 704 223 698 193 q 711 298 711 254 q 708 365 711 342 q 665 449 701 422 q 546 477 629 477 l 330 477 l 330 141 m 129 0 l 129 1001 l 514 1001 q 796 937 720 1001 q 852 856 836 903 q 869 732 869 809 q 842 610 869 656 q 741 545 814 564 q 876 469 841 532 q 911 304 911 407 q 911 292 911 298 q 830 72 911 144 q 563 0 749 0 l 129 0 z "},"C":{"ha":1010,"x_min":109,"x_max":924,"o":"m 548 -18 q 486 -18 548 -18 q 349 0 425 -18 q 227 47 273 18 q 154 122 181 76 q 118 216 127 168 q 109 328 109 264 l 109 663 q 181 913 109 842 q 374 1006 254 986 q 527 1018 441 1019 q 897 848 837 1018 q 924 667 924 772 l 924 654 l 726 631 l 726 682 q 685 823 726 787 q 528 860 644 860 q 361 823 412 860 q 310 686 310 786 l 310 308 q 362 174 310 208 q 530 140 415 140 q 625 147 590 140 q 685 173 661 153 q 718 225 709 193 q 726 312 726 258 l 726 344 l 924 344 l 924 326 q 880 111 924 177 q 754 14 836 45 q 548 -18 672 -18 z "},"D":{"ha":1040,"x_min":129,"x_max":932,"o":"m 129 0 l 129 1001 l 563 1001 q 886 859 803 1001 q 932 652 932 779 l 932 345 q 739 25 932 91 q 564 0 666 0 l 129 0 m 330 157 l 546 157 q 690 195 649 157 q 730 319 730 233 l 730 678 q 689 804 730 763 q 546 844 647 844 l 330 844 l 330 157 z "},"E":{"ha":878,"x_min":129,"x_max":792,"o":"m 129 0 l 129 1001 l 785 1001 l 785 849 l 330 849 l 330 583 l 733 583 l 733 438 l 330 438 l 330 152 l 792 152 l 792 0 l 129 0 z "},"F":{"ha":795,"x_min":129,"x_max":734,"o":"m 129 0 l 129 1001 l 734 1001 l 734 847 l 330 847 l 330 574 l 707 574 l 707 430 l 330 430 l 330 0 l 129 0 z "},"G":{"ha":1090,"x_min":109,"x_max":962,"o":"m 738 20 q 724 12 738 20 q 662 -6 711 5 q 530 -18 612 -18 q 369 0 448 -18 q 165 117 222 33 q 109 328 109 201 l 109 663 q 240 951 109 869 q 551 1018 347 1018 q 941 833 880 1017 q 962 683 962 770 l 962 667 l 764 652 l 764 692 q 716 825 764 790 q 550 860 669 860 q 371 822 431 860 q 311 686 311 784 l 311 308 q 372 174 311 208 q 551 140 434 140 q 725 174 669 140 q 781 308 781 208 l 781 381 l 578 381 l 578 513 l 962 513 l 962 0 l 856 0 l 824 115 q 790 60 815 85 q 738 20 766 35 z "},"H":{"ha":1101,"x_min":129,"x_max":972,"o":"m 129 0 l 129 1001 l 331 1001 l 331 575 l 770 575 l 770 1001 l 972 1001 l 972 0 l 770 0 l 770 417 l 331 417 l 331 0 l 129 0 z "},"I":{"ha":779,"x_min":107,"x_max":671,"o":"m 107 0 l 107 151 l 290 151 l 290 851 l 107 851 l 107 1001 l 671 1001 l 671 851 l 490 851 l 490 151 l 671 151 l 671 0 l 107 0 z "},"J":{"ha":829,"x_min":47,"x_max":703,"o":"m 703 286 q 607 63 703 142 q 346 -17 511 -17 q 47 45 180 -17 l 94 195 q 210 157 144 172 q 329 142 276 142 q 460 185 418 142 q 501 299 501 229 l 501 848 l 157 848 l 157 1001 l 703 1001 l 703 286 z "},"K":{"ha":982,"x_min":129,"x_max":967,"o":"m 129 0 l 129 1001 l 330 1001 l 330 515 l 720 1001 l 942 1001 l 591 545 l 967 0 l 740 0 l 425 460 l 330 367 l 330 0 l 129 0 z "},"L":{"ha":795,"x_min":129,"x_max":749,"o":"m 129 0 l 129 1001 l 330 1001 l 330 157 l 749 157 l 749 0 l 129 0 z "},"M":{"ha":1271,"x_min":129,"x_max":1142,"o":"m 129 0 l 129 1001 l 351 1001 l 635 516 l 916 1001 l 1142 1001 l 1142 0 l 954 0 l 954 740 l 703 291 l 568 291 l 317 737 l 317 0 l 129 0 z "},"N":{"ha":1108,"x_min":129,"x_max":979,"o":"m 129 0 l 129 1001 l 280 1001 l 800 315 l 800 1001 l 979 1001 l 979 0 l 828 0 l 310 675 l 310 0 l 129 0 z "},"O":{"ha":1089,"x_min":109,"x_max":981,"o":"m 549 -18 q 161 129 255 -18 q 109 340 109 210 l 109 653 q 239 948 109 864 q 552 1018 347 1017 q 929 862 838 1018 q 981 643 981 774 l 981 351 q 852 55 981 146 q 549 -18 749 -18 m 311 317 q 371 180 311 219 q 551 140 431 140 q 725 179 671 140 q 779 317 779 218 l 779 680 q 724 819 779 778 q 551 860 669 860 q 372 819 433 860 q 311 680 311 779 l 311 317 z "},"P":{"ha":906,"x_min":129,"x_max":848,"o":"m 330 492 l 534 492 q 633 534 607 492 q 659 671 659 576 q 599 844 659 808 q 541 858 575 857 l 330 858 l 330 492 m 129 0 l 129 1001 l 522 1001 q 768 925 689 1001 q 848 677 848 849 q 771 426 848 506 q 502 345 695 345 l 330 345 l 330 0 l 129 0 z "},"Q":{"ha":1089,"x_min":109,"x_max":981,"o":"m 311 317 q 371 179 311 218 q 551 140 431 140 q 725 179 671 140 q 779 317 779 218 l 779 680 q 724 818 779 777 q 551 859 669 859 q 372 819 433 859 q 311 680 311 778 l 311 317 m 685 -362 l 467 -15 q 118 235 163 9 q 109 339 109 281 l 109 652 q 239 948 109 864 q 552 1017 347 1017 q 929 861 838 1017 q 981 642 981 774 l 981 350 q 879 76 981 167 q 647 -13 798 4 l 813 -289 l 685 -362 z "},"R":{"ha":1006,"x_min":129,"x_max":941,"o":"m 330 539 l 578 539 q 676 579 649 539 q 703 702 703 620 q 586 858 703 858 l 330 858 l 330 539 m 129 0 l 129 1001 l 561 1001 q 825 922 755 1001 q 895 709 895 844 q 856 513 895 574 q 748 425 817 452 l 941 0 l 732 0 l 557 395 l 330 395 l 330 0 l 129 0 z "},"S":{"ha":869,"x_min":81,"x_max":793,"o":"m 457 -18 q 260 7 364 -18 q 81 73 157 31 l 151 220 q 462 140 301 140 q 576 174 543 140 q 609 273 609 207 q 606 312 609 286 q 471 412 600 373 l 300 462 q 174 528 221 485 q 109 622 126 571 q 92 742 92 673 q 190 949 92 880 q 440 1018 288 1018 q 775 940 641 1018 l 718 798 q 458 860 587 860 q 290 760 295 860 q 290 750 290 755 q 316 671 290 699 q 420 618 341 642 l 590 568 q 743 469 693 536 q 793 278 793 402 q 714 68 793 155 q 457 -18 635 -18 z "},"T":{"ha":810,"x_min":26,"x_max":784,"o":"m 304 0 l 304 848 l 26 848 l 26 1001 l 784 1001 l 784 848 l 505 848 l 505 0 l 304 0 z "},"U":{"ha":1067,"x_min":119,"x_max":948,"o":"m 538 -18 q 169 117 256 -18 q 119 317 119 193 l 119 1002 l 321 1002 l 321 309 q 375 177 321 214 q 539 140 429 140 q 698 177 650 140 q 747 309 747 214 l 747 1002 l 948 1002 l 948 326 q 830 47 948 126 q 538 -18 731 -18 z "},"V":{"ha":1006,"x_min":27,"x_max":979,"o":"m 382 0 l 27 1001 l 243 1001 l 507 192 l 764 1001 l 979 1001 l 627 0 l 382 0 z "},"W":{"ha":1325,"x_min":27,"x_max":1298,"o":"m 287 0 l 27 1001 l 222 1001 l 395 309 l 571 1001 l 741 1001 l 942 316 l 1105 1001 l 1298 1001 l 1039 0 l 870 0 l 660 714 l 467 0 l 287 0 z "},"X":{"ha":917,"x_min":26,"x_max":891,"o":"m 26 0 l 348 507 l 34 1001 l 243 1001 l 454 676 l 657 1001 l 880 1001 l 563 508 l 891 0 l 669 0 l 454 340 l 236 0 l 26 0 z "},"Y":{"ha":884,"x_min":0,"x_max":884,"o":"m 345 0 l 345 385 l 0 1001 l 212 1001 l 447 583 l 681 1001 l 884 1001 l 546 385 l 546 0 l 345 0 z "},"Z":{"ha":803,"x_min":85,"x_max":747,"o":"m 85 0 l 85 120 l 506 853 l 104 853 l 104 1001 l 739 1001 l 739 880 l 320 142 l 747 142 l 747 0 l 85 0 z "},"[":{"ha":571,"x_min":144,"x_max":471,"o":"m 144 -60 l 144 1080 l 471 1080 l 471 970 l 329 970 l 329 49 l 471 49 l 471 -60 l 144 -60 z "},"\\":{"ha":694,"x_min":72,"x_max":623,"o":"m 458 0 l 72 1028 l 237 1028 l 623 0 l 458 0 z "},"]":{"ha":571,"x_min":99,"x_max":426,"o":"m 99 -60 l 99 49 l 241 49 l 241 970 l 99 970 l 99 1080 l 426 1080 l 426 -60 l 99 -60 z "},"^":{"ha":852,"x_min":54,"x_max":782,"o":"m 54 347 l 330 870 l 505 870 l 782 347 l 628 347 l 422 754 l 215 347 l 54 347 z "},"_":{"ha":613,"x_min":5,"x_max":604,"o":"m 5 -22 l 5 97 l 604 97 l 604 -22 l 5 -22 z "},"`":{"ha":377,"x_min":54,"x_max":317,"o":"m 214 785 l 54 1032 l 235 1032 l 317 785 l 214 785 z "},"a":{"ha":796,"x_min":76,"x_max":739,"o":"m 260 199 q 355 112 260 112 q 433 132 392 112 q 498 187 475 151 l 498 369 q 384 312 466 342 q 281 257 302 282 q 260 199 260 231 m 513 81 q 422 12 481 39 q 278 -16 363 -16 q 135 39 193 -16 q 76 180 76 94 q 129 317 76 265 q 333 416 182 368 q 461 468 425 445 q 498 532 498 491 q 384 615 498 616 q 295 590 319 615 q 271 519 271 566 l 271 490 l 98 490 l 98 512 q 170 683 98 621 q 393 744 243 744 q 612 680 544 744 q 680 497 680 616 l 680 209 q 692 144 680 160 q 739 129 705 129 l 732 -5 l 693 -5 q 576 15 618 -5 q 513 81 534 36 z "},"b":{"ha":818,"x_min":109,"x_max":734,"o":"m 549 514 q 425 615 549 615 q 293 581 363 615 l 293 146 q 406 114 335 114 q 549 219 549 114 l 549 514 m 734 223 q 655 50 734 116 q 459 -16 576 -16 q 254 44 343 -16 l 235 0 l 109 0 l 109 1028 l 293 1028 l 293 705 q 441 744 366 744 q 692 649 625 744 q 734 511 734 589 l 734 223 z "},"c":{"ha":751,"x_min":84,"x_max":684,"o":"m 396 -16 q 123 79 184 -16 q 84 222 84 138 l 84 513 q 163 683 84 623 q 389 744 243 744 q 610 686 536 744 q 684 474 684 628 l 511 460 q 487 587 511 559 q 452 610 473 605 q 381 615 431 615 q 269 513 269 615 l 269 218 q 298 138 269 161 q 386 114 328 114 q 467 124 444 114 q 501 164 491 135 q 511 258 511 194 l 684 258 q 669 127 682 178 q 621 45 655 79 q 396 -16 560 -15 z "},"d":{"ha":812,"x_min":84,"x_max":707,"o":"m 269 217 q 300 138 269 163 q 403 114 332 114 q 522 143 473 114 l 522 590 q 403 615 469 615 q 302 592 336 615 q 269 515 269 568 l 269 217 m 374 -16 q 156 46 229 -16 q 84 220 84 107 l 84 511 q 159 681 84 617 q 387 744 234 744 q 522 718 452 744 l 522 1028 l 707 1028 l 707 0 l 582 0 l 562 43 q 374 -16 479 -16 z "},"e":{"ha":779,"x_min":84,"x_max":705,"o":"m 269 441 l 530 441 l 530 527 q 477 608 530 593 q 393 615 450 616 q 302 596 336 615 q 269 524 269 577 l 269 441 m 273 -3 q 175 35 218 8 q 84 228 84 91 l 84 512 q 168 683 84 622 q 395 744 251 744 q 705 505 705 744 l 705 329 l 269 329 l 269 210 q 298 131 269 150 q 399 113 328 113 q 484 119 471 113 q 523 160 514 136 q 533 224 532 184 l 704 224 q 585 11 700 56 q 422 -15 518 -15 q 273 -3 327 -16 z "},"f":{"ha":522,"x_min":58,"x_max":491,"o":"m 155 0 l 155 611 l 58 611 l 58 728 l 155 728 l 155 763 q 214 962 155 895 q 401 1028 273 1028 l 486 1028 l 491 900 l 434 900 q 359 874 379 900 q 340 804 340 848 l 340 728 l 485 728 l 485 611 l 340 611 l 340 0 l 155 0 z "},"g":{"ha":821,"x_min":84,"x_max":718,"o":"m 399 144 q 534 177 489 144 l 534 564 q 495 598 534 581 q 395 615 456 615 q 269 513 269 615 l 269 241 q 399 144 269 144 m 389 -299 q 149 -261 229 -299 l 186 -136 q 375 -164 289 -164 q 498 -130 462 -164 q 534 -20 534 -96 l 534 60 q 353 22 470 22 q 160 82 236 22 q 84 248 84 142 l 84 509 q 148 676 84 608 q 361 744 212 744 q 474 725 419 744 q 566 676 530 705 l 581 729 l 718 729 l 718 -8 q 389 -299 718 -299 z "},"h":{"ha":850,"x_min":110,"x_max":747,"o":"m 110 0 l 110 1027 l 294 1027 l 294 658 q 382 720 317 696 q 536 744 446 744 q 687 688 626 744 q 747 539 747 632 l 747 0 l 563 0 l 563 513 q 439 606 563 606 q 339 578 383 606 q 294 500 294 550 l 294 0 l 110 0 z "},"i":{"ha":406,"x_min":113,"x_max":297,"o":"m 113 832 l 113 996 l 297 996 l 297 832 l 113 832 m 113 0 l 113 728 l 297 728 l 297 0 l 113 0 z "},"j":{"ha":433,"x_min":-7,"x_max":324,"o":"m 138 832 l 138 996 l 323 996 l 323 832 l 138 832 m 2 -245 l -7 -114 l 23 -114 q 140 7 140 -114 l 140 728 l 324 728 l 324 -2 q 262 -181 324 -116 q 71 -245 201 -245 l 2 -245 z "},"k":{"ha":813,"x_min":110,"x_max":805,"o":"m 110 0 l 110 1028 l 294 1028 l 294 408 l 583 728 l 793 728 l 519 414 l 805 0 l 604 0 l 376 337 l 294 254 l 294 0 l 110 0 z "},"l":{"ha":480,"x_min":111,"x_max":449,"o":"m 357 -8 q 172 49 232 -8 q 111 239 111 106 l 111 1027 l 296 1027 l 296 242 q 324 155 296 181 q 426 129 353 129 l 449 129 l 435 -8 l 357 -8 z "},"m":{"ha":1284,"x_min":109,"x_max":1181,"o":"m 109 0 l 109 728 l 293 728 l 293 663 q 392 723 331 703 q 508 744 452 744 q 708 654 654 744 q 950 744 798 744 q 1118 687 1055 744 q 1181 538 1181 631 l 1181 0 l 997 0 l 997 517 q 969 589 997 570 q 890 608 942 608 q 790 581 838 608 q 739 509 743 554 l 739 0 l 554 0 l 554 517 q 525 589 554 570 q 443 608 496 608 q 341 579 389 608 q 293 501 293 551 l 293 0 l 109 0 z "},"n":{"ha":850,"x_min":109,"x_max":747,"o":"m 563 512 q 435 606 563 606 q 336 577 380 606 q 293 498 293 549 l 293 0 l 109 0 l 109 728 l 293 728 l 293 664 q 510 745 386 745 q 691 682 634 745 q 747 522 747 618 l 747 0 l 563 0 l 563 512 z "},"o":{"ha":800,"x_min":84,"x_max":716,"o":"m 400 -16 q 84 220 84 -16 l 84 507 q 167 682 84 619 q 400 744 250 744 q 633 681 549 744 q 716 507 716 618 l 716 220 q 549 1 716 45 q 400 -16 487 -16 m 400 113 q 532 212 532 113 l 532 515 q 498 592 532 569 q 400 615 465 615 q 269 515 269 615 l 269 212 q 301 136 269 159 q 400 113 334 113 z "},"p":{"ha":815,"x_min":109,"x_max":731,"o":"m 416 113 q 547 217 547 113 l 547 512 q 422 615 547 615 q 346 602 381 615 q 293 570 311 588 l 293 144 q 416 113 353 113 m 109 -278 l 109 728 l 237 728 l 256 681 q 463 744 342 744 q 657 680 584 744 q 731 509 731 616 l 731 221 q 656 54 731 123 q 432 -16 582 -16 q 293 12 354 -16 l 293 -278 l 109 -278 z "},"q":{"ha":810,"x_min":84,"x_max":707,"o":"m 269 209 q 384 113 269 113 q 507 138 467 113 q 522 149 521 146 l 522 569 q 399 615 492 615 q 269 513 269 615 l 269 209 m 522 -278 l 522 22 q 373 -16 456 -16 q 150 51 215 -16 q 84 215 84 118 l 84 509 q 160 680 84 616 q 368 744 237 744 q 473 726 423 744 q 556 682 524 709 l 569 728 l 707 728 l 707 -278 l 522 -278 z "},"r":{"ha":564,"x_min":109,"x_max":550,"o":"m 109 0 l 109 728 l 293 728 l 293 642 q 361 697 309 673 q 532 740 450 740 q 550 739 542 740 l 546 583 q 345 537 425 576 q 293 488 300 515 l 293 0 l 109 0 z "},"s":{"ha":674,"x_min":73,"x_max":618,"o":"m 357 -16 q 73 41 185 -16 l 111 167 q 351 113 238 113 q 448 189 437 113 q 450 207 450 199 q 388 281 450 262 l 228 332 q 112 409 146 357 q 77 534 77 460 q 77 540 77 537 q 357 744 79 744 q 602 682 494 744 l 559 568 q 465 601 524 586 q 353 615 406 615 q 277 596 301 615 q 254 533 254 578 q 304 472 254 488 l 454 425 q 582 345 545 396 q 618 201 618 293 q 551 46 618 109 q 357 -16 483 -16 z "},"t":{"ha":551,"x_min":43,"x_max":503,"o":"m 450 -8 q 212 42 284 -8 q 140 231 140 92 l 140 611 l 43 611 l 43 728 l 146 728 l 163 962 l 325 962 l 325 728 l 498 728 l 498 611 l 325 611 l 325 244 q 357 153 325 176 q 481 129 389 129 l 503 129 l 496 -8 l 450 -8 z "},"u":{"ha":846,"x_min":103,"x_max":740,"o":"m 561 80 q 477 10 539 35 q 338 -16 414 -16 q 166 45 229 -16 q 103 197 103 105 l 103 728 l 288 728 l 288 227 q 325 149 288 175 q 415 123 361 123 q 512 152 469 123 q 555 237 555 181 l 555 728 l 740 728 l 740 0 l 566 0 l 561 80 z "},"v":{"ha":748,"x_min":23,"x_max":725,"o":"m 282 0 l 23 728 l 207 728 l 380 180 l 551 728 l 725 728 l 478 0 l 282 0 z "},"w":{"ha":1118,"x_min":31,"x_max":1086,"o":"m 233 0 l 31 728 l 203 728 l 334 206 l 486 728 l 636 728 l 793 200 l 915 728 l 1086 728 l 892 0 l 712 0 l 563 503 l 408 0 l 233 0 z "},"x":{"ha":734,"x_min":24,"x_max":709,"o":"m 24 0 l 275 366 l 25 728 l 218 728 l 369 500 l 520 728 l 708 728 l 464 363 l 709 0 l 526 0 l 372 229 l 220 0 l 24 0 z "},"y":{"ha":734,"x_min":22,"x_max":724,"o":"m 100 -329 l 87 -176 q 228 -102 184 -157 q 296 24 273 -47 l 22 728 l 200 728 l 389 239 l 541 728 l 724 728 l 503 95 q 399 -140 446 -68 q 312 -244 352 -212 q 100 -329 227 -313 z "},"z":{"ha":614,"x_min":71,"x_max":555,"o":"m 71 0 l 71 113 l 357 602 l 77 602 l 77 728 l 555 728 l 555 617 l 271 129 l 551 129 l 551 0 l 71 0 z "},"{":{"ha":673,"x_min":127,"x_max":574,"o":"m 574 -87 q 417 -72 477 -87 q 320 -18 356 -56 q 271 75 284 20 q 257 218 257 130 l 257 277 q 230 381 257 359 q 127 404 202 404 l 127 565 q 230 593 203 565 q 257 703 257 621 l 257 772 q 269 913 257 872 q 293 974 281 954 q 334 1016 304 994 q 574 1055 388 1055 q 574 967 574 996 l 574 937 q 504 933 528 937 q 466 913 479 928 q 449 879 452 899 q 446 821 446 860 l 446 732 q 338 490 446 524 q 422 411 397 469 q 447 250 447 354 l 447 171 q 450 105 447 127 q 466 64 454 83 q 504 38 479 45 q 574 31 530 31 l 574 -87 z "},"|":{"ha":521,"x_min":178,"x_max":343,"o":"m 178 -85 l 178 1090 l 343 1090 l 343 -85 l 178 -85 z "},"}":{"ha":672,"x_min":118,"x_max":564,"o":"m 246 244 q 355 487 246 452 q 271 565 296 508 q 245 726 245 622 l 245 805 q 215 925 245 906 q 119 945 184 945 l 119 1063 q 276 1047 215 1063 q 372 995 336 1032 q 422 902 408 957 q 435 758 435 846 l 435 699 q 463 594 435 618 q 502 576 479 581 q 564 572 524 572 l 564 411 q 462 383 489 411 q 435 274 435 355 l 435 203 q 423 63 435 104 q 399 2 411 22 q 358 -40 388 -18 q 119 -79 304 -79 q 118 9 119 -20 q 119 39 118 39 q 189 43 164 39 q 227 62 214 47 q 243 97 240 77 q 246 155 246 116 l 246 244 z "},"~":{"ha":694,"x_min":61,"x_max":633,"o":"m 225 994 q 300 977 260 994 q 369 937 340 959 q 481 880 445 880 q 539 911 518 880 q 559 983 559 942 l 633 983 q 586 828 633 889 q 470 767 538 767 q 325 824 402 767 q 211 882 247 882 q 155 850 176 882 q 134 778 134 819 l 61 778 q 108 933 61 873 q 225 994 155 994 z "}," ":{"ha":350,"x_min":0,"x_max":0,"o":""},"¡":{"ha":439,"x_min":130,"x_max":309,"o":"m 250 449 q 306 -275 306 -195 l 130 -275 q 198 449 130 -202 l 250 449 m 309 727 l 309 561 l 140 561 l 140 727 l 309 727 z "},"¢":{"ha":751,"x_min":84,"x_max":684,"o":"m 365 -15 q 91 151 126 -7 q 84 222 84 182 l 84 513 q 158 679 84 618 q 365 743 231 739 l 365 876 l 428 876 l 428 743 q 622 675 559 736 q 684 474 684 614 l 511 460 q 493 577 510 546 q 428 614 477 609 l 428 115 q 494 149 477 120 q 511 258 511 177 l 684 258 q 670 134 682 182 q 629 52 658 86 q 551 3 600 18 q 428 -15 503 -12 l 428 -145 l 365 -145 l 365 -15 m 365 614 q 269 513 269 604 l 269 218 q 292 144 269 168 q 365 115 315 120 l 365 614 z "},"£":{"ha":871,"x_min":91,"x_max":766,"o":"m 140 0 l 174 421 l 91 421 l 91 551 l 184 551 l 197 720 q 283 949 206 870 q 523 1027 360 1027 q 657 1008 591 1027 q 766 960 724 988 l 718 823 q 541 869 616 869 q 434 827 465 869 q 397 708 403 785 l 385 551 l 707 551 l 707 421 l 373 421 l 350 153 l 762 153 l 762 0 l 140 0 z "},"¤":{"ha":764,"x_min":84,"x_max":680,"o":"m 250 490 q 250 463 250 490 q 283 396 250 435 q 379 358 317 358 q 474 396 441 358 q 507 490 507 435 q 474 584 507 546 q 379 623 441 623 q 283 584 317 623 q 250 490 250 546 m 550 329 q 379 258 485 258 q 210 326 273 258 l 118 260 l 85 317 l 172 379 q 146 490 146 429 q 174 605 146 551 l 84 669 l 120 724 l 211 656 q 380 722 275 722 q 549 654 486 722 l 646 724 l 677 669 l 585 601 q 610 490 610 551 q 586 382 610 429 l 680 315 l 644 260 l 550 329 z "},"¥":{"ha":884,"x_min":0,"x_max":884,"o":"m 546 250 l 718 250 l 718 141 l 546 141 l 546 0 l 345 0 l 345 141 l 175 141 l 175 250 l 345 250 l 345 336 l 175 336 l 175 445 l 311 445 l 0 1001 l 212 1001 l 447 583 l 681 1001 l 884 1001 l 579 445 l 718 445 l 718 336 l 546 336 l 546 250 z "},"¦":{"ha":522,"x_min":190,"x_max":332,"o":"m 190 543 l 190 1001 l 332 1001 l 332 543 l 190 543 m 190 -81 l 190 400 l 332 400 l 332 -81 l 190 -81 z "},"§":{"ha":736,"x_min":84,"x_max":654,"o":"m 500 393 q 515 443 515 414 q 504 497 515 472 q 448 541 492 522 l 244 638 q 225 613 235 632 q 215 570 215 593 q 273 497 215 522 l 500 393 m 654 484 q 581 342 654 410 q 638 201 638 292 q 570 47 638 109 q 377 -15 503 -15 q 84 76 195 -15 l 148 191 q 350 119 258 119 q 404 125 378 118 q 467 194 467 141 q 452 241 467 222 q 398 279 437 260 l 221 364 q 124 440 158 395 q 90 532 90 485 q 164 677 90 621 q 102 821 102 728 q 171 965 102 914 q 342 1015 239 1015 q 627 934 519 1015 l 570 826 q 378 887 463 887 q 274 818 274 887 q 287 778 274 792 q 330 749 300 763 l 507 665 q 628 568 592 625 q 654 484 654 526 z "},"¨":{"ha":656,"x_min":78,"x_max":603,"o":"m 423 844 l 423 1002 l 603 1002 l 603 844 l 423 844 m 78 844 l 78 1002 l 257 1002 l 257 844 l 78 844 z "},"©":{"ha":1204,"x_min":103,"x_max":1101,"o":"m 958 133 q 925 100 958 133 q 799 29 892 67 q 585 -9 707 -9 q 350 56 464 -9 q 169 235 235 121 q 103 489 103 350 q 169 743 103 629 q 350 922 235 857 q 603 987 464 987 q 856 922 741 987 q 1036 743 970 857 q 1101 507 1101 629 q 1063 292 1101 385 q 958 133 1024 199 m 232 268 q 259 219 232 268 q 384 112 286 169 q 604 56 482 56 q 823 112 726 56 q 975 268 921 169 q 1029 489 1029 367 q 975 711 1029 612 q 823 866 921 810 q 604 923 726 923 q 384 866 482 923 q 232 711 286 810 q 177 490 177 612 q 232 268 177 368 m 592 195 q 530 195 592 195 q 419 250 468 195 q 371 400 371 304 l 371 589 q 490 787 371 749 q 608 802 538 802 q 788 742 745 802 q 830 584 830 683 l 830 567 l 751 560 l 751 604 q 719 710 751 680 q 608 740 687 740 q 491 709 529 740 q 452 604 452 678 l 452 387 q 490 284 452 313 q 609 255 528 255 q 720 283 689 255 q 751 387 751 311 l 751 429 l 830 429 l 830 406 q 811 289 830 326 q 768 235 792 252 q 592 195 716 195 z "},"ª":{"ha":694,"x_min":91,"x_max":637,"o":"m 233 544 q 311 464 233 464 l 311 464 q 377 478 343 464 q 429 522 411 492 l 429 680 q 318 628 402 653 q 233 544 233 603 m 262 351 l 260 351 q 138 398 185 351 q 91 534 91 445 q 96 582 91 561 q 121 625 101 602 q 319 716 160 669 q 400 747 391 738 q 420 768 410 755 q 430 818 430 781 q 409 874 430 855 q 338 892 389 892 q 268 871 288 892 q 248 810 248 850 l 248 785 l 109 785 l 109 804 q 168 949 109 897 q 347 1002 225 1002 q 579 791 579 1002 l 579 551 q 591 491 579 507 q 637 475 602 475 l 625 360 l 568 360 q 486 380 511 360 q 443 445 461 401 q 368 378 415 406 q 262 351 321 351 z "},"«":{"ha":694,"x_min":45,"x_max":610,"o":"m 516 54 l 326 359 l 511 665 l 610 617 l 471 359 l 610 102 l 516 54 m 235 54 l 45 359 l 231 665 l 330 617 l 190 359 l 330 102 l 235 54 z "},"¬":{"ha":694,"x_min":87,"x_max":578,"o":"m 478 153 l 478 398 l 87 398 l 87 513 l 578 513 l 578 153 l 478 153 z "},"­":{"ha":526,"x_min":89,"x_max":445,"o":"m 89 271 l 89 401 l 445 401 l 445 271 l 89 271 z "},"®":{"ha":1204,"x_min":103,"x_max":1101,"o":"m 958 133 q 925 100 958 133 q 799 29 892 67 q 585 -9 707 -9 q 350 56 464 -9 q 169 235 235 121 q 103 489 103 350 q 169 743 103 629 q 350 922 235 857 q 603 987 464 987 q 856 922 741 987 q 1036 743 970 857 q 1101 507 1101 629 q 1063 292 1101 385 q 958 133 1024 199 m 232 268 q 259 219 232 268 q 384 112 286 169 q 604 56 482 56 q 823 112 726 56 q 975 268 921 169 q 1029 489 1029 367 q 975 711 1029 612 q 823 866 921 810 q 604 923 726 923 q 384 866 482 923 q 232 711 286 810 q 177 490 177 612 q 232 268 177 368 m 490 503 l 671 503 q 764 595 762 503 l 764 611 q 677 720 764 720 l 490 720 l 490 503 m 401 216 l 401 782 l 675 782 q 853 616 849 782 l 853 606 q 750 452 853 479 l 875 216 l 788 216 l 666 442 l 490 442 l 490 216 l 401 216 z "},"¯":{"ha":347,"x_min":-5,"x_max":351,"o":"m -5 848 l -5 955 l 351 955 l 351 848 l -5 848 z "},"°":{"ha":661,"x_min":87,"x_max":574,"o":"m 150 643 q 118 677 150 643 q 87 802 87 710 q 152 959 87 893 q 331 1025 216 1025 q 510 959 446 1025 q 574 801 574 893 q 510 642 574 708 q 329 576 446 576 q 150 643 213 576 m 195 801 q 195 774 195 801 q 230 710 195 747 q 331 673 265 673 q 432 710 397 673 q 467 801 467 747 q 432 892 467 854 q 331 929 397 929 q 230 892 265 929 q 195 801 195 854 z "},"±":{"ha":694,"x_min":116,"x_max":578,"o":"m 116 0 l 116 112 l 578 112 l 578 0 l 116 0 m 291 221 l 291 401 l 116 401 l 116 512 l 291 512 l 291 690 l 404 690 l 404 512 l 578 512 l 578 401 l 404 401 l 404 221 l 291 221 z "},"³":{"ha":566,"x_min":95,"x_max":463,"o":"m 283 423 q 348 515 348 423 q 323 576 348 557 q 232 595 299 595 l 232 677 q 336 712 321 677 q 344 760 344 728 q 281 842 344 842 q 212 744 212 842 l 98 744 q 147 879 98 834 q 278 924 195 924 q 410 881 361 924 q 458 760 458 838 q 367 636 458 665 q 463 508 463 607 q 414 383 463 427 q 278 339 365 339 q 144 385 192 339 q 95 522 96 430 l 210 522 q 283 423 212 423 z "},"´":{"ha":376,"x_min":72,"x_max":331,"o":"m 72 785 l 149 1032 l 331 1032 l 173 785 l 72 785 z "},"µ":{"ha":845,"x_min":100,"x_max":738,"o":"m 553 92 q 488 15 533 43 q 385 -13 442 -13 q 271 1 328 -13 l 271 -160 l 100 -160 l 100 728 l 285 728 l 285 209 q 321 135 285 157 q 411 113 357 113 q 508 140 464 113 q 553 215 553 168 l 553 728 l 738 728 l 738 0 l 557 0 l 553 92 z "},"¶":{"ha":829,"x_min":64,"x_max":693,"o":"m 303 0 l 303 582 q 132 638 199 583 q 64 795 64 693 q 218 989 64 947 q 313 1001 262 1001 l 693 1001 l 693 0 l 576 0 l 576 905 l 420 905 l 420 0 l 303 0 z "},"·":{"ha":347,"x_min":90,"x_max":258,"o":"m 90 529 l 90 695 l 258 695 l 258 529 l 90 529 z "},"¸":{"ha":347,"x_min":81,"x_max":312,"o":"m 146 -335 q 81 -329 112 -335 l 81 -250 q 134 -254 104 -254 q 184 -238 164 -254 q 205 -194 205 -222 q 179 -142 205 -165 q 106 -117 153 -118 l 106 0 l 158 0 l 162 -68 q 273 -122 233 -81 q 312 -212 312 -162 q 269 -299 312 -262 q 146 -335 225 -335 z "},"º":{"ha":694,"x_min":92,"x_max":602,"o":"m 348 347 q 92 550 92 347 l 92 797 q 159 946 92 892 q 347 1000 226 1000 q 535 946 468 1000 q 602 797 602 892 l 602 550 q 544 400 602 452 q 348 347 485 348 m 345 458 l 347 458 q 452 544 452 458 l 452 805 q 426 871 452 851 q 346 891 399 891 q 239 805 239 891 l 239 544 q 265 478 239 498 q 345 458 292 458 z "},"»":{"ha":694,"x_min":104,"x_max":669,"o":"m 484 54 l 384 102 l 524 359 l 384 617 l 479 665 l 669 359 l 484 54 m 203 54 l 104 102 l 243 359 l 104 617 l 198 665 l 388 359 l 203 54 z "},"¼":{"ha":1650,"x_min":87,"x_max":1563,"o":"m 576 0 l 1010 1021 l 1128 1021 l 694 0 l 576 0 m 1341 0 l 1341 142 l 1002 142 l 1002 250 l 1192 728 l 1321 728 l 1139 253 l 1341 253 l 1341 417 l 1449 417 l 1449 253 l 1563 253 l 1563 142 l 1449 142 l 1449 0 l 1341 0 m 89 286 l 88 386 l 270 386 l 270 894 l 99 867 l 87 966 l 315 1002 l 414 1002 l 414 386 l 581 386 l 581 286 l 89 286 z "},"½":{"ha":1749,"x_min":87,"x_max":1615,"o":"m 1168 -1 l 1138 108 l 1379 351 q 1448 437 1426 399 q 1470 523 1470 476 q 1448 594 1470 570 q 1367 618 1426 618 q 1288 589 1308 618 q 1268 479 1268 560 l 1120 479 q 1176 668 1120 610 q 1373 726 1232 726 q 1615 520 1615 726 q 1578 390 1615 448 q 1469 262 1541 332 l 1311 109 l 1607 109 l 1607 -1 l 1168 -1 m 596 0 l 1031 1021 l 1149 1021 l 714 0 l 596 0 m 89 286 l 88 386 l 270 386 l 270 894 l 99 867 l 87 966 l 315 1002 l 414 1002 l 414 386 l 581 386 l 581 286 l 89 286 z "},"¾":{"ha":1954,"x_min":166,"x_max":1590,"o":"m 545 671 q 656 515 656 642 q 604 356 656 416 q 416 296 552 296 q 225 349 281 296 q 166 524 169 402 l 292 524 q 323 422 293 444 q 419 401 353 401 q 507 427 486 401 q 528 504 528 454 q 517 576 528 554 q 381 622 496 622 l 381 718 q 514 754 496 718 q 525 821 525 776 q 500 889 524 867 q 408 911 475 911 q 318 887 341 911 q 294 788 294 863 q 294 784 294 786 l 169 784 q 234 966 169 917 q 416 1015 300 1015 q 591 965 532 1015 q 650 822 650 916 q 600 693 650 728 q 545 671 578 678 m 1369 0 l 1369 142 l 1029 142 l 1029 250 l 1219 728 l 1348 728 l 1166 253 l 1369 253 l 1369 417 l 1476 417 l 1476 253 l 1590 253 l 1590 142 l 1476 142 l 1476 0 l 1369 0 m 603 0 l 1038 1021 l 1156 1021 l 721 0 l 603 0 z "},"¿":{"ha":844,"x_min":98,"x_max":768,"o":"m 566 896 l 566 730 l 397 730 l 397 896 l 566 896 m 555 604 l 387 394 q 296 204 296 281 q 307 101 296 128 q 333 60 318 73 q 436 28 366 28 q 528 44 505 28 q 561 71 551 59 q 583 186 583 98 l 583 243 l 768 243 l 768 193 q 731 -7 768 54 q 625 -95 694 -67 q 465 -122 555 -122 q 326 -113 375 -121 q 182 -54 232 -97 q 115 45 132 -11 q 98 188 98 102 q 140 348 98 274 q 276 501 181 422 l 399 604 l 555 604 z "},"À":{"ha":1025,"x_min":47,"x_max":978,"o":"m 461 1143 l 300 1390 l 481 1390 l 564 1143 l 461 1143 m 356 325 l 669 325 l 515 851 l 356 325 m 47 0 l 377 1001 l 644 1001 l 978 0 l 764 0 l 708 191 l 316 191 l 258 0 l 47 0 z "},"Á":{"ha":1025,"x_min":47,"x_max":978,"o":"m 463 1143 l 540 1390 l 722 1390 l 564 1143 l 463 1143 m 356 325 l 669 325 l 515 851 l 356 325 m 47 0 l 377 1001 l 644 1001 l 978 0 l 764 0 l 708 191 l 316 191 l 258 0 l 47 0 z "},"Â":{"ha":1025,"x_min":47,"x_max":978,"o":"m 302 1143 l 461 1346 l 572 1346 l 722 1143 l 604 1143 l 517 1261 l 425 1143 l 302 1143 m 356 325 l 669 325 l 515 851 l 356 325 m 47 0 l 377 1001 l 644 1001 l 978 0 l 764 0 l 708 191 l 316 191 l 258 0 l 47 0 z "},"Ã":{"ha":1025,"x_min":47,"x_max":978,"o":"m 437 1143 q 302 1319 302 1143 l 382 1319 q 425 1261 382 1261 q 467 1284 440 1261 q 587 1330 518 1330 q 723 1154 723 1330 l 643 1154 q 605 1213 643 1213 q 559 1188 588 1213 q 437 1143 505 1142 m 356 325 l 669 325 l 515 851 l 356 325 m 47 0 l 377 1001 l 644 1001 l 978 0 l 764 0 l 708 191 l 316 191 l 258 0 l 47 0 z "},"Ä":{"ha":1025,"x_min":47,"x_max":978,"o":"m 595 1143 l 595 1301 l 775 1301 l 775 1143 l 595 1143 m 250 1143 l 250 1301 l 429 1301 l 429 1143 l 250 1143 m 356 325 l 669 325 l 515 851 l 356 325 m 47 0 l 377 1001 l 644 1001 l 978 0 l 764 0 l 708 191 l 316 191 l 258 0 l 47 0 z "},"Å":{"ha":1025,"x_min":47,"x_max":978,"o":"m 627 1046 q 607 1027 627 1046 q 513 1008 586 1008 q 398 1046 439 1008 q 357 1153 357 1084 q 398 1259 357 1221 q 513 1297 439 1297 q 627 1259 586 1297 q 669 1153 669 1221 q 627 1046 669 1084 m 433 1153 q 433 1111 433 1153 q 513 1069 433 1069 q 593 1153 593 1069 q 513 1237 593 1237 q 433 1153 433 1237 m 356 325 l 669 325 l 515 851 l 356 325 m 47 0 l 377 1001 l 644 1001 l 978 0 l 764 0 l 708 191 l 316 191 l 258 0 l 47 0 z "},"Æ":{"ha":1244,"x_min":56,"x_max":1160,"o":"m 357 323 l 606 323 l 606 847 l 513 847 l 357 323 m 267 0 l 56 0 l 366 1002 l 1153 1002 l 1153 847 l 795 847 l 795 582 l 1105 582 l 1105 437 l 795 437 l 795 154 l 1160 154 l 1160 0 l 606 0 l 606 191 l 320 191 l 267 0 z "},"Ç":{"ha":1010,"x_min":109,"x_max":924,"o":"m 530 -342 q 465 -336 496 -342 l 465 -256 q 518 -261 488 -261 q 568 -245 548 -261 q 589 -201 589 -229 q 563 -149 589 -172 q 490 -123 537 -125 l 490 -7 l 542 -7 l 546 -75 q 656 -129 617 -88 q 696 -219 696 -169 q 652 -306 696 -269 q 530 -342 609 -342 m 548 -18 q 486 -18 548 -18 q 349 0 425 -18 q 227 47 273 18 q 154 122 181 76 q 118 216 127 168 q 109 328 109 264 l 109 663 q 181 913 109 842 q 374 1006 254 986 q 527 1018 441 1019 q 897 848 837 1018 q 924 667 924 772 l 924 654 l 726 631 l 726 682 q 685 823 726 787 q 528 860 644 860 q 361 823 412 860 q 310 686 310 786 l 310 308 q 362 174 310 208 q 530 140 415 140 q 625 147 590 140 q 685 173 661 153 q 718 225 709 193 q 726 312 726 258 l 726 344 l 924 344 l 924 326 q 880 111 924 177 q 754 14 836 45 q 548 -18 672 -18 z "},"È":{"ha":878,"x_min":129,"x_max":792,"o":"m 410 1143 l 249 1390 l 430 1390 l 512 1143 l 410 1143 m 129 0 l 129 1001 l 785 1001 l 785 849 l 330 849 l 330 583 l 733 583 l 733 438 l 330 438 l 330 152 l 792 152 l 792 0 l 129 0 z "},"É":{"ha":878,"x_min":129,"x_max":792,"o":"m 410 1143 l 487 1390 l 669 1390 l 511 1143 l 410 1143 m 129 0 l 129 1001 l 785 1001 l 785 849 l 330 849 l 330 583 l 733 583 l 733 438 l 330 438 l 330 152 l 792 152 l 792 0 l 129 0 z "},"Ê":{"ha":878,"x_min":129,"x_max":792,"o":"m 251 1143 l 410 1346 l 520 1346 l 671 1143 l 552 1143 l 465 1261 l 373 1143 l 251 1143 m 129 0 l 129 1001 l 785 1001 l 785 849 l 330 849 l 330 583 l 733 583 l 733 438 l 330 438 l 330 152 l 792 152 l 792 0 l 129 0 z "},"Ë":{"ha":878,"x_min":129,"x_max":792,"o":"m 543 1143 l 543 1301 l 723 1301 l 723 1143 l 543 1143 m 198 1143 l 198 1301 l 377 1301 l 377 1143 l 198 1143 m 129 0 l 129 1001 l 785 1001 l 785 849 l 330 849 l 330 583 l 733 583 l 733 438 l 330 438 l 330 152 l 792 152 l 792 0 l 129 0 z "},"Ì":{"ha":779,"x_min":107,"x_max":671,"o":"m 338 1143 l 177 1390 l 358 1390 l 440 1143 l 338 1143 m 107 0 l 107 151 l 290 151 l 290 851 l 107 851 l 107 1001 l 671 1001 l 671 851 l 490 851 l 490 151 l 671 151 l 671 0 l 107 0 z "},"Í":{"ha":779,"x_min":107,"x_max":671,"o":"m 339 1143 l 416 1390 l 598 1390 l 440 1143 l 339 1143 m 107 0 l 107 151 l 290 151 l 290 851 l 107 851 l 107 1001 l 671 1001 l 671 851 l 490 851 l 490 151 l 671 151 l 671 0 l 107 0 z "},"Î":{"ha":779,"x_min":107,"x_max":671,"o":"m 179 1143 l 338 1346 l 448 1346 l 599 1143 l 480 1143 l 393 1261 l 301 1143 l 179 1143 m 107 0 l 107 151 l 290 151 l 290 851 l 107 851 l 107 1001 l 671 1001 l 671 851 l 490 851 l 490 151 l 671 151 l 671 0 l 107 0 z "},"Ï":{"ha":779,"x_min":107,"x_max":671,"o":"m 472 1143 l 472 1301 l 652 1301 l 652 1143 l 472 1143 m 127 1143 l 127 1301 l 306 1301 l 306 1143 l 127 1143 m 107 0 l 107 151 l 290 151 l 290 851 l 107 851 l 107 1001 l 671 1001 l 671 851 l 490 851 l 490 151 l 671 151 l 671 0 l 107 0 z "},"Ð":{"ha":1063,"x_min":61,"x_max":947,"o":"m 345 157 l 561 157 q 705 195 664 157 q 745 319 745 233 l 745 678 q 704 804 745 763 q 561 844 662 844 l 345 844 l 345 575 l 553 575 l 553 473 l 345 473 l 345 157 m 144 575 l 144 1002 l 578 1002 q 901 859 819 1002 q 947 652 947 779 l 947 345 q 754 25 947 91 q 578 0 681 0 l 144 0 l 144 473 l 61 473 l 61 575 l 144 575 z "},"Ñ":{"ha":1108,"x_min":129,"x_max":979,"o":"m 479 1143 q 344 1319 344 1143 l 424 1319 q 467 1261 424 1261 q 509 1284 482 1261 q 629 1330 560 1330 q 765 1154 765 1330 l 685 1154 q 647 1213 685 1213 q 602 1188 630 1213 q 479 1143 547 1142 m 129 0 l 129 1001 l 280 1001 l 800 315 l 800 1001 l 979 1001 l 979 0 l 828 0 l 310 675 l 310 0 l 129 0 z "},"Ò":{"ha":1089,"x_min":109,"x_max":981,"o":"m 494 1143 l 333 1390 l 514 1390 l 596 1143 l 494 1143 m 549 -18 q 161 129 255 -18 q 109 340 109 210 l 109 653 q 239 948 109 864 q 552 1018 347 1017 q 929 862 838 1018 q 981 643 981 774 l 981 351 q 852 55 981 146 q 549 -18 749 -18 m 311 317 q 371 180 311 219 q 551 140 431 140 q 725 179 671 140 q 779 317 779 218 l 779 680 q 724 819 779 778 q 551 860 669 860 q 372 819 433 860 q 311 680 311 779 l 311 317 z "},"Ó":{"ha":1089,"x_min":109,"x_max":981,"o":"m 494 1143 l 571 1390 l 753 1390 l 595 1143 l 494 1143 m 549 -18 q 161 129 255 -18 q 109 340 109 210 l 109 653 q 239 948 109 864 q 552 1018 347 1017 q 929 862 838 1018 q 981 643 981 774 l 981 351 q 852 55 981 146 q 549 -18 749 -18 m 311 317 q 371 180 311 219 q 551 140 431 140 q 725 179 671 140 q 779 317 779 218 l 779 680 q 724 819 779 778 q 551 860 669 860 q 372 819 433 860 q 311 680 311 779 l 311 317 z "},"Ô":{"ha":1089,"x_min":109,"x_max":981,"o":"m 335 1143 l 494 1346 l 604 1346 l 755 1143 l 636 1143 l 549 1261 l 457 1143 l 335 1143 m 549 -18 q 161 129 255 -18 q 109 340 109 210 l 109 653 q 239 948 109 864 q 552 1018 347 1017 q 929 862 838 1018 q 981 643 981 774 l 981 351 q 852 55 981 146 q 549 -18 749 -18 m 311 317 q 371 180 311 219 q 551 140 431 140 q 725 179 671 140 q 779 317 779 218 l 779 680 q 724 819 779 778 q 551 860 669 860 q 372 819 433 860 q 311 680 311 779 l 311 317 z "},"Õ":{"ha":1089,"x_min":109,"x_max":981,"o":"m 470 1143 q 334 1319 334 1143 l 414 1319 q 457 1261 414 1261 q 499 1284 473 1261 q 620 1330 551 1330 q 755 1154 755 1330 l 675 1154 q 637 1213 675 1213 q 592 1188 621 1213 q 470 1143 538 1142 m 549 -18 q 161 129 255 -18 q 109 340 109 210 l 109 653 q 239 948 109 864 q 552 1018 347 1017 q 929 862 838 1018 q 981 643 981 774 l 981 351 q 852 55 981 146 q 549 -18 749 -18 m 311 317 q 371 180 311 219 q 551 140 431 140 q 725 179 671 140 q 779 317 779 218 l 779 680 q 724 819 779 778 q 551 860 669 860 q 372 819 433 860 q 311 680 311 779 l 311 317 z "},"Ö":{"ha":1089,"x_min":109,"x_max":981,"o":"m 627 1143 l 627 1301 l 807 1301 l 807 1143 l 627 1143 m 282 1143 l 282 1301 l 461 1301 l 461 1143 l 282 1143 m 549 -18 q 161 129 255 -18 q 109 340 109 210 l 109 653 q 239 948 109 864 q 552 1018 347 1017 q 929 862 838 1018 q 981 643 981 774 l 981 351 q 852 55 981 146 q 549 -18 749 -18 m 311 317 q 371 180 311 219 q 551 140 431 140 q 725 179 671 140 q 779 317 779 218 l 779 680 q 724 819 779 778 q 551 860 669 860 q 372 819 433 860 q 311 680 311 779 l 311 317 z "},"×":{"ha":695,"x_min":104,"x_max":591,"o":"m 180 146 l 104 233 l 266 391 l 104 547 l 180 635 l 348 471 l 516 635 l 591 547 l 430 391 l 591 233 l 516 146 l 348 311 l 180 146 z "},"Ø":{"ha":1105,"x_min":113,"x_max":985,"o":"m 658 850 q 556 860 614 860 q 376 819 437 860 q 315 680 315 779 l 315 317 q 397 167 315 207 l 658 850 m 774 986 q 985 643 985 912 l 985 351 q 856 55 985 146 q 556 -18 753 -18 q 396 -5 463 -18 l 342 -147 l 283 -132 l 337 9 q 160 135 208 49 q 113 340 113 222 l 113 653 q 243 948 113 864 q 556 1018 351 1017 q 716 1002 646 1018 l 773 1152 l 832 1136 l 774 986 m 556 140 q 729 179 675 140 q 783 317 783 218 l 783 680 q 715 828 783 787 l 455 149 q 556 140 495 140 z "},"Ù":{"ha":1067,"x_min":119,"x_max":948,"o":"m 483 1143 l 322 1390 l 503 1390 l 585 1143 l 483 1143 m 538 -18 q 169 117 256 -18 q 119 317 119 193 l 119 1002 l 321 1002 l 321 309 q 375 177 321 214 q 539 140 429 140 q 698 177 650 140 q 747 309 747 214 l 747 1002 l 948 1002 l 948 326 q 830 47 948 126 q 538 -18 731 -18 z "},"Ú":{"ha":1067,"x_min":119,"x_max":948,"o":"m 483 1143 l 560 1390 l 742 1390 l 584 1143 l 483 1143 m 538 -18 q 169 117 256 -18 q 119 317 119 193 l 119 1002 l 321 1002 l 321 309 q 375 177 321 214 q 539 140 429 140 q 698 177 650 140 q 747 309 747 214 l 747 1002 l 948 1002 l 948 326 q 830 47 948 126 q 538 -18 731 -18 z "},"Û":{"ha":1067,"x_min":119,"x_max":948,"o":"m 324 1143 l 483 1346 l 593 1346 l 744 1143 l 625 1143 l 538 1261 l 446 1143 l 324 1143 m 538 -18 q 169 117 256 -18 q 119 317 119 193 l 119 1002 l 321 1002 l 321 309 q 375 177 321 214 q 539 140 429 140 q 698 177 650 140 q 747 309 747 214 l 747 1002 l 948 1002 l 948 326 q 830 47 948 126 q 538 -18 731 -18 z "},"Ü":{"ha":1067,"x_min":119,"x_max":948,"o":"m 616 1143 l 616 1301 l 796 1301 l 796 1143 l 616 1143 m 271 1143 l 271 1301 l 450 1301 l 450 1143 l 271 1143 m 538 -18 q 169 117 256 -18 q 119 317 119 193 l 119 1002 l 321 1002 l 321 309 q 375 177 321 214 q 539 140 429 140 q 698 177 650 140 q 747 309 747 214 l 747 1002 l 948 1002 l 948 326 q 830 47 948 126 q 538 -18 731 -18 z "},"Ý":{"ha":884,"x_min":0,"x_max":884,"o":"m 392 1143 l 469 1390 l 651 1390 l 493 1143 l 392 1143 m 345 0 l 345 385 l 0 1001 l 212 1001 l 447 583 l 681 1001 l 884 1001 l 546 385 l 546 0 l 345 0 z "},"Þ":{"ha":924,"x_min":146,"x_max":863,"o":"m 348 385 l 559 385 q 657 416 634 385 q 681 536 681 448 q 657 663 681 625 q 566 701 633 701 l 348 701 l 348 385 m 146 0 l 146 1001 l 348 1001 l 348 841 l 547 841 q 788 779 714 841 q 863 550 863 718 q 833 366 863 431 q 732 271 804 300 q 528 241 660 241 l 348 241 l 348 0 l 146 0 z "},"ß":{"ha":872,"x_min":107,"x_max":810,"o":"m 592 555 q 810 263 810 491 q 717 62 810 137 q 422 -14 624 -14 l 422 115 q 588 159 538 115 q 638 286 638 204 l 638 298 q 585 427 635 389 q 431 477 535 466 l 431 606 q 572 700 547 605 q 579 745 579 724 q 541 861 579 829 q 428 894 503 894 q 323 861 353 894 q 293 766 293 828 l 293 0 l 107 0 l 107 758 q 185 952 107 882 q 416 1022 264 1022 q 744 755 744 1022 q 704 636 744 691 q 592 555 664 581 z "},"à":{"ha":796,"x_min":76,"x_max":739,"o":"m 357 869 l 196 1116 l 377 1116 l 459 869 l 357 869 m 260 199 q 355 112 260 112 q 433 132 392 112 q 498 187 475 151 l 498 369 q 384 312 466 342 q 281 257 302 282 q 260 199 260 231 m 513 81 q 422 12 481 39 q 278 -16 363 -16 q 135 39 193 -16 q 76 180 76 94 q 129 317 76 265 q 333 416 182 368 q 461 468 425 445 q 498 532 498 491 q 384 615 498 616 q 295 590 319 615 q 271 519 271 566 l 271 490 l 98 490 l 98 512 q 170 683 98 621 q 393 744 243 744 q 612 680 544 744 q 680 497 680 616 l 680 209 q 692 144 680 160 q 739 129 705 129 l 732 -5 l 693 -5 q 576 15 618 -5 q 513 81 534 36 z "},"á":{"ha":796,"x_min":76,"x_max":739,"o":"m 357 869 l 434 1116 l 616 1116 l 458 869 l 357 869 m 260 199 q 355 112 260 112 q 433 132 392 112 q 498 187 475 151 l 498 369 q 384 312 466 342 q 281 257 302 282 q 260 199 260 231 m 513 81 q 422 12 481 39 q 278 -16 363 -16 q 135 39 193 -16 q 76 180 76 94 q 129 317 76 265 q 333 416 182 368 q 461 468 425 445 q 498 532 498 491 q 384 615 498 616 q 295 590 319 615 q 271 519 271 566 l 271 490 l 98 490 l 98 512 q 170 683 98 621 q 393 744 243 744 q 612 680 544 744 q 680 497 680 616 l 680 209 q 692 144 680 160 q 739 129 705 129 l 732 -5 l 693 -5 q 576 15 618 -5 q 513 81 534 36 z "},"â":{"ha":796,"x_min":76,"x_max":739,"o":"m 198 869 l 357 1072 l 467 1072 l 618 869 l 499 869 l 412 987 l 320 869 l 198 869 m 260 199 q 355 112 260 112 q 433 132 392 112 q 498 187 475 151 l 498 369 q 384 312 466 342 q 281 257 302 282 q 260 199 260 231 m 513 81 q 422 12 481 39 q 278 -16 363 -16 q 135 39 193 -16 q 76 180 76 94 q 129 317 76 265 q 333 416 182 368 q 461 468 425 445 q 498 532 498 491 q 384 615 498 616 q 295 590 319 615 q 271 519 271 566 l 271 490 l 98 490 l 98 512 q 170 683 98 621 q 393 744 243 744 q 612 680 544 744 q 680 497 680 616 l 680 209 q 692 144 680 160 q 739 129 705 129 l 732 -5 l 693 -5 q 576 15 618 -5 q 513 81 534 36 z "},"ã":{"ha":796,"x_min":76,"x_max":739,"o":"m 333 869 q 197 1045 197 869 l 277 1045 q 320 987 277 987 q 362 1010 336 987 q 483 1056 414 1056 q 618 880 618 1056 l 538 880 q 500 939 538 939 q 455 914 484 939 q 333 869 401 868 m 260 199 q 355 112 260 112 q 433 132 392 112 q 498 187 475 151 l 498 369 q 384 312 466 342 q 281 257 302 282 q 260 199 260 231 m 513 81 q 422 12 481 39 q 278 -16 363 -16 q 135 39 193 -16 q 76 180 76 94 q 129 317 76 265 q 333 416 182 368 q 461 468 425 445 q 498 532 498 491 q 384 615 498 616 q 295 590 319 615 q 271 519 271 566 l 271 490 l 98 490 l 98 512 q 170 683 98 621 q 393 744 243 744 q 612 680 544 744 q 680 497 680 616 l 680 209 q 692 144 680 160 q 739 129 705 129 l 732 -5 l 693 -5 q 576 15 618 -5 q 513 81 534 36 z "},"ä":{"ha":796,"x_min":76,"x_max":739,"o":"m 490 869 l 490 1027 l 670 1027 l 670 869 l 490 869 m 145 869 l 145 1027 l 324 1027 l 324 869 l 145 869 m 260 199 q 355 112 260 112 q 433 132 392 112 q 498 187 475 151 l 498 369 q 384 312 466 342 q 281 257 302 282 q 260 199 260 231 m 513 81 q 422 12 481 39 q 278 -16 363 -16 q 135 39 193 -16 q 76 180 76 94 q 129 317 76 265 q 333 416 182 368 q 461 468 425 445 q 498 532 498 491 q 384 615 498 616 q 295 590 319 615 q 271 519 271 566 l 271 490 l 98 490 l 98 512 q 170 683 98 621 q 393 744 243 744 q 612 680 544 744 q 680 497 680 616 l 680 209 q 692 144 680 160 q 739 129 705 129 l 732 -5 l 693 -5 q 576 15 618 -5 q 513 81 534 36 z "},"å":{"ha":796,"x_min":76,"x_max":739,"o":"m 522 907 q 502 888 522 907 q 408 869 481 869 q 293 907 334 869 q 252 1013 252 945 q 293 1119 252 1082 q 408 1157 334 1157 q 522 1119 481 1157 q 564 1013 564 1082 q 522 907 564 945 m 328 1014 q 328 972 328 1014 q 408 930 328 930 q 488 1014 488 930 q 408 1097 488 1097 q 328 1014 328 1097 m 260 199 q 355 112 260 112 q 433 132 392 112 q 498 187 475 151 l 498 369 q 384 312 466 342 q 281 257 302 282 q 260 199 260 231 m 513 81 q 422 12 481 39 q 278 -16 363 -16 q 135 39 193 -16 q 76 180 76 94 q 129 317 76 265 q 333 416 182 368 q 461 468 425 445 q 498 532 498 491 q 384 615 498 616 q 295 590 319 615 q 271 519 271 566 l 271 490 l 98 490 l 98 512 q 170 683 98 621 q 393 744 243 744 q 612 680 544 744 q 680 497 680 616 l 680 209 q 692 144 680 160 q 739 129 705 129 l 732 -5 l 693 -5 q 576 15 618 -5 q 513 81 534 36 z "},"æ":{"ha":1176,"x_min":76,"x_max":1101,"o":"m 686 444 l 930 444 l 930 519 q 900 595 930 575 q 810 615 870 615 q 718 593 749 615 q 686 515 686 570 l 686 444 m 253 199 q 278 131 253 155 q 347 106 304 106 q 434 123 390 106 q 501 176 478 140 l 501 353 q 364 305 475 330 q 253 199 253 280 m 686 218 q 794 113 686 113 q 861 117 842 113 q 898 133 882 120 q 929 239 928 157 l 1100 239 q 1053 61 1097 117 q 910 -9 1008 4 q 804 -16 867 -16 q 574 88 630 -16 q 448 9 513 35 q 287 -16 382 -16 q 134 39 191 -16 q 76 191 76 94 q 134 330 76 288 q 353 410 193 373 q 461 441 439 430 q 501 522 501 461 q 385 616 501 616 q 296 588 320 616 q 271 512 271 560 l 271 488 l 98 488 l 98 505 q 171 680 98 615 q 389 744 243 744 q 516 722 460 744 q 595 656 572 699 q 815 744 667 744 q 1101 505 1101 744 l 1101 349 l 686 349 l 686 218 z "},"ç":{"ha":751,"x_min":84,"x_max":684,"o":"m 398 -340 q 334 -334 364 -340 l 334 -254 q 387 -259 357 -259 q 437 -243 416 -259 q 457 -199 457 -227 q 431 -146 457 -170 q 359 -121 406 -123 l 359 -5 l 410 -5 l 414 -73 q 525 -126 486 -86 q 564 -217 564 -167 q 521 -303 564 -267 q 398 -340 477 -340 m 396 -16 q 123 79 184 -16 q 84 222 84 138 l 84 513 q 163 683 84 623 q 389 744 243 744 q 610 686 536 744 q 684 474 684 628 l 511 460 q 487 587 511 559 q 452 610 473 605 q 381 615 431 615 q 269 513 269 615 l 269 218 q 298 138 269 161 q 386 114 328 114 q 467 124 444 114 q 501 164 491 135 q 511 258 511 194 l 684 258 q 669 127 682 178 q 621 45 655 79 q 396 -16 560 -15 z "},"è":{"ha":779,"x_min":84,"x_max":705,"o":"m 343 869 l 182 1116 l 363 1116 l 446 869 l 343 869 m 269 441 l 530 441 l 530 527 q 477 608 530 593 q 393 615 450 616 q 302 596 336 615 q 269 524 269 577 l 269 441 m 273 -3 q 175 35 218 8 q 84 228 84 91 l 84 512 q 168 683 84 622 q 395 744 251 744 q 705 505 705 744 l 705 329 l 269 329 l 269 210 q 298 131 269 150 q 399 113 328 113 q 484 119 471 113 q 523 160 514 136 q 533 224 532 184 l 704 224 q 585 11 700 56 q 422 -15 518 -15 q 273 -3 327 -16 z "},"é":{"ha":779,"x_min":84,"x_max":705,"o":"m 344 869 l 421 1116 l 603 1116 l 445 869 l 344 869 m 269 441 l 530 441 l 530 527 q 477 608 530 593 q 393 615 450 616 q 302 596 336 615 q 269 524 269 577 l 269 441 m 273 -3 q 175 35 218 8 q 84 228 84 91 l 84 512 q 168 683 84 622 q 395 744 251 744 q 705 505 705 744 l 705 329 l 269 329 l 269 210 q 298 131 269 150 q 399 113 328 113 q 484 119 471 113 q 523 160 514 136 q 533 224 532 184 l 704 224 q 585 11 700 56 q 422 -15 518 -15 q 273 -3 327 -16 z "},"ê":{"ha":779,"x_min":84,"x_max":705,"o":"m 184 869 l 343 1072 l 454 1072 l 604 869 l 486 869 l 399 987 l 307 869 l 184 869 m 269 441 l 530 441 l 530 527 q 477 608 530 593 q 393 615 450 616 q 302 596 336 615 q 269 524 269 577 l 269 441 m 273 -3 q 175 35 218 8 q 84 228 84 91 l 84 512 q 168 683 84 622 q 395 744 251 744 q 705 505 705 744 l 705 329 l 269 329 l 269 210 q 298 131 269 150 q 399 113 328 113 q 484 119 471 113 q 523 160 514 136 q 533 224 532 184 l 704 224 q 585 11 700 56 q 422 -15 518 -15 q 273 -3 327 -16 z "},"ë":{"ha":779,"x_min":84,"x_max":705,"o":"m 477 869 l 477 1027 l 657 1027 l 657 869 l 477 869 m 132 869 l 132 1027 l 311 1027 l 311 869 l 132 869 m 269 441 l 530 441 l 530 527 q 477 608 530 593 q 393 615 450 616 q 302 596 336 615 q 269 524 269 577 l 269 441 m 273 -3 q 175 35 218 8 q 84 228 84 91 l 84 512 q 168 683 84 622 q 395 744 251 744 q 705 505 705 744 l 705 329 l 269 329 l 269 210 q 298 131 269 150 q 399 113 328 113 q 484 119 471 113 q 523 160 514 136 q 533 224 532 184 l 704 224 q 585 11 700 56 q 422 -15 518 -15 q 273 -3 327 -16 z "},"ì":{"ha":406,"x_min":-7,"x_max":297,"o":"m 153 869 l -7 1116 l 174 1116 l 256 869 l 153 869 m 113 0 l 113 728 l 297 728 l 297 0 l 113 0 z "},"í":{"ha":406,"x_min":113,"x_max":414,"o":"m 155 869 l 232 1116 l 414 1116 l 256 869 l 155 869 m 113 0 l 113 728 l 297 728 l 297 0 l 113 0 z "},"î":{"ha":406,"x_min":-5,"x_max":414,"o":"m -5 869 l 153 1072 l 264 1072 l 414 869 l 296 869 l 209 987 l 117 869 l -5 869 m 113 0 l 113 728 l 297 728 l 297 0 l 113 0 z "},"ï":{"ha":406,"x_min":-58,"x_max":467,"o":"m 288 869 l 288 1027 l 467 1027 l 467 869 l 288 869 m -58 869 l -58 1027 l 121 1027 l 121 869 l -58 869 m 113 0 l 113 728 l 297 728 l 297 0 l 113 0 z "},"ð":{"ha":890,"x_min":113,"x_max":800,"o":"m 301 226 q 337 145 301 169 q 438 121 374 121 q 531 127 502 121 q 602 180 587 141 q 617 316 617 218 q 602 499 617 414 q 535 526 581 514 q 459 538 490 538 q 301 415 301 538 l 301 226 m 466 -16 q 376 -16 466 -16 q 199 50 285 -16 q 113 232 113 115 l 113 419 q 198 597 113 532 q 421 661 284 661 q 514 649 456 661 q 586 625 572 636 q 525 790 575 728 q 408 871 475 852 l 348 753 l 267 791 l 319 894 q 158 905 262 904 l 174 1019 q 258 1021 205 1021 q 375 1007 310 1021 l 433 1122 l 514 1084 l 464 982 q 781 579 718 908 q 800 363 800 481 l 800 312 q 724 77 800 170 q 466 -16 648 -16 z "},"ñ":{"ha":850,"x_min":109,"x_max":747,"o":"m 353 870 q 218 1046 218 870 l 298 1046 q 340 988 298 988 q 382 1012 356 988 q 503 1057 434 1057 q 639 881 639 1057 l 559 881 q 521 940 559 940 q 475 916 504 940 q 353 870 421 869 m 563 512 q 435 606 563 606 q 336 577 380 606 q 293 498 293 549 l 293 0 l 109 0 l 109 728 l 293 728 l 293 664 q 510 745 386 745 q 691 682 634 745 q 747 522 747 618 l 747 0 l 563 0 l 563 512 z "},"ò":{"ha":800,"x_min":84,"x_max":716,"o":"m 349 869 l 188 1116 l 369 1116 l 451 869 l 349 869 m 400 -16 q 84 220 84 -16 l 84 507 q 167 682 84 619 q 400 744 250 744 q 633 681 549 744 q 716 507 716 618 l 716 220 q 549 1 716 45 q 400 -16 487 -16 m 400 113 q 532 212 532 113 l 532 515 q 498 592 532 569 q 400 615 465 615 q 269 515 269 615 l 269 212 q 301 136 269 159 q 400 113 334 113 z "},"ó":{"ha":800,"x_min":84,"x_max":716,"o":"m 350 869 l 427 1116 l 609 1116 l 451 869 l 350 869 m 400 -16 q 84 220 84 -16 l 84 507 q 167 682 84 619 q 400 744 250 744 q 633 681 549 744 q 716 507 716 618 l 716 220 q 549 1 716 45 q 400 -16 487 -16 m 400 113 q 532 212 532 113 l 532 515 q 498 592 532 569 q 400 615 465 615 q 269 515 269 615 l 269 212 q 301 136 269 159 q 400 113 334 113 z "},"ô":{"ha":800,"x_min":84,"x_max":716,"o":"m 190 869 l 349 1072 l 459 1072 l 610 869 l 491 869 l 404 987 l 312 869 l 190 869 m 400 -16 q 84 220 84 -16 l 84 507 q 167 682 84 619 q 400 744 250 744 q 633 681 549 744 q 716 507 716 618 l 716 220 q 549 1 716 45 q 400 -16 487 -16 m 400 113 q 532 212 532 113 l 532 515 q 498 592 532 569 q 400 615 465 615 q 269 515 269 615 l 269 212 q 301 136 269 159 q 400 113 334 113 z "},"õ":{"ha":800,"x_min":84,"x_max":716,"o":"m 325 869 q 189 1045 189 869 l 269 1045 q 312 987 269 987 q 354 1010 328 987 q 475 1056 406 1056 q 610 880 610 1056 l 530 880 q 492 939 530 939 q 447 914 475 939 q 325 869 393 868 m 400 -16 q 84 220 84 -16 l 84 507 q 167 682 84 619 q 400 744 250 744 q 633 681 549 744 q 716 507 716 618 l 716 220 q 549 1 716 45 q 400 -16 487 -16 m 400 113 q 532 212 532 113 l 532 515 q 498 592 532 569 q 400 615 465 615 q 269 515 269 615 l 269 212 q 301 136 269 159 q 400 113 334 113 z "},"ö":{"ha":800,"x_min":84,"x_max":716,"o":"m 483 869 l 483 1027 l 663 1027 l 663 869 l 483 869 m 138 869 l 138 1027 l 317 1027 l 317 869 l 138 869 m 400 -16 q 84 220 84 -16 l 84 507 q 167 682 84 619 q 400 744 250 744 q 633 681 549 744 q 716 507 716 618 l 716 220 q 549 1 716 45 q 400 -16 487 -16 m 400 113 q 532 212 532 113 l 532 515 q 498 592 532 569 q 400 615 465 615 q 269 515 269 615 l 269 212 q 301 136 269 159 q 400 113 334 113 z "},"÷":{"ha":681,"x_min":76,"x_max":605,"o":"m 264 537 l 264 692 l 418 692 l 418 537 l 264 537 m 76 325 l 76 435 l 605 435 l 605 325 l 76 325 m 264 64 l 264 219 l 418 219 l 418 64 l 264 64 z "},"ø":{"ha":833,"x_min":90,"x_max":722,"o":"m 478 605 q 406 615 449 615 q 274 515 274 615 l 274 212 q 309 134 274 157 l 478 605 m 722 220 q 423 -16 722 -16 q 311 -9 354 -16 l 262 -145 l 214 -132 l 261 1 q 90 220 90 45 l 90 507 q 173 682 90 619 q 406 744 256 744 q 524 732 471 744 l 572 869 l 621 854 l 572 717 q 683 635 644 689 q 722 507 722 582 l 722 220 m 406 113 q 536 212 536 113 l 536 515 q 521 574 536 551 l 356 117 q 406 113 378 113 z "},"ù":{"ha":846,"x_min":103,"x_max":740,"o":"m 370 869 l 210 1116 l 391 1116 l 473 869 l 370 869 m 561 80 q 477 10 539 35 q 338 -16 414 -16 q 166 45 229 -16 q 103 197 103 105 l 103 728 l 288 728 l 288 227 q 325 149 288 175 q 415 123 361 123 q 512 152 469 123 q 555 237 555 181 l 555 728 l 740 728 l 740 0 l 566 0 l 561 80 z "},"ú":{"ha":846,"x_min":103,"x_max":740,"o":"m 371 869 l 448 1116 l 630 1116 l 472 869 l 371 869 m 561 80 q 477 10 539 35 q 338 -16 414 -16 q 166 45 229 -16 q 103 197 103 105 l 103 728 l 288 728 l 288 227 q 325 149 288 175 q 415 123 361 123 q 512 152 469 123 q 555 237 555 181 l 555 728 l 740 728 l 740 0 l 566 0 l 561 80 z "},"û":{"ha":846,"x_min":103,"x_max":740,"o":"m 212 869 l 370 1072 l 481 1072 l 631 869 l 513 869 l 426 987 l 334 869 l 212 869 m 561 80 q 477 10 539 35 q 338 -16 414 -16 q 166 45 229 -16 q 103 197 103 105 l 103 728 l 288 728 l 288 227 q 325 149 288 175 q 415 123 361 123 q 512 152 469 123 q 555 237 555 181 l 555 728 l 740 728 l 740 0 l 566 0 l 561 80 z "},"ü":{"ha":846,"x_min":103,"x_max":740,"o":"m 505 869 l 505 1027 l 684 1027 l 684 869 l 505 869 m 159 869 l 159 1027 l 338 1027 l 338 869 l 159 869 m 561 80 q 477 10 539 35 q 338 -16 414 -16 q 166 45 229 -16 q 103 197 103 105 l 103 728 l 288 728 l 288 227 q 325 149 288 175 q 415 123 361 123 q 512 152 469 123 q 555 237 555 181 l 555 728 l 740 728 l 740 0 l 566 0 l 561 80 z "},"ý":{"ha":734,"x_min":22,"x_max":724,"o":"m 323 869 l 400 1116 l 582 1116 l 424 869 l 323 869 m 100 -329 l 87 -176 q 228 -102 184 -157 q 296 24 273 -47 l 22 728 l 200 728 l 389 239 l 541 728 l 724 728 l 503 95 q 399 -140 446 -68 q 312 -244 352 -212 q 100 -329 227 -313 z "},"þ":{"ha":822,"x_min":107,"x_max":732,"o":"m 416 112 q 547 217 547 112 l 547 512 q 422 614 547 614 q 346 601 381 614 q 292 570 311 588 l 292 144 q 416 112 353 112 m 107 -278 l 107 1028 l 292 1028 l 292 703 q 453 743 364 743 q 658 679 584 743 q 732 509 732 616 l 732 221 q 655 52 732 121 q 431 -16 577 -16 q 292 12 356 -16 l 292 -278 l 107 -278 z "},"ÿ":{"ha":734,"x_min":22,"x_max":724,"o":"m 456 869 l 456 1027 l 635 1027 l 635 869 l 456 869 m 111 869 l 111 1027 l 290 1027 l 290 869 l 111 869 m 100 -329 l 87 -176 q 228 -102 184 -157 q 296 24 273 -47 l 22 728 l 200 728 l 389 239 l 541 728 l 724 728 l 503 95 q 399 -140 446 -68 q 312 -244 352 -212 q 100 -329 227 -313 z "},"Ā":{"ha":1025,"x_min":47,"x_max":978,"o":"m 372 1143 l 372 1249 l 653 1249 l 653 1143 l 372 1143 m 356 325 l 669 325 l 515 851 l 356 325 m 47 0 l 377 1001 l 644 1001 l 978 0 l 764 0 l 708 191 l 316 191 l 258 0 l 47 0 z "},"ā":{"ha":796,"x_min":76,"x_max":739,"o":"m 267 869 l 267 975 l 548 975 l 548 869 l 267 869 m 260 199 q 355 112 260 112 q 433 132 392 112 q 498 187 475 151 l 498 369 q 384 312 466 342 q 281 257 302 282 q 260 199 260 231 m 513 81 q 422 12 481 39 q 278 -16 363 -16 q 135 39 193 -16 q 76 180 76 94 q 129 317 76 265 q 333 416 182 368 q 461 468 425 445 q 498 532 498 491 q 384 615 498 616 q 295 590 319 615 q 271 519 271 566 l 271 490 l 98 490 l 98 512 q 170 683 98 621 q 393 744 243 744 q 612 680 544 744 q 680 497 680 616 l 680 209 q 692 144 680 160 q 739 129 705 129 l 732 -5 l 693 -5 q 576 15 618 -5 q 513 81 534 36 z "},"Ă":{"ha":1025,"x_min":47,"x_max":978,"o":"m 629 1187 q 607 1165 629 1187 q 513 1143 585 1143 q 397 1187 441 1143 q 353 1295 353 1232 l 437 1295 q 459 1240 437 1260 q 513 1219 481 1219 q 567 1240 545 1219 q 589 1295 589 1260 l 673 1295 q 629 1187 673 1232 m 356 325 l 669 325 l 515 851 l 356 325 m 47 0 l 377 1001 l 644 1001 l 978 0 l 764 0 l 708 191 l 316 191 l 258 0 l 47 0 z "},"ă":{"ha":796,"x_min":76,"x_max":739,"o":"m 524 913 q 502 891 524 913 q 408 869 479 869 q 292 913 336 869 q 248 1021 248 958 l 332 1021 q 354 966 332 986 q 408 945 376 945 q 461 966 439 945 q 484 1021 484 986 l 568 1021 q 524 913 568 958 m 260 199 q 355 112 260 112 q 433 132 392 112 q 498 187 475 151 l 498 369 q 384 312 466 342 q 281 257 302 282 q 260 199 260 231 m 513 81 q 422 12 481 39 q 278 -16 363 -16 q 135 39 193 -16 q 76 180 76 94 q 129 317 76 265 q 333 416 182 368 q 461 468 425 445 q 498 532 498 491 q 384 615 498 616 q 295 590 319 615 q 271 519 271 566 l 271 490 l 98 490 l 98 512 q 170 683 98 621 q 393 744 243 744 q 612 680 544 744 q 680 497 680 616 l 680 209 q 692 144 680 160 q 739 129 705 129 l 732 -5 l 693 -5 q 576 15 618 -5 q 513 81 534 36 z "},"Ą":{"ha":1025,"x_min":47,"x_max":978,"o":"m 853 12 q 797 -161 797 -96 q 916 -243 797 -243 l 907 -339 q 899 -339 903 -339 q 671 -194 671 -339 q 700 -88 671 -144 q 775 12 728 -33 l 853 12 m 356 325 l 669 325 l 515 851 l 356 325 m 47 0 l 377 1001 l 644 1001 l 978 0 l 764 0 l 708 191 l 316 191 l 258 0 l 47 0 z "},"ą":{"ha":796,"x_min":76,"x_max":779,"o":"m 716 9 q 660 -163 660 -98 q 779 -245 660 -245 l 770 -341 q 762 -341 766 -341 q 534 -196 534 -341 q 563 -90 534 -146 q 638 9 591 -35 l 716 9 m 260 199 q 355 112 260 112 q 433 132 392 112 q 498 187 475 151 l 498 369 q 384 312 466 342 q 281 257 302 282 q 260 199 260 231 m 513 81 q 422 12 481 39 q 278 -16 363 -16 q 135 39 193 -16 q 76 180 76 94 q 129 317 76 265 q 333 416 182 368 q 461 468 425 445 q 498 532 498 491 q 384 615 498 616 q 295 590 319 615 q 271 519 271 566 l 271 490 l 98 490 l 98 512 q 170 683 98 621 q 393 744 243 744 q 612 680 544 744 q 680 497 680 616 l 680 209 q 692 144 680 160 q 739 129 705 129 l 732 -5 l 693 -5 q 576 15 618 -5 q 513 81 534 36 z "},"Ć":{"ha":1010,"x_min":109,"x_max":924,"o":"m 465 1143 l 543 1390 l 724 1390 l 566 1143 l 465 1143 m 548 -18 q 486 -18 548 -18 q 349 0 425 -18 q 227 47 273 18 q 154 122 181 76 q 118 216 127 168 q 109 328 109 264 l 109 663 q 181 913 109 842 q 374 1006 254 986 q 527 1018 441 1019 q 897 848 837 1018 q 924 667 924 772 l 924 654 l 726 631 l 726 682 q 685 823 726 787 q 528 860 644 860 q 361 823 412 860 q 310 686 310 786 l 310 308 q 362 174 310 208 q 530 140 415 140 q 625 147 590 140 q 685 173 661 153 q 718 225 709 193 q 726 312 726 258 l 726 344 l 924 344 l 924 326 q 880 111 924 177 q 754 14 836 45 q 548 -18 672 -18 z "},"ć":{"ha":751,"x_min":84,"x_max":684,"o":"m 334 869 l 411 1116 l 593 1116 l 435 869 l 334 869 m 396 -16 q 123 79 184 -16 q 84 222 84 138 l 84 513 q 163 683 84 623 q 389 744 243 744 q 610 686 536 744 q 684 474 684 628 l 511 460 q 487 587 511 559 q 452 610 473 605 q 381 615 431 615 q 269 513 269 615 l 269 218 q 298 138 269 161 q 386 114 328 114 q 467 124 444 114 q 501 164 491 135 q 511 258 511 194 l 684 258 q 669 127 682 178 q 621 45 655 79 q 396 -16 560 -15 z "},"Ĉ":{"ha":1010,"x_min":109,"x_max":924,"o":"m 307 1143 l 465 1346 l 576 1346 l 726 1143 l 608 1143 l 521 1261 l 429 1143 l 307 1143 m 548 -18 q 486 -18 548 -18 q 349 0 425 -18 q 227 47 273 18 q 154 122 181 76 q 118 216 127 168 q 109 328 109 264 l 109 663 q 181 913 109 842 q 374 1006 254 986 q 527 1018 441 1019 q 897 848 837 1018 q 924 667 924 772 l 924 654 l 726 631 l 726 682 q 685 823 726 787 q 528 860 644 860 q 361 823 412 860 q 310 686 310 786 l 310 308 q 362 174 310 208 q 530 140 415 140 q 625 147 590 140 q 685 173 661 153 q 718 225 709 193 q 726 312 726 258 l 726 344 l 924 344 l 924 326 q 880 111 924 177 q 754 14 836 45 q 548 -18 672 -18 z "},"ĉ":{"ha":751,"x_min":84,"x_max":684,"o":"m 174 869 l 333 1072 l 444 1072 l 594 869 l 475 869 l 389 987 l 296 869 l 174 869 m 396 -16 q 123 79 184 -16 q 84 222 84 138 l 84 513 q 163 683 84 623 q 389 744 243 744 q 610 686 536 744 q 684 474 684 628 l 511 460 q 487 587 511 559 q 452 610 473 605 q 381 615 431 615 q 269 513 269 615 l 269 218 q 298 138 269 161 q 386 114 328 114 q 467 124 444 114 q 501 164 491 135 q 511 258 511 194 l 684 258 q 669 127 682 178 q 621 45 655 79 q 396 -16 560 -15 z "},"Ċ":{"ha":1010,"x_min":109,"x_max":924,"o":"m 432 1143 l 432 1310 l 600 1310 l 600 1143 l 432 1143 m 548 -18 q 486 -18 548 -18 q 349 0 425 -18 q 227 47 273 18 q 154 122 181 76 q 118 216 127 168 q 109 328 109 264 l 109 663 q 181 913 109 842 q 374 1006 254 986 q 527 1018 441 1019 q 897 848 837 1018 q 924 667 924 772 l 924 654 l 726 631 l 726 682 q 685 823 726 787 q 528 860 644 860 q 361 823 412 860 q 310 686 310 786 l 310 308 q 362 174 310 208 q 530 140 415 140 q 625 147 590 140 q 685 173 661 153 q 718 225 709 193 q 726 312 726 258 l 726 344 l 924 344 l 924 326 q 880 111 924 177 q 754 14 836 45 q 548 -18 672 -18 z "},"ċ":{"ha":751,"x_min":84,"x_max":684,"o":"m 300 869 l 300 1036 l 469 1036 l 469 869 l 300 869 m 396 -16 q 123 79 184 -16 q 84 222 84 138 l 84 513 q 163 683 84 623 q 389 744 243 744 q 610 686 536 744 q 684 474 684 628 l 511 460 q 487 587 511 559 q 452 610 473 605 q 381 615 431 615 q 269 513 269 615 l 269 218 q 298 138 269 161 q 386 114 328 114 q 467 124 444 114 q 501 164 491 135 q 511 258 511 194 l 684 258 q 669 127 682 178 q 621 45 655 79 q 396 -16 560 -15 z "},"Č":{"ha":1010,"x_min":109,"x_max":924,"o":"m 457 1143 l 307 1346 l 425 1346 l 512 1227 l 604 1346 l 726 1346 l 568 1143 l 457 1143 m 548 -18 q 486 -18 548 -18 q 349 0 425 -18 q 227 47 273 18 q 154 122 181 76 q 118 216 127 168 q 109 328 109 264 l 109 663 q 181 913 109 842 q 374 1006 254 986 q 527 1018 441 1019 q 897 848 837 1018 q 924 667 924 772 l 924 654 l 726 631 l 726 682 q 685 823 726 787 q 528 860 644 860 q 361 823 412 860 q 310 686 310 786 l 310 308 q 362 174 310 208 q 530 140 415 140 q 625 147 590 140 q 685 173 661 153 q 718 225 709 193 q 726 312 726 258 l 726 344 l 924 344 l 924 326 q 880 111 924 177 q 754 14 836 45 q 548 -18 672 -18 z "},"č":{"ha":751,"x_min":84,"x_max":684,"o":"m 325 869 l 174 1072 l 293 1072 l 380 954 l 472 1072 l 594 1072 l 435 869 l 325 869 m 396 -16 q 123 79 184 -16 q 84 222 84 138 l 84 513 q 163 683 84 623 q 389 744 243 744 q 610 686 536 744 q 684 474 684 628 l 511 460 q 487 587 511 559 q 452 610 473 605 q 381 615 431 615 q 269 513 269 615 l 269 218 q 298 138 269 161 q 386 114 328 114 q 467 124 444 114 q 501 164 491 135 q 511 258 511 194 l 684 258 q 669 127 682 178 q 621 45 655 79 q 396 -16 560 -15 z "},"Ď":{"ha":1040,"x_min":129,"x_max":932,"o":"m 471 1143 l 320 1346 l 439 1346 l 526 1227 l 618 1346 l 740 1346 l 581 1143 l 471 1143 m 129 0 l 129 1001 l 563 1001 q 886 859 803 1001 q 932 652 932 779 l 932 345 q 739 25 932 91 q 564 0 666 0 l 129 0 m 330 157 l 546 157 q 690 195 649 157 q 730 319 730 233 l 730 678 q 689 804 730 763 q 546 844 647 844 l 330 844 l 330 157 z "},"ď":{"ha":812,"x_min":84,"x_max":1112,"o":"m 979 577 l 907 608 q 974 713 941 648 q 1006 841 1006 779 l 894 841 l 894 1028 l 1112 1028 l 1112 877 q 1067 702 1112 787 q 979 577 1023 616 m 269 217 q 300 138 269 163 q 403 114 332 114 q 522 143 473 114 l 522 590 q 403 615 469 615 q 302 592 336 615 q 269 515 269 568 l 269 217 m 374 -16 q 156 46 229 -16 q 84 220 84 107 l 84 511 q 159 681 84 617 q 387 744 234 744 q 522 718 452 744 l 522 1028 l 707 1028 l 707 0 l 582 0 l 562 43 q 374 -16 479 -16 z "},"Đ":{"ha":1063,"x_min":61,"x_max":947,"o":"m 345 157 l 561 157 q 705 195 664 157 q 745 319 745 233 l 745 678 q 704 804 745 763 q 561 844 662 844 l 345 844 l 345 575 l 553 575 l 553 473 l 345 473 l 345 157 m 144 575 l 144 1002 l 578 1002 q 901 859 819 1002 q 947 652 947 779 l 947 345 q 754 25 947 91 q 578 0 681 0 l 144 0 l 144 473 l 61 473 l 61 575 l 144 575 z "},"đ":{"ha":844,"x_min":90,"x_max":831,"o":"m 380 -16 q 162 46 235 -16 q 90 220 90 107 l 90 511 q 165 681 90 617 q 393 744 240 744 q 528 718 458 744 l 528 845 l 310 845 l 310 922 l 528 922 l 528 1028 l 713 1028 l 713 922 l 831 922 l 831 845 l 713 845 l 713 0 l 588 0 l 568 43 q 380 -16 485 -16 m 275 217 q 307 138 275 163 q 409 114 338 114 q 528 143 479 114 l 528 590 q 409 615 475 615 q 309 592 342 615 q 275 515 275 568 l 275 217 z "},"Ē":{"ha":878,"x_min":129,"x_max":792,"o":"m 320 1143 l 320 1249 l 601 1249 l 601 1143 l 320 1143 m 129 0 l 129 1001 l 785 1001 l 785 849 l 330 849 l 330 583 l 733 583 l 733 438 l 330 438 l 330 152 l 792 152 l 792 0 l 129 0 z "},"ē":{"ha":779,"x_min":84,"x_max":705,"o":"m 254 869 l 254 975 l 534 975 l 534 869 l 254 869 m 269 441 l 530 441 l 530 527 q 477 608 530 593 q 393 615 450 616 q 302 596 336 615 q 269 524 269 577 l 269 441 m 273 -3 q 175 35 218 8 q 84 228 84 91 l 84 512 q 168 683 84 622 q 395 744 251 744 q 705 505 705 744 l 705 329 l 269 329 l 269 210 q 298 131 269 150 q 399 113 328 113 q 484 119 471 113 q 523 160 514 136 q 533 224 532 184 l 704 224 q 585 11 700 56 q 422 -15 518 -15 q 273 -3 327 -16 z "},"Ĕ":{"ha":878,"x_min":129,"x_max":792,"o":"m 576 1187 q 554 1165 576 1187 q 460 1143 532 1143 q 345 1187 389 1143 q 300 1295 300 1232 l 385 1295 q 407 1240 385 1260 q 460 1219 429 1219 q 514 1240 492 1219 q 536 1295 536 1260 l 621 1295 q 576 1187 621 1232 m 129 0 l 129 1001 l 785 1001 l 785 849 l 330 849 l 330 583 l 733 583 l 733 438 l 330 438 l 330 152 l 792 152 l 792 0 l 129 0 z "},"ĕ":{"ha":779,"x_min":84,"x_max":705,"o":"m 511 913 q 489 891 511 913 q 395 869 467 869 q 279 913 323 869 q 235 1021 235 958 l 319 1021 q 341 966 319 986 q 395 945 363 945 q 449 966 427 945 q 471 1021 471 986 l 555 1021 q 511 913 555 958 m 269 441 l 530 441 l 530 527 q 477 608 530 593 q 393 615 450 616 q 302 596 336 615 q 269 524 269 577 l 269 441 m 273 -3 q 175 35 218 8 q 84 228 84 91 l 84 512 q 168 683 84 622 q 395 744 251 744 q 705 505 705 744 l 705 329 l 269 329 l 269 210 q 298 131 269 150 q 399 113 328 113 q 484 119 471 113 q 523 160 514 136 q 533 224 532 184 l 704 224 q 585 11 700 56 q 422 -15 518 -15 q 273 -3 327 -16 z "},"Ė":{"ha":878,"x_min":129,"x_max":792,"o":"m 376 1143 l 376 1310 l 545 1310 l 545 1143 l 376 1143 m 129 0 l 129 1001 l 785 1001 l 785 849 l 330 849 l 330 583 l 733 583 l 733 438 l 330 438 l 330 152 l 792 152 l 792 0 l 129 0 z "},"ė":{"ha":779,"x_min":84,"x_max":705,"o":"m 310 869 l 310 1036 l 478 1036 l 478 869 l 310 869 m 269 441 l 530 441 l 530 527 q 477 608 530 593 q 393 615 450 616 q 302 596 336 615 q 269 524 269 577 l 269 441 m 273 -3 q 175 35 218 8 q 84 228 84 91 l 84 512 q 168 683 84 622 q 395 744 251 744 q 705 505 705 744 l 705 329 l 269 329 l 269 210 q 298 131 269 150 q 399 113 328 113 q 484 119 471 113 q 523 160 514 136 q 533 224 532 184 l 704 224 q 585 11 700 56 q 422 -15 518 -15 q 273 -3 327 -16 z "},"Ę":{"ha":878,"x_min":129,"x_max":792,"o":"m 538 12 q 482 -161 482 -96 q 602 -243 482 -243 l 593 -339 q 585 -339 589 -339 q 357 -194 357 -339 q 385 -88 357 -144 q 460 12 414 -33 l 538 12 m 129 0 l 129 1001 l 785 1001 l 785 849 l 330 849 l 330 583 l 733 583 l 733 438 l 330 438 l 330 152 l 792 152 l 792 0 l 129 0 z "},"ę":{"ha":779,"x_min":84,"x_max":705,"o":"m 433 -3 q 377 -176 377 -111 q 496 -258 377 -258 l 488 -354 q 479 -354 484 -354 q 252 -209 252 -354 q 280 -103 252 -159 q 355 -3 309 -47 l 433 -3 m 269 441 l 530 441 l 530 527 q 477 608 530 593 q 393 615 450 616 q 302 596 336 615 q 269 524 269 577 l 269 441 m 273 -3 q 175 35 218 8 q 84 228 84 91 l 84 512 q 168 683 84 622 q 395 744 251 744 q 705 505 705 744 l 705 329 l 269 329 l 269 210 q 298 131 269 150 q 399 113 328 113 q 484 119 471 113 q 523 160 514 136 q 533 224 532 184 l 704 224 q 585 11 700 56 q 422 -15 518 -15 q 273 -3 327 -16 z "},"Ě":{"ha":878,"x_min":129,"x_max":792,"o":"m 401 1143 l 251 1346 l 370 1346 l 456 1227 l 549 1346 l 671 1346 l 512 1143 l 401 1143 m 129 0 l 129 1001 l 785 1001 l 785 849 l 330 849 l 330 583 l 733 583 l 733 438 l 330 438 l 330 152 l 792 152 l 792 0 l 129 0 z "},"ě":{"ha":779,"x_min":84,"x_max":705,"o":"m 335 869 l 184 1072 l 303 1072 l 390 954 l 482 1072 l 604 1072 l 446 869 l 335 869 m 269 441 l 530 441 l 530 527 q 477 608 530 593 q 393 615 450 616 q 302 596 336 615 q 269 524 269 577 l 269 441 m 273 -3 q 175 35 218 8 q 84 228 84 91 l 84 512 q 168 683 84 622 q 395 744 251 744 q 705 505 705 744 l 705 329 l 269 329 l 269 210 q 298 131 269 150 q 399 113 328 113 q 484 119 471 113 q 523 160 514 136 q 533 224 532 184 l 704 224 q 585 11 700 56 q 422 -15 518 -15 q 273 -3 327 -16 z "},"Ĝ":{"ha":1090,"x_min":109,"x_max":962,"o":"m 326 1143 l 484 1346 l 595 1346 l 745 1143 l 627 1143 l 540 1261 l 448 1143 l 326 1143 m 738 20 q 724 12 738 20 q 662 -6 711 5 q 530 -18 612 -18 q 369 0 448 -18 q 165 117 222 33 q 109 328 109 201 l 109 663 q 240 951 109 869 q 551 1018 347 1018 q 941 833 880 1017 q 962 683 962 770 l 962 667 l 764 652 l 764 692 q 716 825 764 790 q 550 860 669 860 q 371 822 431 860 q 311 686 311 784 l 311 308 q 372 174 311 208 q 551 140 434 140 q 725 174 669 140 q 781 308 781 208 l 781 381 l 578 381 l 578 513 l 962 513 l 962 0 l 856 0 l 824 115 q 790 60 815 85 q 738 20 766 35 z "},"ĝ":{"ha":821,"x_min":84,"x_max":718,"o":"m 191 869 l 350 1072 l 460 1072 l 611 869 l 492 869 l 406 987 l 313 869 l 191 869 m 399 144 q 534 177 489 144 l 534 564 q 495 598 534 581 q 395 615 456 615 q 269 513 269 615 l 269 241 q 399 144 269 144 m 389 -299 q 149 -261 229 -299 l 186 -136 q 375 -164 289 -164 q 498 -130 462 -164 q 534 -20 534 -96 l 534 60 q 353 22 470 22 q 160 82 236 22 q 84 248 84 142 l 84 509 q 148 676 84 608 q 361 744 212 744 q 474 725 419 744 q 566 676 530 705 l 581 729 l 718 729 l 718 -8 q 389 -299 718 -299 z "},"Ğ":{"ha":1090,"x_min":109,"x_max":962,"o":"m 652 1187 q 630 1165 652 1187 q 536 1143 608 1143 q 420 1187 464 1143 q 376 1295 376 1232 l 460 1295 q 482 1240 460 1260 q 536 1219 504 1219 q 590 1240 568 1219 q 612 1295 612 1260 l 696 1295 q 652 1187 696 1232 m 738 20 q 724 12 738 20 q 662 -6 711 5 q 530 -18 612 -18 q 369 0 448 -18 q 165 117 222 33 q 109 328 109 201 l 109 663 q 240 951 109 869 q 551 1018 347 1018 q 941 833 880 1017 q 962 683 962 770 l 962 667 l 764 652 l 764 692 q 716 825 764 790 q 550 860 669 860 q 371 822 431 860 q 311 686 311 784 l 311 308 q 372 174 311 208 q 551 140 434 140 q 725 174 669 140 q 781 308 781 208 l 781 381 l 578 381 l 578 513 l 962 513 l 962 0 l 856 0 l 824 115 q 790 60 815 85 q 738 20 766 35 z "},"ğ":{"ha":821,"x_min":84,"x_max":718,"o":"m 517 913 q 495 891 517 913 q 401 869 473 869 q 286 913 330 869 q 241 1021 241 958 l 326 1021 q 348 966 326 986 q 401 945 370 945 q 455 966 433 945 q 477 1021 477 986 l 562 1021 q 517 913 562 958 m 399 144 q 534 177 489 144 l 534 564 q 495 598 534 581 q 395 615 456 615 q 269 513 269 615 l 269 241 q 399 144 269 144 m 389 -299 q 149 -261 229 -299 l 186 -136 q 375 -164 289 -164 q 498 -130 462 -164 q 534 -20 534 -96 l 534 60 q 353 22 470 22 q 160 82 236 22 q 84 248 84 142 l 84 509 q 148 676 84 608 q 361 744 212 744 q 474 725 419 744 q 566 676 530 705 l 581 729 l 718 729 l 718 -8 q 389 -299 718 -299 z "},"Ġ":{"ha":1090,"x_min":109,"x_max":962,"o":"m 451 1143 l 451 1310 l 619 1310 l 619 1143 l 451 1143 m 738 20 q 724 12 738 20 q 662 -6 711 5 q 530 -18 612 -18 q 369 0 448 -18 q 165 117 222 33 q 109 328 109 201 l 109 663 q 240 951 109 869 q 551 1018 347 1018 q 941 833 880 1017 q 962 683 962 770 l 962 667 l 764 652 l 764 692 q 716 825 764 790 q 550 860 669 860 q 371 822 431 860 q 311 686 311 784 l 311 308 q 372 174 311 208 q 551 140 434 140 q 725 174 669 140 q 781 308 781 208 l 781 381 l 578 381 l 578 513 l 962 513 l 962 0 l 856 0 l 824 115 q 790 60 815 85 q 738 20 766 35 z "},"ġ":{"ha":821,"x_min":84,"x_max":718,"o":"m 317 869 l 317 1036 l 485 1036 l 485 869 l 317 869 m 399 144 q 534 177 489 144 l 534 564 q 495 598 534 581 q 395 615 456 615 q 269 513 269 615 l 269 241 q 399 144 269 144 m 389 -299 q 149 -261 229 -299 l 186 -136 q 375 -164 289 -164 q 498 -130 462 -164 q 534 -20 534 -96 l 534 60 q 353 22 470 22 q 160 82 236 22 q 84 248 84 142 l 84 509 q 148 676 84 608 q 361 744 212 744 q 474 725 419 744 q 566 676 530 705 l 581 729 l 718 729 l 718 -8 q 389 -299 718 -299 z "},"Ģ":{"ha":1090,"x_min":109,"x_max":962,"o":"m 512 -593 l 439 -562 q 506 -457 474 -522 q 538 -330 538 -392 l 427 -330 l 427 -142 l 644 -142 l 644 -294 q 600 -469 644 -384 q 512 -593 555 -553 m 738 20 q 724 12 738 20 q 662 -6 711 5 q 530 -18 612 -18 q 369 0 448 -18 q 165 117 222 33 q 109 328 109 201 l 109 663 q 240 951 109 869 q 551 1018 347 1018 q 941 833 880 1017 q 962 683 962 770 l 962 667 l 764 652 l 764 692 q 716 825 764 790 q 550 860 669 860 q 371 822 431 860 q 311 686 311 784 l 311 308 q 372 174 311 208 q 551 140 434 140 q 725 174 669 140 q 781 308 781 208 l 781 381 l 578 381 l 578 513 l 962 513 l 962 0 l 856 0 l 824 115 q 790 60 815 85 q 738 20 766 35 z "},"ģ":{"ha":849,"x_min":84,"x_max":718,"o":"m 336 834 l 336 985 q 380 1161 336 1076 q 469 1285 425 1246 l 541 1254 q 475 1149 507 1214 q 442 1021 442 1084 l 554 1021 l 554 834 l 336 834 m 399 144 q 534 177 489 144 l 534 564 q 495 598 534 581 q 395 615 456 615 q 269 513 269 615 l 269 241 q 399 144 269 144 m 389 -299 q 149 -261 229 -299 l 186 -136 q 375 -164 289 -164 q 498 -130 462 -164 q 534 -20 534 -96 l 534 60 q 353 22 470 22 q 160 82 236 22 q 84 248 84 142 l 84 509 q 148 676 84 608 q 361 744 212 744 q 474 725 419 744 q 566 676 530 705 l 581 729 l 718 729 l 718 -8 q 389 -299 718 -299 z "},"Ĥ":{"ha":1101,"x_min":129,"x_max":972,"o":"m 340 1143 l 499 1346 l 610 1346 l 760 1143 l 642 1143 l 555 1261 l 463 1143 l 340 1143 m 129 0 l 129 1001 l 331 1001 l 331 575 l 770 575 l 770 1001 l 972 1001 l 972 0 l 770 0 l 770 417 l 331 417 l 331 0 l 129 0 z "},"ĥ":{"ha":850,"x_min":110,"x_max":747,"o":"m 218 1152 l 377 1356 l 488 1356 l 638 1152 l 519 1152 l 433 1271 l 340 1152 l 218 1152 m 110 0 l 110 1027 l 294 1027 l 294 658 q 382 720 317 696 q 536 744 446 744 q 687 688 626 744 q 747 539 747 632 l 747 0 l 563 0 l 563 513 q 439 606 563 606 q 339 578 383 606 q 294 500 294 550 l 294 0 l 110 0 z "},"Ħ":{"ha":1128,"x_min":71,"x_max":1058,"o":"m 348 740 l 348 575 l 786 575 l 786 740 l 348 740 m 146 810 l 146 1001 l 348 1001 l 348 810 l 786 810 l 786 1001 l 987 1001 l 987 810 l 1058 810 l 1058 740 l 987 740 l 987 0 l 786 0 l 786 417 l 348 417 l 348 0 l 146 0 l 146 740 l 71 740 l 71 810 l 146 810 z "},"ħ":{"ha":874,"x_min":31,"x_max":760,"o":"m 121 0 l 121 828 l 31 828 l 31 925 l 121 925 l 121 1027 l 306 1027 l 306 925 l 526 925 l 526 828 l 306 828 l 306 651 q 393 717 330 690 q 530 744 456 744 q 697 688 634 744 q 760 539 760 631 l 760 0 l 574 0 l 574 522 q 450 615 574 615 q 350 589 394 615 q 306 515 306 564 l 306 0 l 121 0 z "},"Ĩ":{"ha":779,"x_min":107,"x_max":671,"o":"m 314 1143 q 178 1319 178 1143 l 258 1319 q 301 1261 258 1261 q 343 1284 317 1261 q 464 1330 395 1330 q 600 1154 600 1330 l 519 1154 q 481 1213 519 1213 q 436 1188 465 1213 q 314 1143 382 1142 m 107 0 l 107 151 l 290 151 l 290 851 l 107 851 l 107 1001 l 671 1001 l 671 851 l 490 851 l 490 151 l 671 151 l 671 0 l 107 0 z "},"ĩ":{"ha":406,"x_min":-6,"x_max":415,"o":"m 130 869 q -6 1045 -6 869 l 74 1045 q 117 987 74 987 q 159 1010 132 987 q 279 1056 210 1056 q 415 880 415 1056 l 335 880 q 297 939 335 939 q 252 914 280 939 q 130 869 197 868 m 113 0 l 113 728 l 297 728 l 297 0 l 113 0 z "},"Ī":{"ha":779,"x_min":107,"x_max":671,"o":"m 249 1143 l 249 1249 l 530 1249 l 530 1143 l 249 1143 m 107 0 l 107 151 l 290 151 l 290 851 l 107 851 l 107 1001 l 671 1001 l 671 851 l 490 851 l 490 151 l 671 151 l 671 0 l 107 0 z "},"ī":{"ha":406,"x_min":64,"x_max":345,"o":"m 64 869 l 64 975 l 345 975 l 345 869 l 64 869 m 113 0 l 113 728 l 297 728 l 297 0 l 113 0 z "},"Ĭ":{"ha":779,"x_min":107,"x_max":671,"o":"m 505 1187 q 483 1165 505 1187 q 389 1143 461 1143 q 273 1187 317 1143 q 229 1295 229 1232 l 313 1295 q 335 1240 313 1260 q 389 1219 357 1219 q 443 1240 421 1219 q 465 1295 465 1260 l 549 1295 q 505 1187 549 1232 m 107 0 l 107 151 l 290 151 l 290 851 l 107 851 l 107 1001 l 671 1001 l 671 851 l 490 851 l 490 151 l 671 151 l 671 0 l 107 0 z "},"ĭ":{"ha":406,"x_min":45,"x_max":365,"o":"m 321 913 q 299 891 321 913 q 205 869 277 869 q 89 913 133 869 q 45 1021 45 958 l 129 1021 q 151 966 129 986 q 205 945 173 945 q 259 966 237 945 q 281 1021 281 986 l 365 1021 q 321 913 365 958 m 113 0 l 113 728 l 297 728 l 297 0 l 113 0 z "},"Į":{"ha":779,"x_min":107,"x_max":671,"o":"m 428 12 q 372 -161 372 -96 q 491 -243 372 -243 l 482 -339 q 474 -339 478 -339 q 246 -194 246 -339 q 275 -88 246 -144 q 350 12 303 -33 l 428 12 m 107 0 l 107 151 l 290 151 l 290 851 l 107 851 l 107 1001 l 671 1001 l 671 851 l 490 851 l 490 151 l 671 151 l 671 0 l 107 0 z "},"į":{"ha":406,"x_min":62,"x_max":307,"o":"m 243 12 q 187 -161 187 -96 q 307 -243 187 -243 l 298 -339 q 290 -339 294 -339 q 62 -194 62 -339 q 90 -88 62 -144 q 165 12 119 -33 l 243 12 m 113 832 l 113 996 l 297 996 l 297 832 l 113 832 m 113 0 l 113 728 l 297 728 l 297 0 l 113 0 z "},"İ":{"ha":779,"x_min":107,"x_max":671,"o":"m 305 1143 l 305 1310 l 473 1310 l 473 1143 l 305 1143 m 107 0 l 107 151 l 290 151 l 290 851 l 107 851 l 107 1001 l 671 1001 l 671 851 l 490 851 l 490 151 l 671 151 l 671 0 l 107 0 z "},"ı":{"ha":406,"x_min":113,"x_max":297,"o":"m 113 0 l 113 728 l 297 728 l 297 0 l 113 0 z "},"Ĳ":{"ha":1607,"x_min":107,"x_max":1481,"o":"m 1481 286 q 1385 63 1481 142 q 1124 -17 1290 -17 q 826 45 959 -17 l 873 195 q 988 157 922 172 q 1107 142 1055 142 q 1238 185 1197 142 q 1280 299 1280 229 l 1280 848 l 935 848 l 935 1001 l 1481 1001 l 1481 286 m 107 0 l 107 151 l 290 151 l 290 851 l 107 851 l 107 1001 l 671 1001 l 671 851 l 490 851 l 490 151 l 671 151 l 671 0 l 107 0 z "},"ĳ":{"ha":838,"x_min":113,"x_max":730,"o":"m 544 832 l 544 996 l 728 996 l 728 832 l 544 832 m 408 -245 l 399 -114 l 429 -114 q 545 7 545 -114 l 545 728 l 730 728 l 730 -2 q 668 -181 730 -116 q 476 -245 606 -245 l 408 -245 m 113 832 l 113 996 l 297 996 l 297 832 l 113 832 m 113 0 l 113 728 l 297 728 l 297 0 l 113 0 z "},"Ĵ":{"ha":829,"x_min":47,"x_max":703,"o":"m 254 1143 l 412 1346 l 523 1346 l 673 1143 l 555 1143 l 468 1261 l 376 1143 l 254 1143 m 703 286 q 607 63 703 142 q 346 -17 511 -17 q 47 45 180 -17 l 94 195 q 210 157 144 172 q 329 142 276 142 q 460 185 418 142 q 501 299 501 229 l 501 848 l 157 848 l 157 1001 l 703 1001 l 703 286 z "},"ĵ":{"ha":441,"x_min":-12,"x_max":435,"o":"m 15 869 l 174 1072 l 284 1072 l 435 869 l 316 869 l 229 987 l 137 869 l 15 869 m 18 -92 q 134 29 134 -92 l 134 728 l 319 728 l 319 20 q 258 -158 319 -94 q 66 -223 196 -223 l -8 -223 l -12 -92 l 18 -92 z "},"Ķ":{"ha":982,"x_min":129,"x_max":967,"o":"m 525 -576 l 452 -544 q 519 -439 487 -505 q 551 -312 551 -374 l 439 -312 l 439 -125 l 657 -125 l 657 -276 q 613 -451 657 -366 q 525 -576 568 -536 m 129 0 l 129 1001 l 330 1001 l 330 515 l 720 1001 l 942 1001 l 591 545 l 967 0 l 740 0 l 425 460 l 330 367 l 330 0 l 129 0 z "},"ķ":{"ha":813,"x_min":110,"x_max":805,"o":"m 434 -576 l 361 -544 q 428 -439 396 -505 q 460 -312 460 -374 l 349 -312 l 349 -125 l 566 -125 l 566 -276 q 522 -451 566 -366 q 434 -576 477 -536 m 110 0 l 110 1028 l 294 1028 l 294 408 l 583 728 l 793 728 l 519 414 l 805 0 l 604 0 l 376 337 l 294 254 l 294 0 l 110 0 z "},"ĸ":{"ha":823,"x_min":116,"x_max":807,"o":"m 116 0 l 116 728 l 301 728 l 301 408 q 438 569 319 427 q 573 728 556 710 l 793 728 l 523 410 l 807 0 l 586 0 l 366 328 l 301 261 l 301 0 l 116 0 z "},"Ĺ":{"ha":795,"x_min":129,"x_max":749,"o":"m 388 1143 l 465 1390 l 647 1390 l 489 1143 l 388 1143 m 129 0 l 129 1001 l 330 1001 l 330 157 l 749 157 l 749 0 l 129 0 z "},"ĺ":{"ha":480,"x_min":111,"x_max":488,"o":"m 229 1152 l 307 1400 l 488 1400 l 330 1152 l 229 1152 m 357 -8 q 172 49 232 -8 q 111 239 111 106 l 111 1027 l 296 1027 l 296 242 q 324 155 296 181 q 426 129 353 129 l 449 129 l 435 -8 l 357 -8 z "},"Ļ":{"ha":795,"x_min":129,"x_max":749,"o":"m 415 -576 l 342 -544 q 409 -439 377 -505 q 441 -312 441 -374 l 330 -312 l 330 -125 l 547 -125 l 547 -276 q 503 -451 547 -366 q 415 -576 458 -536 m 129 0 l 129 1001 l 330 1001 l 330 157 l 749 157 l 749 0 l 129 0 z "},"ļ":{"ha":480,"x_min":111,"x_max":449,"o":"m 256 -584 l 184 -552 q 251 -448 218 -513 q 283 -320 283 -382 l 171 -320 l 171 -133 l 389 -133 l 389 -284 q 344 -459 389 -374 q 256 -584 300 -544 m 357 -8 q 172 49 232 -8 q 111 239 111 106 l 111 1027 l 296 1027 l 296 242 q 324 155 296 181 q 426 129 353 129 l 449 129 l 435 -8 l 357 -8 z "},"Ľ":{"ha":795,"x_min":129,"x_max":797,"o":"m 664 567 l 591 598 q 658 703 626 637 q 690 831 690 768 l 578 831 l 578 1018 l 797 1018 l 797 867 q 752 691 797 777 q 664 567 707 606 m 129 0 l 129 1001 l 330 1001 l 330 157 l 749 157 l 749 0 l 129 0 z "},"ľ":{"ha":709,"x_min":111,"x_max":725,"o":"m 592 576 l 519 608 q 586 712 554 647 q 618 840 618 778 l 507 840 l 507 1027 l 725 1027 l 725 876 q 680 701 725 786 q 592 576 635 616 m 357 -8 q 172 49 232 -8 q 111 239 111 106 l 111 1027 l 296 1027 l 296 242 q 324 155 296 181 q 426 129 353 129 l 449 129 l 435 -8 l 357 -8 z "},"Ŀ":{"ha":795,"x_min":129,"x_max":749,"o":"m 495 426 l 495 592 l 663 592 l 663 426 l 495 426 m 129 0 l 129 1001 l 330 1001 l 330 157 l 749 157 l 749 0 l 129 0 z "},"ŀ":{"ha":827,"x_min":111,"x_max":738,"o":"m 570 529 l 570 695 l 738 695 l 738 529 l 570 529 m 357 -8 q 172 49 232 -8 q 111 239 111 106 l 111 1027 l 296 1027 l 296 242 q 324 155 296 181 q 426 129 353 129 l 449 129 l 435 -8 l 357 -8 z "},"Ł":{"ha":821,"x_min":16,"x_max":774,"o":"m 144 603 l 144 1002 l 345 1002 l 345 674 l 538 742 l 538 645 l 345 577 l 345 157 l 774 157 l 774 0 l 144 0 l 144 506 l 16 461 l 16 558 l 144 603 z "},"ł":{"ha":391,"x_min":3,"x_max":426,"o":"m 334 -8 q 153 48 210 -8 q 96 239 96 105 l 96 499 l 3 461 l 3 558 l 96 596 l 96 1027 l 281 1027 l 281 672 l 393 718 l 393 621 l 281 574 l 281 242 q 306 154 281 180 q 403 129 331 129 l 426 129 l 412 -8 l 334 -8 z "},"Ń":{"ha":1108,"x_min":129,"x_max":979,"o":"m 503 1143 l 581 1390 l 762 1390 l 604 1143 l 503 1143 m 129 0 l 129 1001 l 280 1001 l 800 315 l 800 1001 l 979 1001 l 979 0 l 828 0 l 310 675 l 310 0 l 129 0 z "},"ń":{"ha":850,"x_min":109,"x_max":747,"o":"m 377 870 l 454 1118 l 636 1118 l 478 870 l 377 870 m 563 512 q 435 606 563 606 q 336 577 380 606 q 293 498 293 549 l 293 0 l 109 0 l 109 728 l 293 728 l 293 664 q 510 745 386 745 q 691 682 634 745 q 747 522 747 618 l 747 0 l 563 0 l 563 512 z "},"Ņ":{"ha":1108,"x_min":129,"x_max":979,"o":"m 530 -576 l 458 -544 q 525 -439 492 -505 q 557 -312 557 -374 l 445 -312 l 445 -125 l 663 -125 l 663 -276 q 618 -451 663 -366 q 530 -576 574 -536 m 129 0 l 129 1001 l 280 1001 l 800 315 l 800 1001 l 979 1001 l 979 0 l 828 0 l 310 675 l 310 0 l 129 0 z "},"ņ":{"ha":850,"x_min":109,"x_max":747,"o":"m 404 -576 l 332 -544 q 398 -439 366 -505 q 431 -312 431 -374 l 319 -312 l 319 -125 l 536 -125 l 536 -276 q 492 -451 536 -366 q 404 -576 448 -536 m 563 512 q 435 606 563 606 q 336 577 380 606 q 293 498 293 549 l 293 0 l 109 0 l 109 728 l 293 728 l 293 664 q 510 745 386 745 q 691 682 634 745 q 747 522 747 618 l 747 0 l 563 0 l 563 512 z "},"Ň":{"ha":1108,"x_min":129,"x_max":979,"o":"m 495 1143 l 345 1346 l 463 1346 l 550 1227 l 642 1346 l 764 1346 l 606 1143 l 495 1143 m 129 0 l 129 1001 l 280 1001 l 800 315 l 800 1001 l 979 1001 l 979 0 l 828 0 l 310 675 l 310 0 l 129 0 z "},"ň":{"ha":850,"x_min":109,"x_max":747,"o":"m 369 870 l 218 1074 l 337 1074 l 424 955 l 516 1074 l 638 1074 l 479 870 l 369 870 m 563 512 q 435 606 563 606 q 336 577 380 606 q 293 498 293 549 l 293 0 l 109 0 l 109 728 l 293 728 l 293 664 q 510 745 386 745 q 691 682 634 745 q 747 522 747 618 l 747 0 l 563 0 l 563 512 z "},"ŉ":{"ha":875,"x_min":109,"x_max":747,"o":"m 234 835 l 161 867 q 228 971 195 906 q 260 1099 260 1036 l 149 1099 l 149 1286 l 366 1286 l 366 1135 q 321 960 366 1044 q 234 835 277 875 m 563 512 q 435 606 563 606 q 336 577 380 606 q 293 498 293 549 l 293 0 l 109 0 l 109 728 l 293 728 l 293 664 q 510 745 386 745 q 691 682 634 745 q 747 522 747 618 l 747 0 l 563 0 l 563 512 z "},"Ŋ":{"ha":1112,"x_min":129,"x_max":983,"o":"m 611 -259 l 592 -130 q 759 -87 729 -119 q 794 -12 789 -55 q 798 79 798 32 l 798 104 l 311 675 l 311 0 l 129 0 l 129 1002 l 281 1002 l 802 380 l 802 1002 l 983 1002 l 983 110 q 967 -58 983 8 q 910 -171 951 -123 q 795 -238 868 -218 q 611 -259 723 -259 z "},"ŋ":{"ha":850,"x_min":109,"x_max":747,"o":"m 375 -248 l 356 -119 q 522 -75 498 -104 q 558 14 554 -35 q 562 117 562 62 l 562 521 q 435 615 562 615 q 336 589 378 615 q 294 514 294 564 l 294 0 l 109 0 l 109 728 l 294 728 l 294 643 q 378 715 318 686 q 513 744 439 744 q 683 687 618 744 q 747 538 747 631 l 747 121 q 731 -46 747 20 q 674 -159 715 -112 q 559 -227 632 -206 q 375 -248 487 -248 z "},"Ō":{"ha":1089,"x_min":109,"x_max":981,"o":"m 404 1143 l 404 1249 l 685 1249 l 685 1143 l 404 1143 m 549 -18 q 161 129 255 -18 q 109 340 109 210 l 109 653 q 239 948 109 864 q 552 1018 347 1017 q 929 862 838 1018 q 981 643 981 774 l 981 351 q 852 55 981 146 q 549 -18 749 -18 m 311 317 q 371 180 311 219 q 551 140 431 140 q 725 179 671 140 q 779 317 779 218 l 779 680 q 724 819 779 778 q 551 860 669 860 q 372 819 433 860 q 311 680 311 779 l 311 317 z "},"ō":{"ha":800,"x_min":84,"x_max":716,"o":"m 260 869 l 260 975 l 541 975 l 541 869 l 260 869 m 400 -16 q 84 220 84 -16 l 84 507 q 167 682 84 619 q 400 744 250 744 q 633 681 549 744 q 716 507 716 618 l 716 220 q 549 1 716 45 q 400 -16 487 -16 m 400 113 q 532 212 532 113 l 532 515 q 498 592 532 569 q 400 615 465 615 q 269 515 269 615 l 269 212 q 301 136 269 159 q 400 113 334 113 z "},"Ŏ":{"ha":1089,"x_min":109,"x_max":981,"o":"m 661 1187 q 638 1165 661 1187 q 545 1143 616 1143 q 429 1187 473 1143 q 385 1295 385 1232 l 469 1295 q 491 1240 469 1260 q 545 1219 513 1219 q 598 1240 576 1219 q 621 1295 621 1260 l 705 1295 q 661 1187 705 1232 m 549 -18 q 161 129 255 -18 q 109 340 109 210 l 109 653 q 239 948 109 864 q 552 1018 347 1017 q 929 862 838 1018 q 981 643 981 774 l 981 351 q 852 55 981 146 q 549 -18 749 -18 m 311 317 q 371 180 311 219 q 551 140 431 140 q 725 179 671 140 q 779 317 779 218 l 779 680 q 724 819 779 778 q 551 860 669 860 q 372 819 433 860 q 311 680 311 779 l 311 317 z "},"ŏ":{"ha":800,"x_min":84,"x_max":716,"o":"m 516 913 q 494 891 516 913 q 400 869 472 869 q 284 913 328 869 q 240 1021 240 958 l 324 1021 q 346 966 324 986 q 400 945 368 945 q 454 966 432 945 q 476 1021 476 986 l 560 1021 q 516 913 560 958 m 400 -16 q 84 220 84 -16 l 84 507 q 167 682 84 619 q 400 744 250 744 q 633 681 549 744 q 716 507 716 618 l 716 220 q 549 1 716 45 q 400 -16 487 -16 m 400 113 q 532 212 532 113 l 532 515 q 498 592 532 569 q 400 615 465 615 q 269 515 269 615 l 269 212 q 301 136 269 159 q 400 113 334 113 z "},"Ő":{"ha":1089,"x_min":109,"x_max":981,"o":"m 627 1143 l 721 1435 l 917 1435 l 736 1143 l 627 1143 m 353 1143 l 428 1435 l 622 1435 l 458 1143 l 353 1143 m 549 -18 q 161 129 255 -18 q 109 340 109 210 l 109 653 q 239 948 109 864 q 552 1018 347 1017 q 929 862 838 1018 q 981 643 981 774 l 981 351 q 852 55 981 146 q 549 -18 749 -18 m 311 317 q 371 180 311 219 q 551 140 431 140 q 725 179 671 140 q 779 317 779 218 l 779 680 q 724 819 779 778 q 551 860 669 860 q 372 819 433 860 q 311 680 311 779 l 311 317 z "},"ő":{"ha":800,"x_min":84,"x_max":772,"o":"m 482 869 l 576 1161 l 772 1161 l 592 869 l 482 869 m 208 869 l 283 1161 l 477 1161 l 313 869 l 208 869 m 400 -16 q 84 220 84 -16 l 84 507 q 167 682 84 619 q 400 744 250 744 q 633 681 549 744 q 716 507 716 618 l 716 220 q 549 1 716 45 q 400 -16 487 -16 m 400 113 q 532 212 532 113 l 532 515 q 498 592 532 569 q 400 615 465 615 q 269 515 269 615 l 269 212 q 301 136 269 159 q 400 113 334 113 z "},"Œ":{"ha":1107,"x_min":109,"x_max":1022,"o":"m 484 130 l 601 130 l 601 867 l 484 867 q 292 693 292 867 l 292 301 q 484 130 292 130 m 486 0 q 153 136 231 0 q 109 343 109 216 l 109 650 q 220 934 109 851 q 486 1001 311 1001 l 1021 1001 l 1021 873 l 784 873 l 784 582 l 964 582 l 964 451 l 784 451 l 784 129 l 1022 129 l 1022 0 l 486 0 z "},"œ":{"ha":1207,"x_min":84,"x_max":1133,"o":"m 707 444 l 958 444 l 958 519 q 926 595 958 575 q 833 615 895 615 q 739 593 772 615 q 707 515 707 570 l 707 444 m 396 113 q 522 213 522 113 l 522 517 q 491 592 522 570 q 397 615 460 615 q 302 592 334 615 q 269 517 269 569 l 269 213 q 300 136 269 159 q 396 113 332 113 m 614 61 q 383 -16 535 -16 q 158 45 231 -16 q 84 221 84 106 l 84 508 q 169 682 84 619 q 394 744 253 744 q 612 663 536 744 q 827 744 688 744 q 1133 505 1133 744 l 1133 347 l 707 347 l 707 218 q 739 137 707 161 q 819 113 770 113 q 887 117 867 113 q 926 134 908 121 q 960 242 959 159 l 1133 242 q 1019 14 1128 63 q 825 -16 951 -16 q 614 61 699 -16 z "},"Ŕ":{"ha":1006,"x_min":129,"x_max":941,"o":"m 484 1143 l 562 1390 l 743 1390 l 585 1143 l 484 1143 m 330 539 l 578 539 q 676 579 649 539 q 703 702 703 620 q 586 858 703 858 l 330 858 l 330 539 m 129 0 l 129 1001 l 561 1001 q 825 922 755 1001 q 895 709 895 844 q 856 513 895 574 q 748 425 817 452 l 941 0 l 732 0 l 557 395 l 330 395 l 330 0 l 129 0 z "},"ŕ":{"ha":564,"x_min":109,"x_max":550,"o":"m 279 869 l 356 1116 l 538 1116 l 380 869 l 279 869 m 109 0 l 109 728 l 293 728 l 293 642 q 361 697 309 673 q 532 740 450 740 q 550 739 542 740 l 546 583 q 345 537 425 576 q 293 488 300 515 l 293 0 l 109 0 z "},"Ŗ":{"ha":1006,"x_min":129,"x_max":941,"o":"m 511 -576 l 439 -544 q 506 -439 473 -505 q 538 -312 538 -374 l 426 -312 l 426 -125 l 644 -125 l 644 -276 q 599 -451 644 -366 q 511 -576 555 -536 m 330 539 l 578 539 q 676 579 649 539 q 703 702 703 620 q 586 858 703 858 l 330 858 l 330 539 m 129 0 l 129 1001 l 561 1001 q 825 922 755 1001 q 895 709 895 844 q 856 513 895 574 q 748 425 817 452 l 941 0 l 732 0 l 557 395 l 330 395 l 330 0 l 129 0 z "},"ŗ":{"ha":564,"x_min":109,"x_max":550,"o":"m 306 -576 l 233 -544 q 300 -439 268 -505 q 332 -312 332 -374 l 220 -312 l 220 -125 l 438 -125 l 438 -276 q 394 -451 438 -366 q 306 -576 349 -536 m 109 0 l 109 728 l 293 728 l 293 642 q 361 697 309 673 q 532 740 450 740 q 550 739 542 740 l 546 583 q 345 537 425 576 q 293 488 300 515 l 293 0 l 109 0 z "},"Ř":{"ha":1006,"x_min":129,"x_max":941,"o":"m 476 1143 l 326 1346 l 444 1346 l 531 1227 l 623 1346 l 745 1346 l 587 1143 l 476 1143 m 330 539 l 578 539 q 676 579 649 539 q 703 702 703 620 q 586 858 703 858 l 330 858 l 330 539 m 129 0 l 129 1001 l 561 1001 q 825 922 755 1001 q 895 709 895 844 q 856 513 895 574 q 748 425 817 452 l 941 0 l 732 0 l 557 395 l 330 395 l 330 0 l 129 0 z "},"ř":{"ha":564,"x_min":109,"x_max":550,"o":"m 270 869 l 119 1072 l 238 1072 l 325 954 l 417 1072 l 539 1072 l 380 869 l 270 869 m 109 0 l 109 728 l 293 728 l 293 642 q 361 697 309 673 q 532 740 450 740 q 550 739 542 740 l 546 583 q 345 537 425 576 q 293 488 300 515 l 293 0 l 109 0 z "},"Ś":{"ha":869,"x_min":81,"x_max":793,"o":"m 387 1143 l 464 1390 l 646 1390 l 488 1143 l 387 1143 m 457 -18 q 260 7 364 -18 q 81 73 157 31 l 151 220 q 462 140 301 140 q 576 174 543 140 q 609 273 609 207 q 606 312 609 286 q 471 412 600 373 l 300 462 q 174 528 221 485 q 109 622 126 571 q 92 742 92 673 q 190 949 92 880 q 440 1018 288 1018 q 775 940 641 1018 l 718 798 q 458 860 587 860 q 290 760 295 860 q 290 750 290 755 q 316 671 290 699 q 420 618 341 642 l 590 568 q 743 469 693 536 q 793 278 793 402 q 714 68 793 155 q 457 -18 635 -18 z "},"ś":{"ha":674,"x_min":73,"x_max":618,"o":"m 296 869 l 373 1116 l 555 1116 l 397 869 l 296 869 m 357 -16 q 73 41 185 -16 l 111 167 q 351 113 238 113 q 448 189 437 113 q 450 207 450 199 q 388 281 450 262 l 228 332 q 112 409 146 357 q 77 534 77 460 q 77 540 77 537 q 357 744 79 744 q 602 682 494 744 l 559 568 q 465 601 524 586 q 353 615 406 615 q 277 596 301 615 q 254 533 254 578 q 304 472 254 488 l 454 425 q 582 345 545 396 q 618 201 618 293 q 551 46 618 109 q 357 -16 483 -16 z "},"Ŝ":{"ha":869,"x_min":81,"x_max":793,"o":"m 227 1143 l 386 1346 l 496 1346 l 647 1143 l 528 1143 l 441 1261 l 349 1143 l 227 1143 m 457 -18 q 260 7 364 -18 q 81 73 157 31 l 151 220 q 462 140 301 140 q 576 174 543 140 q 609 273 609 207 q 606 312 609 286 q 471 412 600 373 l 300 462 q 174 528 221 485 q 109 622 126 571 q 92 742 92 673 q 190 949 92 880 q 440 1018 288 1018 q 775 940 641 1018 l 718 798 q 458 860 587 860 q 290 760 295 860 q 290 750 290 755 q 316 671 290 699 q 420 618 341 642 l 590 568 q 743 469 693 536 q 793 278 793 402 q 714 68 793 155 q 457 -18 635 -18 z "},"ŝ":{"ha":674,"x_min":73,"x_max":618,"o":"m 136 869 l 294 1072 l 405 1072 l 555 869 l 437 869 l 350 987 l 258 869 l 136 869 m 357 -16 q 73 41 185 -16 l 111 167 q 351 113 238 113 q 448 189 437 113 q 450 207 450 199 q 388 281 450 262 l 228 332 q 112 409 146 357 q 77 534 77 460 q 77 540 77 537 q 357 744 79 744 q 602 682 494 744 l 559 568 q 465 601 524 586 q 353 615 406 615 q 277 596 301 615 q 254 533 254 578 q 304 472 254 488 l 454 425 q 582 345 545 396 q 618 201 618 293 q 551 46 618 109 q 357 -16 483 -16 z "},"Ş":{"ha":869,"x_min":81,"x_max":793,"o":"m 451 -342 q 387 -336 417 -342 l 387 -256 q 439 -261 410 -261 q 490 -245 469 -261 q 510 -201 510 -229 q 484 -149 510 -172 q 412 -123 458 -125 l 412 -7 l 463 -7 l 467 -75 q 578 -129 538 -88 q 617 -219 617 -169 q 574 -306 617 -269 q 451 -342 530 -342 m 457 -18 q 260 7 364 -18 q 81 73 157 31 l 151 220 q 462 140 301 140 q 576 174 543 140 q 609 273 609 207 q 606 312 609 286 q 471 412 600 373 l 300 462 q 174 528 221 485 q 109 622 126 571 q 92 742 92 673 q 190 949 92 880 q 440 1018 288 1018 q 775 940 641 1018 l 718 798 q 458 860 587 860 q 290 760 295 860 q 290 750 290 755 q 316 671 290 699 q 420 618 341 642 l 590 568 q 743 469 693 536 q 793 278 793 402 q 714 68 793 155 q 457 -18 635 -18 z "},"ş":{"ha":674,"x_min":73,"x_max":618,"o":"m 359 -340 q 295 -334 326 -340 l 295 -254 q 348 -259 318 -259 q 398 -243 378 -259 q 418 -199 418 -227 q 393 -146 418 -170 q 320 -121 367 -123 l 320 -5 l 372 -5 l 376 -73 q 486 -126 447 -86 q 526 -217 526 -167 q 482 -303 526 -267 q 359 -340 439 -340 m 357 -16 q 73 41 185 -16 l 111 167 q 351 113 238 113 q 448 189 437 113 q 450 207 450 199 q 388 281 450 262 l 228 332 q 112 409 146 357 q 77 534 77 460 q 77 540 77 537 q 357 744 79 744 q 602 682 494 744 l 559 568 q 465 601 524 586 q 353 615 406 615 q 277 596 301 615 q 254 533 254 578 q 304 472 254 488 l 454 425 q 582 345 545 396 q 618 201 618 293 q 551 46 618 109 q 357 -16 483 -16 z "},"Š":{"ha":869,"x_min":81,"x_max":793,"o":"m 378 1143 l 227 1346 l 346 1346 l 433 1227 l 525 1346 l 647 1346 l 488 1143 l 378 1143 m 457 -18 q 260 7 364 -18 q 81 73 157 31 l 151 220 q 462 140 301 140 q 576 174 543 140 q 609 273 609 207 q 606 312 609 286 q 471 412 600 373 l 300 462 q 174 528 221 485 q 109 622 126 571 q 92 742 92 673 q 190 949 92 880 q 440 1018 288 1018 q 775 940 641 1018 l 718 798 q 458 860 587 860 q 290 760 295 860 q 290 750 290 755 q 316 671 290 699 q 420 618 341 642 l 590 568 q 743 469 693 536 q 793 278 793 402 q 714 68 793 155 q 457 -18 635 -18 z "},"š":{"ha":674,"x_min":73,"x_max":618,"o":"m 286 869 l 136 1072 l 254 1072 l 341 954 l 433 1072 l 555 1072 l 397 869 l 286 869 m 357 -16 q 73 41 185 -16 l 111 167 q 351 113 238 113 q 448 189 437 113 q 450 207 450 199 q 388 281 450 262 l 228 332 q 112 409 146 357 q 77 534 77 460 q 77 540 77 537 q 357 744 79 744 q 602 682 494 744 l 559 568 q 465 601 524 586 q 353 615 406 615 q 277 596 301 615 q 254 533 254 578 q 304 472 254 488 l 454 425 q 582 345 545 396 q 618 201 618 293 q 551 46 618 109 q 357 -16 483 -16 z "},"Ţ":{"ha":810,"x_min":26,"x_max":784,"o":"m 418 -324 q 354 -318 385 -324 l 354 -239 q 407 -243 377 -243 q 457 -228 437 -243 q 477 -183 477 -212 q 452 -131 477 -155 q 379 -106 426 -107 l 379 11 l 431 11 l 435 -58 q 545 -111 506 -71 q 585 -201 585 -151 q 541 -288 585 -252 q 418 -324 498 -324 m 304 0 l 304 848 l 26 848 l 26 1001 l 784 1001 l 784 848 l 505 848 l 505 0 l 304 0 z "},"ţ":{"ha":551,"x_min":43,"x_max":503,"o":"m 287 -332 q 222 -326 253 -332 l 222 -247 q 275 -252 245 -252 q 326 -236 305 -252 q 346 -191 346 -220 q 320 -139 346 -163 q 248 -114 294 -115 l 248 3 l 299 3 l 303 -66 q 414 -119 374 -79 q 453 -210 453 -159 q 410 -296 453 -260 q 287 -332 366 -332 m 450 -8 q 212 42 284 -8 q 140 231 140 92 l 140 611 l 43 611 l 43 728 l 146 728 l 163 962 l 325 962 l 325 728 l 498 728 l 498 611 l 325 611 l 325 244 q 357 153 325 176 q 481 129 389 129 l 503 129 l 496 -8 l 450 -8 z "},"Ť":{"ha":810,"x_min":26,"x_max":784,"o":"m 346 1143 l 195 1346 l 314 1346 l 401 1227 l 493 1346 l 615 1346 l 456 1143 l 346 1143 m 304 0 l 304 848 l 26 848 l 26 1001 l 784 1001 l 784 848 l 505 848 l 505 0 l 304 0 z "},"ť":{"ha":551,"x_min":43,"x_max":908,"o":"m 775 511 l 703 543 q 769 647 737 582 q 802 775 802 713 l 690 775 l 690 962 l 908 962 l 908 811 q 863 636 908 721 q 775 511 819 551 m 450 -8 q 212 42 284 -8 q 140 231 140 92 l 140 611 l 43 611 l 43 728 l 146 728 l 163 962 l 325 962 l 325 728 l 498 728 l 498 611 l 325 611 l 325 244 q 357 153 325 176 q 481 129 389 129 l 503 129 l 496 -8 l 450 -8 z "},"Ŧ":{"ha":821,"x_min":38,"x_max":783,"o":"m 310 554 l 310 848 l 38 848 l 38 1002 l 783 1002 l 783 848 l 511 848 l 511 554 l 650 554 l 650 467 l 511 467 l 511 0 l 310 0 l 310 467 l 165 467 l 165 554 l 310 554 z "},"ŧ":{"ha":590,"x_min":39,"x_max":525,"o":"m 458 -8 q 318 3 373 -8 q 224 41 262 14 q 171 115 186 69 q 155 231 155 161 l 155 380 l 39 380 l 39 467 l 155 467 l 155 611 l 58 611 l 58 728 l 160 728 l 178 962 l 340 962 l 340 728 l 513 728 l 513 611 l 340 611 l 340 467 l 525 467 l 525 380 l 340 380 l 340 244 q 373 153 340 177 q 498 129 406 129 l 519 129 l 506 -8 l 458 -8 z "},"Ũ":{"ha":1067,"x_min":119,"x_max":948,"o":"m 459 1143 q 323 1319 323 1143 l 404 1319 q 446 1261 404 1261 q 488 1284 462 1261 q 609 1330 540 1330 q 745 1154 745 1330 l 665 1154 q 627 1213 665 1213 q 581 1188 610 1213 q 459 1143 527 1142 m 538 -18 q 169 117 256 -18 q 119 317 119 193 l 119 1002 l 321 1002 l 321 309 q 375 177 321 214 q 539 140 429 140 q 698 177 650 140 q 747 309 747 214 l 747 1002 l 948 1002 l 948 326 q 830 47 948 126 q 538 -18 731 -18 z "},"ũ":{"ha":846,"x_min":103,"x_max":740,"o":"m 347 869 q 211 1045 211 869 l 291 1045 q 334 987 291 987 q 376 1010 349 987 q 496 1056 427 1056 q 632 880 632 1056 l 552 880 q 514 939 552 939 q 469 914 497 939 q 347 869 414 868 m 561 80 q 477 10 539 35 q 338 -16 414 -16 q 166 45 229 -16 q 103 197 103 105 l 103 728 l 288 728 l 288 227 q 325 149 288 175 q 415 123 361 123 q 512 152 469 123 q 555 237 555 181 l 555 728 l 740 728 l 740 0 l 566 0 l 561 80 z "},"Ū":{"ha":1067,"x_min":119,"x_max":948,"o":"m 393 1143 l 393 1249 l 674 1249 l 674 1143 l 393 1143 m 538 -18 q 169 117 256 -18 q 119 317 119 193 l 119 1002 l 321 1002 l 321 309 q 375 177 321 214 q 539 140 429 140 q 698 177 650 140 q 747 309 747 214 l 747 1002 l 948 1002 l 948 326 q 830 47 948 126 q 538 -18 731 -18 z "},"ū":{"ha":846,"x_min":103,"x_max":740,"o":"m 281 869 l 281 975 l 562 975 l 562 869 l 281 869 m 561 80 q 477 10 539 35 q 338 -16 414 -16 q 166 45 229 -16 q 103 197 103 105 l 103 728 l 288 728 l 288 227 q 325 149 288 175 q 415 123 361 123 q 512 152 469 123 q 555 237 555 181 l 555 728 l 740 728 l 740 0 l 566 0 l 561 80 z "},"Ŭ":{"ha":1067,"x_min":119,"x_max":948,"o":"m 650 1187 q 628 1165 650 1187 q 534 1143 606 1143 q 418 1187 462 1143 q 374 1295 374 1232 l 458 1295 q 480 1240 458 1260 q 534 1219 502 1219 q 588 1240 566 1219 q 610 1295 610 1260 l 694 1295 q 650 1187 694 1232 m 538 -18 q 169 117 256 -18 q 119 317 119 193 l 119 1002 l 321 1002 l 321 309 q 375 177 321 214 q 539 140 429 140 q 698 177 650 140 q 747 309 747 214 l 747 1002 l 948 1002 l 948 326 q 830 47 948 126 q 538 -18 731 -18 z "},"ŭ":{"ha":846,"x_min":103,"x_max":740,"o":"m 538 913 q 516 891 538 913 q 422 869 494 869 q 306 913 350 869 q 262 1021 262 958 l 346 1021 q 368 966 346 986 q 422 945 390 945 q 476 966 454 945 q 498 1021 498 986 l 582 1021 q 538 913 582 958 m 561 80 q 477 10 539 35 q 338 -16 414 -16 q 166 45 229 -16 q 103 197 103 105 l 103 728 l 288 728 l 288 227 q 325 149 288 175 q 415 123 361 123 q 512 152 469 123 q 555 237 555 181 l 555 728 l 740 728 l 740 0 l 566 0 l 561 80 z "},"Ů":{"ha":1067,"x_min":119,"x_max":948,"o":"m 648 1181 q 628 1162 648 1181 q 534 1143 607 1143 q 419 1181 460 1143 q 378 1287 378 1219 q 419 1393 378 1356 q 534 1431 460 1431 q 648 1393 607 1431 q 690 1287 690 1356 q 648 1181 690 1219 m 454 1288 q 454 1246 454 1288 q 534 1204 454 1204 q 614 1288 614 1204 q 534 1371 614 1371 q 454 1288 454 1371 m 538 -18 q 169 117 256 -18 q 119 317 119 193 l 119 1002 l 321 1002 l 321 309 q 375 177 321 214 q 539 140 429 140 q 698 177 650 140 q 747 309 747 214 l 747 1002 l 948 1002 l 948 326 q 830 47 948 126 q 538 -18 731 -18 z "},"ů":{"ha":846,"x_min":103,"x_max":740,"o":"m 536 907 q 516 888 536 907 q 422 869 495 869 q 307 907 349 869 q 266 1013 266 945 q 307 1119 266 1082 q 422 1157 349 1157 q 536 1119 495 1157 q 578 1013 578 1082 q 536 907 578 945 m 342 1014 q 342 972 342 1014 q 422 930 342 930 q 502 1014 502 930 q 422 1097 502 1097 q 342 1014 342 1097 m 561 80 q 477 10 539 35 q 338 -16 414 -16 q 166 45 229 -16 q 103 197 103 105 l 103 728 l 288 728 l 288 227 q 325 149 288 175 q 415 123 361 123 q 512 152 469 123 q 555 237 555 181 l 555 728 l 740 728 l 740 0 l 566 0 l 561 80 z "},"Ű":{"ha":1067,"x_min":119,"x_max":948,"o":"m 616 1143 l 710 1435 l 906 1435 l 726 1143 l 616 1143 m 342 1143 l 417 1435 l 611 1435 l 447 1143 l 342 1143 m 538 -18 q 169 117 256 -18 q 119 317 119 193 l 119 1002 l 321 1002 l 321 309 q 375 177 321 214 q 539 140 429 140 q 698 177 650 140 q 747 309 747 214 l 747 1002 l 948 1002 l 948 326 q 830 47 948 126 q 538 -18 731 -18 z "},"ű":{"ha":846,"x_min":103,"x_max":793,"o":"m 503 869 l 597 1161 l 793 1161 l 613 869 l 503 869 m 229 869 l 304 1161 l 498 1161 l 334 869 l 229 869 m 561 80 q 477 10 539 35 q 338 -16 414 -16 q 166 45 229 -16 q 103 197 103 105 l 103 728 l 288 728 l 288 227 q 325 149 288 175 q 415 123 361 123 q 512 152 469 123 q 555 237 555 181 l 555 728 l 740 728 l 740 0 l 566 0 l 561 80 z "},"Ų":{"ha":1067,"x_min":119,"x_max":948,"o":"m 573 -6 q 517 -178 517 -113 q 636 -261 517 -261 l 627 -357 q 619 -357 623 -357 q 391 -212 391 -357 q 420 -106 391 -161 q 495 -6 448 -50 l 573 -6 m 538 -18 q 169 117 256 -18 q 119 317 119 193 l 119 1002 l 321 1002 l 321 309 q 375 177 321 214 q 539 140 429 140 q 698 177 650 140 q 747 309 747 214 l 747 1002 l 948 1002 l 948 326 q 830 47 948 126 q 538 -18 731 -18 z "},"ų":{"ha":846,"x_min":103,"x_max":740,"o":"m 500 -4 q 444 -176 444 -111 q 563 -259 444 -259 l 554 -355 q 546 -355 550 -355 q 318 -210 318 -355 q 347 -104 318 -159 q 422 -4 375 -48 l 500 -4 m 561 80 q 477 10 539 35 q 338 -16 414 -16 q 166 45 229 -16 q 103 197 103 105 l 103 728 l 288 728 l 288 227 q 325 149 288 175 q 415 123 361 123 q 512 152 469 123 q 555 237 555 181 l 555 728 l 740 728 l 740 0 l 566 0 l 561 80 z "},"Ŵ":{"ha":1325,"x_min":27,"x_max":1298,"o":"m 453 1143 l 612 1346 l 722 1346 l 873 1143 l 754 1143 l 667 1261 l 575 1143 l 453 1143 m 287 0 l 27 1001 l 222 1001 l 395 309 l 571 1001 l 741 1001 l 942 316 l 1105 1001 l 1298 1001 l 1039 0 l 870 0 l 660 714 l 467 0 l 287 0 z "},"ŵ":{"ha":1118,"x_min":31,"x_max":1086,"o":"m 349 869 l 507 1072 l 618 1072 l 768 869 l 650 869 l 563 987 l 471 869 l 349 869 m 233 0 l 31 728 l 203 728 l 334 206 l 486 728 l 636 728 l 793 200 l 915 728 l 1086 728 l 892 0 l 712 0 l 563 503 l 408 0 l 233 0 z "},"Ŷ":{"ha":884,"x_min":0,"x_max":884,"o":"m 232 1143 l 391 1346 l 501 1346 l 652 1143 l 533 1143 l 446 1261 l 354 1143 l 232 1143 m 345 0 l 345 385 l 0 1001 l 212 1001 l 447 583 l 681 1001 l 884 1001 l 546 385 l 546 0 l 345 0 z "},"ŷ":{"ha":734,"x_min":22,"x_max":724,"o":"m 163 869 l 321 1072 l 432 1072 l 583 869 l 464 869 l 377 987 l 285 869 l 163 869 m 100 -329 l 87 -176 q 228 -102 184 -157 q 296 24 273 -47 l 22 728 l 200 728 l 389 239 l 541 728 l 724 728 l 503 95 q 399 -140 446 -68 q 312 -244 352 -212 q 100 -329 227 -313 z "},"Ÿ":{"ha":884,"x_min":0,"x_max":884,"o":"m 525 1143 l 525 1301 l 705 1301 l 705 1143 l 525 1143 m 180 1143 l 180 1301 l 359 1301 l 359 1143 l 180 1143 m 345 0 l 345 385 l 0 1001 l 212 1001 l 447 583 l 681 1001 l 884 1001 l 546 385 l 546 0 l 345 0 z "},"Ź":{"ha":803,"x_min":85,"x_max":747,"o":"m 366 1143 l 444 1390 l 625 1390 l 467 1143 l 366 1143 m 85 0 l 85 120 l 506 853 l 104 853 l 104 1001 l 739 1001 l 739 880 l 320 142 l 747 142 l 747 0 l 85 0 z "},"ź":{"ha":614,"x_min":71,"x_max":555,"o":"m 262 869 l 339 1116 l 521 1116 l 363 869 l 262 869 m 71 0 l 71 113 l 357 602 l 77 602 l 77 728 l 555 728 l 555 617 l 271 129 l 551 129 l 551 0 l 71 0 z "},"Ż":{"ha":803,"x_min":85,"x_max":747,"o":"m 332 1143 l 332 1310 l 500 1310 l 500 1143 l 332 1143 m 85 0 l 85 120 l 506 853 l 104 853 l 104 1001 l 739 1001 l 739 880 l 320 142 l 747 142 l 747 0 l 85 0 z "},"ż":{"ha":614,"x_min":71,"x_max":555,"o":"m 229 869 l 229 1036 l 397 1036 l 397 869 l 229 869 m 71 0 l 71 113 l 357 602 l 77 602 l 77 728 l 555 728 l 555 617 l 271 129 l 551 129 l 551 0 l 71 0 z "},"Ž":{"ha":803,"x_min":85,"x_max":747,"o":"m 357 1143 l 206 1346 l 325 1346 l 412 1227 l 504 1346 l 626 1346 l 467 1143 l 357 1143 m 85 0 l 85 120 l 506 853 l 104 853 l 104 1001 l 739 1001 l 739 880 l 320 142 l 747 142 l 747 0 l 85 0 z "},"ž":{"ha":614,"x_min":71,"x_max":555,"o":"m 254 869 l 103 1072 l 222 1072 l 309 954 l 401 1072 l 523 1072 l 364 869 l 254 869 m 71 0 l 71 113 l 357 602 l 77 602 l 77 728 l 555 728 l 555 617 l 271 129 l 551 129 l 551 0 l 71 0 z "},"ƒ":{"ha":694,"x_min":163,"x_max":531,"o":"m 531 871 l 492 876 q 419 817 429 876 q 417 781 416 802 l 417 686 l 513 686 l 513 572 l 417 572 l 417 68 q 375 -98 417 -58 q 248 -139 334 -139 q 163 -133 210 -139 l 163 -33 q 208 -38 192 -38 q 264 -15 250 -38 q 278 50 278 7 l 278 572 l 199 572 l 199 686 l 278 686 l 278 763 q 305 917 278 876 q 371 967 332 958 q 447 977 410 977 q 531 971 483 977 l 531 871 z "},"Ǆ":{"ha":1843,"x_min":129,"x_max":1788,"o":"m 1397 1143 l 1246 1346 l 1365 1346 l 1452 1227 l 1544 1346 l 1666 1346 l 1508 1143 l 1397 1143 m 1126 0 l 1126 120 l 1546 853 l 1145 853 l 1145 1001 l 1780 1001 l 1780 880 l 1360 142 l 1788 142 l 1788 0 l 1126 0 m 129 0 l 129 1001 l 563 1001 q 886 859 803 1001 q 932 652 932 779 l 932 345 q 739 25 932 91 q 564 0 666 0 l 129 0 m 330 157 l 546 157 q 690 195 649 157 q 730 319 730 233 l 730 678 q 689 804 730 763 q 546 844 647 844 l 330 844 l 330 157 z "},"ǅ":{"ha":1655,"x_min":129,"x_max":1595,"o":"m 1294 869 l 1143 1072 l 1262 1072 l 1349 954 l 1441 1072 l 1563 1072 l 1404 869 l 1294 869 m 1111 0 l 1111 113 l 1397 602 l 1118 602 l 1118 728 l 1595 728 l 1595 617 l 1311 129 l 1592 129 l 1592 0 l 1111 0 m 129 0 l 129 1001 l 563 1001 q 886 859 803 1001 q 932 652 932 779 l 932 345 q 739 25 932 91 q 564 0 666 0 l 129 0 m 330 157 l 546 157 q 690 195 649 157 q 730 319 730 233 l 730 678 q 689 804 730 763 q 546 844 647 844 l 330 844 l 330 157 z "},"ǆ":{"ha":1427,"x_min":84,"x_max":1367,"o":"m 1066 869 l 916 1072 l 1034 1072 l 1121 954 l 1213 1072 l 1335 1072 l 1177 869 l 1066 869 m 883 0 l 883 113 l 1169 602 l 890 602 l 890 728 l 1367 728 l 1367 617 l 1083 129 l 1364 129 l 1364 0 l 883 0 m 269 217 q 300 138 269 163 q 403 114 332 114 q 522 143 473 114 l 522 590 q 403 615 469 615 q 302 592 336 615 q 269 515 269 568 l 269 217 m 374 -16 q 156 46 229 -16 q 84 220 84 107 l 84 511 q 159 681 84 617 q 387 744 234 744 q 522 718 452 744 l 522 1028 l 707 1028 l 707 0 l 582 0 l 562 43 q 374 -16 479 -16 z "},"Ǉ":{"ha":1624,"x_min":129,"x_max":1497,"o":"m 1497 286 q 1402 63 1497 142 q 1141 -17 1306 -17 q 842 45 975 -17 l 889 195 q 1005 157 939 172 q 1124 142 1071 142 q 1255 185 1213 142 q 1296 299 1296 229 l 1296 848 l 951 848 l 951 1001 l 1497 1001 l 1497 286 m 129 0 l 129 1001 l 330 1001 l 330 157 l 749 157 l 749 0 l 129 0 z "},"ǈ":{"ha":1227,"x_min":129,"x_max":1119,"o":"m 933 832 l 933 996 l 1118 996 l 1118 832 l 933 832 m 797 -245 l 788 -114 l 818 -114 q 935 7 935 -114 l 935 728 l 1119 728 l 1119 -2 q 1057 -181 1119 -116 q 865 -245 996 -245 l 797 -245 m 129 0 l 129 1001 l 330 1001 l 330 157 l 749 157 l 749 0 l 129 0 z "},"ǉ":{"ha":913,"x_min":111,"x_max":804,"o":"m 618 832 l 618 996 l 803 996 l 803 832 l 618 832 m 482 -245 l 473 -114 l 503 -114 q 620 7 620 -114 l 620 728 l 804 728 l 804 -2 q 743 -181 804 -116 q 551 -245 681 -245 l 482 -245 m 357 -8 q 172 49 232 -8 q 111 239 111 106 l 111 1027 l 296 1027 l 296 242 q 324 155 296 181 q 426 129 353 129 l 449 129 l 435 -8 l 357 -8 z "},"Ǌ":{"ha":1937,"x_min":129,"x_max":1811,"o":"m 1811 286 q 1715 63 1811 142 q 1454 -17 1619 -17 q 1156 45 1289 -17 l 1202 195 q 1318 157 1252 172 q 1437 142 1384 142 q 1568 185 1527 142 q 1609 299 1609 229 l 1609 848 l 1265 848 l 1265 1001 l 1811 1001 l 1811 286 m 129 0 l 129 1001 l 280 1001 l 800 315 l 800 1001 l 979 1001 l 979 0 l 828 0 l 310 675 l 310 0 l 129 0 z "},"ǋ":{"ha":1541,"x_min":129,"x_max":1432,"o":"m 1246 832 l 1246 996 l 1431 996 l 1431 832 l 1246 832 m 1110 -245 l 1101 -114 l 1131 -114 q 1248 7 1248 -114 l 1248 728 l 1432 728 l 1432 -2 q 1371 -181 1432 -116 q 1179 -245 1309 -245 l 1110 -245 m 129 0 l 129 1001 l 280 1001 l 800 315 l 800 1001 l 979 1001 l 979 0 l 828 0 l 310 675 l 310 0 l 129 0 z "},"ǌ":{"ha":1283,"x_min":109,"x_max":1175,"o":"m 989 832 l 989 996 l 1173 996 l 1173 832 l 989 832 m 852 -245 l 844 -114 l 873 -114 q 990 7 990 -114 l 990 728 l 1175 728 l 1175 -2 q 1113 -181 1175 -116 q 921 -245 1051 -245 l 852 -245 m 563 512 q 435 606 563 606 q 336 577 380 606 q 293 498 293 549 l 293 0 l 109 0 l 109 728 l 293 728 l 293 664 q 510 745 386 745 q 691 682 634 745 q 747 522 747 618 l 747 0 l 563 0 l 563 512 z "},"Ǳ":{"ha":1843,"x_min":129,"x_max":1788,"o":"m 1126 0 l 1126 120 l 1546 853 l 1145 853 l 1145 1001 l 1780 1001 l 1780 880 l 1360 142 l 1788 142 l 1788 0 l 1126 0 m 129 0 l 129 1001 l 563 1001 q 886 859 803 1001 q 932 652 932 779 l 932 345 q 739 25 932 91 q 564 0 666 0 l 129 0 m 330 157 l 546 157 q 690 195 649 157 q 730 319 730 233 l 730 678 q 689 804 730 763 q 546 844 647 844 l 330 844 l 330 157 z "},"ǲ":{"ha":1655,"x_min":129,"x_max":1595,"o":"m 1111 0 l 1111 113 l 1397 602 l 1118 602 l 1118 728 l 1595 728 l 1595 617 l 1311 129 l 1592 129 l 1592 0 l 1111 0 m 129 0 l 129 1001 l 563 1001 q 886 859 803 1001 q 932 652 932 779 l 932 345 q 739 25 932 91 q 564 0 666 0 l 129 0 m 330 157 l 546 157 q 690 195 649 157 q 730 319 730 233 l 730 678 q 689 804 730 763 q 546 844 647 844 l 330 844 l 330 157 z "},"ǳ":{"ha":1427,"x_min":84,"x_max":1367,"o":"m 883 0 l 883 113 l 1169 602 l 890 602 l 890 728 l 1367 728 l 1367 617 l 1083 129 l 1364 129 l 1364 0 l 883 0 m 269 217 q 300 138 269 163 q 403 114 332 114 q 522 143 473 114 l 522 590 q 403 615 469 615 q 302 592 336 615 q 269 515 269 568 l 269 217 m 374 -16 q 156 46 229 -16 q 84 220 84 107 l 84 511 q 159 681 84 617 q 387 744 234 744 q 522 718 452 744 l 522 1028 l 707 1028 l 707 0 l 582 0 l 562 43 q 374 -16 479 -16 z "},"Ǵ":{"ha":1090,"x_min":109,"x_max":962,"o":"m 485 1143 l 562 1390 l 744 1390 l 586 1143 l 485 1143 m 738 20 q 724 12 738 20 q 662 -6 711 5 q 530 -18 612 -18 q 369 0 448 -18 q 165 117 222 33 q 109 328 109 201 l 109 663 q 240 951 109 869 q 551 1018 347 1018 q 941 833 880 1017 q 962 683 962 770 l 962 667 l 764 652 l 764 692 q 716 825 764 790 q 550 860 669 860 q 371 822 431 860 q 311 686 311 784 l 311 308 q 372 174 311 208 q 551 140 434 140 q 725 174 669 140 q 781 308 781 208 l 781 381 l 578 381 l 578 513 l 962 513 l 962 0 l 856 0 l 824 115 q 790 60 815 85 q 738 20 766 35 z "},"ǵ":{"ha":821,"x_min":84,"x_max":718,"o":"m 351 869 l 428 1116 l 610 1116 l 452 869 l 351 869 m 399 144 q 534 177 489 144 l 534 564 q 495 598 534 581 q 395 615 456 615 q 269 513 269 615 l 269 241 q 399 144 269 144 m 389 -299 q 149 -261 229 -299 l 186 -136 q 375 -164 289 -164 q 498 -130 462 -164 q 534 -20 534 -96 l 534 60 q 353 22 470 22 q 160 82 236 22 q 84 248 84 142 l 84 509 q 148 676 84 608 q 361 744 212 744 q 474 725 419 744 q 566 676 530 705 l 581 729 l 718 729 l 718 -8 q 389 -299 718 -299 z "},"Ǹ":{"ha":1108,"x_min":129,"x_max":979,"o":"m 503 1143 l 342 1390 l 524 1390 l 606 1143 l 503 1143 m 129 0 l 129 1001 l 280 1001 l 800 315 l 800 1001 l 979 1001 l 979 0 l 828 0 l 310 675 l 310 0 l 129 0 z "},"ǹ":{"ha":850,"x_min":109,"x_max":747,"o":"m 377 870 l 216 1118 l 397 1118 l 479 870 l 377 870 m 563 512 q 435 606 563 606 q 336 577 380 606 q 293 498 293 549 l 293 0 l 109 0 l 109 728 l 293 728 l 293 664 q 510 745 386 745 q 691 682 634 745 q 747 522 747 618 l 747 0 l 563 0 l 563 512 z "},"Ǻ":{"ha":1025,"x_min":47,"x_max":978,"o":"m 463 1421 l 540 1669 l 722 1669 l 564 1421 l 463 1421 m 627 1046 q 607 1027 627 1046 q 513 1008 586 1008 q 398 1046 439 1008 q 357 1153 357 1084 q 398 1259 357 1221 q 513 1297 439 1297 q 627 1259 586 1297 q 669 1153 669 1221 q 627 1046 669 1084 m 433 1153 q 433 1111 433 1153 q 513 1069 433 1069 q 593 1153 593 1069 q 513 1237 593 1237 q 433 1153 433 1237 m 356 325 l 669 325 l 515 851 l 356 325 m 47 0 l 377 1001 l 644 1001 l 978 0 l 764 0 l 708 191 l 316 191 l 258 0 l 47 0 z "},"ǻ":{"ha":796,"x_min":76,"x_max":739,"o":"m 357 1282 l 434 1529 l 616 1529 l 458 1282 l 357 1282 m 522 907 q 502 888 522 907 q 408 869 481 869 q 293 907 334 869 q 252 1013 252 945 q 293 1119 252 1082 q 408 1157 334 1157 q 522 1119 481 1157 q 564 1013 564 1082 q 522 907 564 945 m 328 1014 q 328 972 328 1014 q 408 930 328 930 q 488 1014 488 930 q 408 1097 488 1097 q 328 1014 328 1097 m 260 199 q 355 112 260 112 q 433 132 392 112 q 498 187 475 151 l 498 369 q 384 312 466 342 q 281 257 302 282 q 260 199 260 231 m 513 81 q 422 12 481 39 q 278 -16 363 -16 q 135 39 193 -16 q 76 180 76 94 q 129 317 76 265 q 333 416 182 368 q 461 468 425 445 q 498 532 498 491 q 384 615 498 616 q 295 590 319 615 q 271 519 271 566 l 271 490 l 98 490 l 98 512 q 170 683 98 621 q 393 744 243 744 q 612 680 544 744 q 680 497 680 616 l 680 209 q 692 144 680 160 q 739 129 705 129 l 732 -5 l 693 -5 q 576 15 618 -5 q 513 81 534 36 z "},"Ǽ":{"ha":1244,"x_min":56,"x_max":1160,"o":"m 557 1143 l 635 1390 l 817 1390 l 659 1143 l 557 1143 m 357 323 l 606 323 l 606 847 l 513 847 l 357 323 m 267 0 l 56 0 l 366 1002 l 1153 1002 l 1153 847 l 795 847 l 795 582 l 1105 582 l 1105 437 l 795 437 l 795 154 l 1160 154 l 1160 0 l 606 0 l 606 191 l 320 191 l 267 0 z "},"ǽ":{"ha":1176,"x_min":76,"x_max":1101,"o":"m 538 869 l 616 1116 l 798 1116 l 640 869 l 538 869 m 686 444 l 930 444 l 930 519 q 900 595 930 575 q 810 615 870 615 q 718 593 749 615 q 686 515 686 570 l 686 444 m 253 199 q 278 131 253 155 q 347 106 304 106 q 434 123 390 106 q 501 176 478 140 l 501 353 q 364 305 475 330 q 253 199 253 280 m 686 218 q 794 113 686 113 q 861 117 842 113 q 898 133 882 120 q 929 239 928 157 l 1100 239 q 1053 61 1097 117 q 910 -9 1008 4 q 804 -16 867 -16 q 574 88 630 -16 q 448 9 513 35 q 287 -16 382 -16 q 134 39 191 -16 q 76 191 76 94 q 134 330 76 288 q 353 410 193 373 q 461 441 439 430 q 501 522 501 461 q 385 616 501 616 q 296 588 320 616 q 271 512 271 560 l 271 488 l 98 488 l 98 505 q 171 680 98 615 q 389 744 243 744 q 516 722 460 744 q 595 656 572 699 q 815 744 667 744 q 1101 505 1101 744 l 1101 349 l 686 349 l 686 218 z "},"Ǿ":{"ha":1105,"x_min":113,"x_max":985,"o":"m 498 1276 l 575 1524 l 757 1524 l 599 1276 l 498 1276 m 658 850 q 556 860 614 860 q 376 819 437 860 q 315 680 315 779 l 315 317 q 397 167 315 207 l 658 850 m 774 986 q 985 643 985 912 l 985 351 q 856 55 985 146 q 556 -18 753 -18 q 396 -5 463 -18 l 342 -147 l 283 -132 l 337 9 q 160 135 208 49 q 113 340 113 222 l 113 653 q 243 948 113 864 q 556 1018 351 1017 q 716 1002 646 1018 l 773 1152 l 832 1136 l 774 986 m 556 140 q 729 179 675 140 q 783 317 783 218 l 783 680 q 715 828 783 787 l 455 149 q 556 140 495 140 z "},"ǿ":{"ha":833,"x_min":90,"x_max":722,"o":"m 355 994 l 433 1241 l 614 1241 l 456 994 l 355 994 m 478 605 q 406 615 449 615 q 274 515 274 615 l 274 212 q 309 134 274 157 l 478 605 m 722 220 q 423 -16 722 -16 q 311 -9 354 -16 l 262 -145 l 214 -132 l 261 1 q 90 220 90 45 l 90 507 q 173 682 90 619 q 406 744 256 744 q 524 732 471 744 l 572 869 l 621 854 l 572 717 q 683 635 644 689 q 722 507 722 582 l 722 220 m 406 113 q 536 212 536 113 l 536 515 q 521 574 536 551 l 356 117 q 406 113 378 113 z "},"Ȁ":{"ha":1025,"x_min":47,"x_max":978,"o":"m 600 1143 l 435 1435 l 629 1435 l 705 1143 l 600 1143 m 321 1143 l 140 1435 l 336 1435 l 431 1143 l 321 1143 m 356 325 l 669 325 l 515 851 l 356 325 m 47 0 l 377 1001 l 644 1001 l 978 0 l 764 0 l 708 191 l 316 191 l 258 0 l 47 0 z "},"ȁ":{"ha":796,"x_min":35,"x_max":739,"o":"m 494 869 l 330 1161 l 524 1161 l 600 869 l 494 869 m 216 869 l 35 1161 l 231 1161 l 326 869 l 216 869 m 260 199 q 355 112 260 112 q 433 132 392 112 q 498 187 475 151 l 498 369 q 384 312 466 342 q 281 257 302 282 q 260 199 260 231 m 513 81 q 422 12 481 39 q 278 -16 363 -16 q 135 39 193 -16 q 76 180 76 94 q 129 317 76 265 q 333 416 182 368 q 461 468 425 445 q 498 532 498 491 q 384 615 498 616 q 295 590 319 615 q 271 519 271 566 l 271 490 l 98 490 l 98 512 q 170 683 98 621 q 393 744 243 744 q 612 680 544 744 q 680 497 680 616 l 680 209 q 692 144 680 160 q 739 129 705 129 l 732 -5 l 693 -5 q 576 15 618 -5 q 513 81 534 36 z "},"Ȃ":{"ha":1025,"x_min":47,"x_max":978,"o":"m 368 1143 q 408 1244 368 1204 q 513 1283 448 1283 q 617 1244 577 1283 q 658 1143 658 1204 l 570 1143 q 555 1193 570 1171 q 513 1216 540 1216 q 471 1194 486 1216 q 456 1143 456 1171 l 368 1143 m 356 325 l 669 325 l 515 851 l 356 325 m 47 0 l 377 1001 l 644 1001 l 978 0 l 764 0 l 708 191 l 316 191 l 258 0 l 47 0 z "},"ȃ":{"ha":796,"x_min":76,"x_max":739,"o":"m 262 869 q 303 970 262 930 q 408 1009 343 1009 q 512 970 472 1009 q 553 869 553 930 l 465 869 q 450 919 465 897 q 408 942 435 942 q 366 920 380 942 q 351 869 351 897 l 262 869 m 260 199 q 355 112 260 112 q 433 132 392 112 q 498 187 475 151 l 498 369 q 384 312 466 342 q 281 257 302 282 q 260 199 260 231 m 513 81 q 422 12 481 39 q 278 -16 363 -16 q 135 39 193 -16 q 76 180 76 94 q 129 317 76 265 q 333 416 182 368 q 461 468 425 445 q 498 532 498 491 q 384 615 498 616 q 295 590 319 615 q 271 519 271 566 l 271 490 l 98 490 l 98 512 q 170 683 98 621 q 393 744 243 744 q 612 680 544 744 q 680 497 680 616 l 680 209 q 692 144 680 160 q 739 129 705 129 l 732 -5 l 693 -5 q 576 15 618 -5 q 513 81 534 36 z "},"Ȅ":{"ha":878,"x_min":88,"x_max":792,"o":"m 547 1143 l 383 1435 l 577 1435 l 652 1143 l 547 1143 m 269 1143 l 88 1435 l 284 1435 l 378 1143 l 269 1143 m 129 0 l 129 1001 l 785 1001 l 785 849 l 330 849 l 330 583 l 733 583 l 733 438 l 330 438 l 330 152 l 792 152 l 792 0 l 129 0 z "},"ȅ":{"ha":779,"x_min":22,"x_max":705,"o":"m 481 869 l 317 1161 l 511 1161 l 586 869 l 481 869 m 202 869 l 22 1161 l 218 1161 l 312 869 l 202 869 m 269 441 l 530 441 l 530 527 q 477 608 530 593 q 393 615 450 616 q 302 596 336 615 q 269 524 269 577 l 269 441 m 273 -3 q 175 35 218 8 q 84 228 84 91 l 84 512 q 168 683 84 622 q 395 744 251 744 q 705 505 705 744 l 705 329 l 269 329 l 269 210 q 298 131 269 150 q 399 113 328 113 q 484 119 471 113 q 523 160 514 136 q 533 224 532 184 l 704 224 q 585 11 700 56 q 422 -15 518 -15 q 273 -3 327 -16 z "},"Ȇ":{"ha":878,"x_min":129,"x_max":792,"o":"m 315 1143 q 356 1244 315 1204 q 460 1283 396 1283 q 565 1244 525 1283 q 606 1143 606 1204 l 517 1143 q 503 1193 517 1171 q 460 1216 488 1216 q 419 1194 433 1216 q 404 1143 404 1171 l 315 1143 m 129 0 l 129 1001 l 785 1001 l 785 849 l 330 849 l 330 583 l 733 583 l 733 438 l 330 438 l 330 152 l 792 152 l 792 0 l 129 0 z "},"ȇ":{"ha":779,"x_min":84,"x_max":705,"o":"m 250 869 q 290 970 250 930 q 395 1009 330 1009 q 499 970 459 1009 q 540 869 540 930 l 452 869 q 437 919 452 897 q 395 942 422 942 q 353 920 368 942 q 338 869 338 897 l 250 869 m 269 441 l 530 441 l 530 527 q 477 608 530 593 q 393 615 450 616 q 302 596 336 615 q 269 524 269 577 l 269 441 m 273 -3 q 175 35 218 8 q 84 228 84 91 l 84 512 q 168 683 84 622 q 395 744 251 744 q 705 505 705 744 l 705 329 l 269 329 l 269 210 q 298 131 269 150 q 399 113 328 113 q 484 119 471 113 q 523 160 514 136 q 533 224 532 184 l 704 224 q 585 11 700 56 q 422 -15 518 -15 q 273 -3 327 -16 z "},"Ȉ":{"ha":779,"x_min":17,"x_max":671,"o":"m 476 1143 l 312 1435 l 506 1435 l 581 1143 l 476 1143 m 197 1143 l 17 1435 l 213 1435 l 307 1143 l 197 1143 m 107 0 l 107 151 l 290 151 l 290 851 l 107 851 l 107 1001 l 671 1001 l 671 851 l 490 851 l 490 151 l 671 151 l 671 0 l 107 0 z "},"ȉ":{"ha":406,"x_min":-168,"x_max":397,"o":"m 292 869 l 127 1161 l 321 1161 l 397 869 l 292 869 m 13 869 l -168 1161 l 28 1161 l 123 869 l 13 869 m 113 0 l 113 728 l 297 728 l 297 0 l 113 0 z "},"Ȋ":{"ha":779,"x_min":107,"x_max":671,"o":"m 244 1143 q 284 1244 244 1204 q 389 1283 325 1283 q 494 1244 454 1283 q 534 1143 534 1204 l 446 1143 q 431 1193 446 1171 q 389 1216 416 1216 q 348 1194 362 1216 q 333 1143 333 1171 l 244 1143 m 107 0 l 107 151 l 290 151 l 290 851 l 107 851 l 107 1001 l 671 1001 l 671 851 l 490 851 l 490 151 l 671 151 l 671 0 l 107 0 z "},"ȋ":{"ha":406,"x_min":60,"x_max":350,"o":"m 60 869 q 100 970 60 930 q 205 1009 140 1009 q 310 970 269 1009 q 350 869 350 930 l 262 869 q 247 919 262 897 q 205 942 232 942 q 163 920 178 942 q 149 869 149 897 l 60 869 m 113 0 l 113 728 l 297 728 l 297 0 l 113 0 z "},"Ȍ":{"ha":1089,"x_min":109,"x_max":981,"o":"m 631 1143 l 467 1435 l 661 1435 l 736 1143 l 631 1143 m 353 1143 l 172 1435 l 368 1435 l 463 1143 l 353 1143 m 549 -18 q 161 129 255 -18 q 109 340 109 210 l 109 653 q 239 948 109 864 q 552 1018 347 1017 q 929 862 838 1018 q 981 643 981 774 l 981 351 q 852 55 981 146 q 549 -18 749 -18 m 311 317 q 371 180 311 219 q 551 140 431 140 q 725 179 671 140 q 779 317 779 218 l 779 680 q 724 819 779 778 q 551 860 669 860 q 372 819 433 860 q 311 680 311 779 l 311 317 z "},"ȍ":{"ha":800,"x_min":28,"x_max":716,"o":"m 487 869 l 323 1161 l 517 1161 l 592 869 l 487 869 m 208 869 l 28 1161 l 224 1161 l 318 869 l 208 869 m 400 -16 q 84 220 84 -16 l 84 507 q 167 682 84 619 q 400 744 250 744 q 633 681 549 744 q 716 507 716 618 l 716 220 q 549 1 716 45 q 400 -16 487 -16 m 400 113 q 532 212 532 113 l 532 515 q 498 592 532 569 q 400 615 465 615 q 269 515 269 615 l 269 212 q 301 136 269 159 q 400 113 334 113 z "},"Ȏ":{"ha":1089,"x_min":109,"x_max":981,"o":"m 399 1143 q 440 1244 399 1204 q 545 1283 480 1283 q 649 1244 609 1283 q 690 1143 690 1204 l 602 1143 q 587 1193 602 1171 q 545 1216 572 1216 q 503 1194 517 1216 q 488 1143 488 1171 l 399 1143 m 549 -18 q 161 129 255 -18 q 109 340 109 210 l 109 653 q 239 948 109 864 q 552 1018 347 1017 q 929 862 838 1018 q 981 643 981 774 l 981 351 q 852 55 981 146 q 549 -18 749 -18 m 311 317 q 371 180 311 219 q 551 140 431 140 q 725 179 671 140 q 779 317 779 218 l 779 680 q 724 819 779 778 q 551 860 669 860 q 372 819 433 860 q 311 680 311 779 l 311 317 z "},"ȏ":{"ha":800,"x_min":84,"x_max":716,"o":"m 255 869 q 295 970 255 930 q 400 1009 336 1009 q 505 970 465 1009 q 545 869 545 930 l 457 869 q 442 919 457 897 q 400 942 427 942 q 358 920 373 942 q 344 869 344 897 l 255 869 m 400 -16 q 84 220 84 -16 l 84 507 q 167 682 84 619 q 400 744 250 744 q 633 681 549 744 q 716 507 716 618 l 716 220 q 549 1 716 45 q 400 -16 487 -16 m 400 113 q 532 212 532 113 l 532 515 q 498 592 532 569 q 400 615 465 615 q 269 515 269 615 l 269 212 q 301 136 269 159 q 400 113 334 113 z "},"Ȑ":{"ha":1006,"x_min":129,"x_max":941,"o":"m 622 1143 l 458 1435 l 652 1435 l 727 1143 l 622 1143 m 343 1143 l 163 1435 l 359 1435 l 453 1143 l 343 1143 m 330 539 l 578 539 q 676 579 649 539 q 703 702 703 620 q 586 858 703 858 l 330 858 l 330 539 m 129 0 l 129 1001 l 561 1001 q 825 922 755 1001 q 895 709 895 844 q 856 513 895 574 q 748 425 817 452 l 941 0 l 732 0 l 557 395 l 330 395 l 330 0 l 129 0 z "},"ȑ":{"ha":564,"x_min":-43,"x_max":550,"o":"m 416 869 l 252 1161 l 446 1161 l 521 869 l 416 869 m 137 869 l -43 1161 l 153 1161 l 247 869 l 137 869 m 109 0 l 109 728 l 293 728 l 293 642 q 361 697 309 673 q 532 740 450 740 q 550 739 542 740 l 546 583 q 345 537 425 576 q 293 488 300 515 l 293 0 l 109 0 z "},"Ȓ":{"ha":1006,"x_min":129,"x_max":941,"o":"m 390 1143 q 430 1244 390 1204 q 535 1283 471 1283 q 640 1244 600 1283 q 680 1143 680 1204 l 592 1143 q 577 1193 592 1171 q 535 1216 562 1216 q 493 1194 508 1216 q 479 1143 479 1171 l 390 1143 m 330 539 l 578 539 q 676 579 649 539 q 703 702 703 620 q 586 858 703 858 l 330 858 l 330 539 m 129 0 l 129 1001 l 561 1001 q 825 922 755 1001 q 895 709 895 844 q 856 513 895 574 q 748 425 817 452 l 941 0 l 732 0 l 557 395 l 330 395 l 330 0 l 129 0 z "},"ȓ":{"ha":564,"x_min":109,"x_max":550,"o":"m 184 869 q 225 970 184 930 q 330 1009 265 1009 q 434 970 394 1009 q 475 869 475 930 l 387 869 q 372 919 387 897 q 330 942 357 942 q 288 920 302 942 q 273 869 273 897 l 184 869 m 109 0 l 109 728 l 293 728 l 293 642 q 361 697 309 673 q 532 740 450 740 q 550 739 542 740 l 546 583 q 345 537 425 576 q 293 488 300 515 l 293 0 l 109 0 z "},"Ȕ":{"ha":1067,"x_min":119,"x_max":948,"o":"m 621 1143 l 456 1435 l 650 1435 l 726 1143 l 621 1143 m 342 1143 l 161 1435 l 357 1435 l 452 1143 l 342 1143 m 538 -18 q 169 117 256 -18 q 119 317 119 193 l 119 1002 l 321 1002 l 321 309 q 375 177 321 214 q 539 140 429 140 q 698 177 650 140 q 747 309 747 214 l 747 1002 l 948 1002 l 948 326 q 830 47 948 126 q 538 -18 731 -18 z "},"ȕ":{"ha":846,"x_min":49,"x_max":740,"o":"m 508 869 l 344 1161 l 538 1161 l 613 869 l 508 869 m 229 869 l 49 1161 l 245 1161 l 339 869 l 229 869 m 561 80 q 477 10 539 35 q 338 -16 414 -16 q 166 45 229 -16 q 103 197 103 105 l 103 728 l 288 728 l 288 227 q 325 149 288 175 q 415 123 361 123 q 512 152 469 123 q 555 237 555 181 l 555 728 l 740 728 l 740 0 l 566 0 l 561 80 z "},"Ȗ":{"ha":1067,"x_min":119,"x_max":948,"o":"m 389 1143 q 429 1244 389 1204 q 534 1283 469 1283 q 638 1244 598 1283 q 679 1143 679 1204 l 591 1143 q 576 1193 591 1171 q 534 1216 561 1216 q 492 1194 507 1216 q 477 1143 477 1171 l 389 1143 m 538 -18 q 169 117 256 -18 q 119 317 119 193 l 119 1002 l 321 1002 l 321 309 q 375 177 321 214 q 539 140 429 140 q 698 177 650 140 q 747 309 747 214 l 747 1002 l 948 1002 l 948 326 q 830 47 948 126 q 538 -18 731 -18 z "},"ȗ":{"ha":846,"x_min":103,"x_max":740,"o":"m 277 869 q 317 970 277 930 q 422 1009 357 1009 q 527 970 486 1009 q 567 869 567 930 l 479 869 q 464 919 479 897 q 422 942 449 942 q 380 920 395 942 q 366 869 366 897 l 277 869 m 561 80 q 477 10 539 35 q 338 -16 414 -16 q 166 45 229 -16 q 103 197 103 105 l 103 728 l 288 728 l 288 227 q 325 149 288 175 q 415 123 361 123 q 512 152 469 123 q 555 237 555 181 l 555 728 l 740 728 l 740 0 l 566 0 l 561 80 z "},"Ș":{"ha":869,"x_min":81,"x_max":793,"o":"m 414 -593 l 341 -562 q 408 -457 376 -522 q 440 -330 440 -392 l 328 -330 l 328 -142 l 546 -142 l 546 -294 q 502 -469 546 -384 q 414 -593 457 -553 m 457 -18 q 260 7 364 -18 q 81 73 157 31 l 151 220 q 462 140 301 140 q 576 174 543 140 q 609 273 609 207 q 606 312 609 286 q 471 412 600 373 l 300 462 q 174 528 221 485 q 109 622 126 571 q 92 742 92 673 q 190 949 92 880 q 440 1018 288 1018 q 775 940 641 1018 l 718 798 q 458 860 587 860 q 290 760 295 860 q 290 750 290 755 q 316 671 290 699 q 420 618 341 642 l 590 568 q 743 469 693 536 q 793 278 793 402 q 714 68 793 155 q 457 -18 635 -18 z "},"ș":{"ha":674,"x_min":73,"x_max":618,"o":"m 323 -591 l 250 -559 q 317 -455 285 -520 q 349 -328 349 -390 l 237 -328 l 237 -140 l 455 -140 l 455 -292 q 411 -467 455 -382 q 323 -591 366 -551 m 357 -16 q 73 41 185 -16 l 111 167 q 351 113 238 113 q 448 189 437 113 q 450 207 450 199 q 388 281 450 262 l 228 332 q 112 409 146 357 q 77 534 77 460 q 77 540 77 537 q 357 744 79 744 q 602 682 494 744 l 559 568 q 465 601 524 586 q 353 615 406 615 q 277 596 301 615 q 254 533 254 578 q 304 472 254 488 l 454 425 q 582 345 545 396 q 618 201 618 293 q 551 46 618 109 q 357 -16 483 -16 z "},"Ț":{"ha":810,"x_min":26,"x_max":784,"o":"m 381 -576 l 309 -544 q 375 -439 343 -505 q 408 -312 408 -374 l 296 -312 l 296 -125 l 513 -125 l 513 -276 q 469 -451 513 -366 q 381 -576 425 -536 m 304 0 l 304 848 l 26 848 l 26 1001 l 784 1001 l 784 848 l 505 848 l 505 0 l 304 0 z "},"ț":{"ha":551,"x_min":43,"x_max":503,"o":"m 250 -584 l 177 -552 q 244 -448 212 -513 q 276 -320 276 -382 l 164 -320 l 164 -133 l 382 -133 l 382 -284 q 337 -459 382 -374 q 250 -584 293 -544 m 450 -8 q 212 42 284 -8 q 140 231 140 92 l 140 611 l 43 611 l 43 728 l 146 728 l 163 962 l 325 962 l 325 728 l 498 728 l 498 611 l 325 611 l 325 244 q 357 153 325 176 q 481 129 389 129 l 503 129 l 496 -8 l 450 -8 z "},"ȷ":{"ha":441,"x_min":-12,"x_max":319,"o":"m 18 -92 q 134 29 134 -92 l 134 728 l 319 728 l 319 20 q 258 -158 319 -94 q 66 -223 196 -223 l -8 -223 l -12 -92 l 18 -92 z "},"ˆ":{"ha":347,"x_min":-20,"x_max":399,"o":"m -20 825 l 138 1028 l 249 1028 l 399 825 l 281 825 l 194 943 l 102 825 l -20 825 z "},"ˇ":{"ha":347,"x_min":-20,"x_max":399,"o":"m 130 825 l -20 1028 l 98 1028 l 185 909 l 277 1028 l 399 1028 l 241 825 l 130 825 z "},"ˉ":{"ha":273,"x_min":-3,"x_max":278,"o":"m -3 848 l -3 955 l 278 955 l 278 848 l -3 848 z "},"˘":{"ha":347,"x_min":20,"x_max":340,"o":"m 296 920 q 274 898 296 920 q 180 876 252 876 q 64 920 109 876 q 20 1028 20 964 l 104 1028 q 126 972 104 993 q 180 952 149 952 q 234 972 212 952 q 256 1028 256 993 l 340 1028 q 296 920 340 964 z "},"˙":{"ha":332,"x_min":85,"x_max":260,"o":"m 85 848 l 85 1021 l 260 1021 l 260 848 l 85 848 z "},"˚":{"ha":401,"x_min":45,"x_max":357,"o":"m 315 763 q 295 744 315 763 q 201 725 274 725 q 86 763 127 725 q 45 869 45 801 q 86 976 45 938 q 201 1013 127 1013 q 315 976 274 1013 q 357 869 357 938 q 315 763 357 801 m 121 870 q 121 828 121 870 q 201 786 121 786 q 281 870 281 786 q 201 954 281 954 q 121 870 121 954 z "},"˛":{"ha":330,"x_min":41,"x_max":286,"o":"m 223 6 q 167 -166 167 -101 q 286 -249 167 -249 l 277 -345 q 269 -345 273 -345 q 41 -199 41 -345 q 70 -94 41 -149 q 145 6 98 -38 l 223 6 z "},"˜":{"ha":515,"x_min":47,"x_max":468,"o":"m 182 835 q 47 1011 47 835 l 127 1011 q 170 953 127 953 q 212 977 185 953 q 332 1022 263 1022 q 468 846 468 1022 l 388 846 q 350 905 388 905 q 304 880 333 905 q 182 835 250 834 z "},"˝":{"ha":694,"x_min":65,"x_max":629,"o":"m 339 722 l 433 1015 l 629 1015 l 449 722 l 339 722 m 65 722 l 140 1015 l 334 1015 l 170 722 l 65 722 z "},"̇":{"ha":311,"x_min":79,"x_max":248,"o":"m 79 848 l 79 1016 l 248 1016 l 248 848 l 79 848 z "},"̏":{"ha":694,"x_min":65,"x_max":629,"o":"m 524 722 l 360 1015 l 554 1015 l 629 722 l 524 722 m 245 722 l 65 1015 l 261 1015 l 355 722 l 245 722 z "},"̑":{"ha":390,"x_min":43,"x_max":334,"o":"m 43 829 q 84 930 43 890 q 189 969 124 969 q 293 930 253 969 q 334 829 334 890 l 245 829 q 231 879 245 857 q 189 902 216 902 q 147 880 161 902 q 132 829 132 857 l 43 829 z "},"̦":{"ha":463,"x_min":137,"x_max":355,"o":"m 222 -523 l 150 -491 q 217 -387 184 -452 q 249 -259 249 -321 l 137 -259 l 137 -72 l 355 -72 l 355 -223 q 310 -398 355 -313 q 222 -523 266 -483 z "},"μ":{"ha":845,"x_min":100,"x_max":738,"o":"m 553 92 q 488 15 533 43 q 385 -13 442 -13 q 271 1 328 -13 l 271 -160 l 100 -160 l 100 728 l 285 728 l 285 209 q 321 135 285 157 q 411 113 357 113 q 508 140 464 113 q 553 215 553 168 l 553 728 l 738 728 l 738 0 l 557 0 l 553 92 z "},"Ḃ":{"ha":987,"x_min":129,"x_max":911,"o":"m 436 1143 l 436 1310 l 604 1310 l 604 1143 l 436 1143 m 330 598 l 538 598 q 653 649 635 598 q 663 734 663 677 q 651 817 663 791 q 605 853 638 842 q 501 863 572 863 l 330 863 l 330 598 m 330 141 l 526 141 q 621 147 587 141 q 676 173 655 153 q 704 223 698 193 q 711 298 711 254 q 708 365 711 342 q 665 449 701 422 q 546 477 629 477 l 330 477 l 330 141 m 129 0 l 129 1001 l 514 1001 q 796 937 720 1001 q 852 856 836 903 q 869 732 869 809 q 842 610 869 656 q 741 545 814 564 q 876 469 841 532 q 911 304 911 407 q 911 292 911 298 q 830 72 911 144 q 563 0 749 0 l 129 0 z "},"ḃ":{"ha":818,"x_min":109,"x_max":734,"o":"m 337 1153 l 337 1320 l 505 1320 l 505 1153 l 337 1153 m 549 514 q 425 615 549 615 q 293 581 363 615 l 293 146 q 406 114 335 114 q 549 219 549 114 l 549 514 m 734 223 q 655 50 734 116 q 459 -16 576 -16 q 254 44 343 -16 l 235 0 l 109 0 l 109 1028 l 293 1028 l 293 705 q 441 744 366 744 q 692 649 625 744 q 734 511 734 589 l 734 223 z "},"Ḋ":{"ha":1040,"x_min":129,"x_max":932,"o":"m 446 1143 l 446 1310 l 614 1310 l 614 1143 l 446 1143 m 129 0 l 129 1001 l 563 1001 q 886 859 803 1001 q 932 652 932 779 l 932 345 q 739 25 932 91 q 564 0 666 0 l 129 0 m 330 157 l 546 157 q 690 195 649 157 q 730 319 730 233 l 730 678 q 689 804 730 763 q 546 844 647 844 l 330 844 l 330 157 z "},"ḋ":{"ha":812,"x_min":84,"x_max":707,"o":"m 311 1153 l 311 1320 l 479 1320 l 479 1153 l 311 1153 m 269 217 q 300 138 269 163 q 403 114 332 114 q 522 143 473 114 l 522 590 q 403 615 469 615 q 302 592 336 615 q 269 515 269 568 l 269 217 m 374 -16 q 156 46 229 -16 q 84 220 84 107 l 84 511 q 159 681 84 617 q 387 744 234 744 q 522 718 452 744 l 522 1028 l 707 1028 l 707 0 l 582 0 l 562 43 q 374 -16 479 -16 z "},"Ḟ":{"ha":795,"x_min":129,"x_max":734,"o":"m 348 1143 l 348 1310 l 516 1310 l 516 1143 l 348 1143 m 129 0 l 129 1001 l 734 1001 l 734 847 l 330 847 l 330 574 l 707 574 l 707 430 l 330 430 l 330 0 l 129 0 z "},"ḟ":{"ha":522,"x_min":58,"x_max":491,"o":"m 191 1153 l 191 1320 l 359 1320 l 359 1153 l 191 1153 m 155 0 l 155 611 l 58 611 l 58 728 l 155 728 l 155 763 q 214 962 155 895 q 401 1028 273 1028 l 486 1028 l 491 900 l 434 900 q 359 874 379 900 q 340 804 340 848 l 340 728 l 485 728 l 485 611 l 340 611 l 340 0 l 155 0 z "},"Ṁ":{"ha":1271,"x_min":129,"x_max":1142,"o":"m 551 1143 l 551 1310 l 720 1310 l 720 1143 l 551 1143 m 129 0 l 129 1001 l 351 1001 l 635 516 l 916 1001 l 1142 1001 l 1142 0 l 954 0 l 954 740 l 703 291 l 568 291 l 317 737 l 317 0 l 129 0 z "},"ṁ":{"ha":1284,"x_min":109,"x_max":1181,"o":"m 561 869 l 561 1036 l 729 1036 l 729 869 l 561 869 m 109 0 l 109 728 l 293 728 l 293 663 q 392 723 331 703 q 508 744 452 744 q 708 654 654 744 q 950 744 798 744 q 1118 687 1055 744 q 1181 538 1181 631 l 1181 0 l 997 0 l 997 517 q 969 589 997 570 q 890 608 942 608 q 790 581 838 608 q 739 509 743 554 l 739 0 l 554 0 l 554 517 q 525 589 554 570 q 443 608 496 608 q 341 579 389 608 q 293 501 293 551 l 293 0 l 109 0 z "},"Ṗ":{"ha":906,"x_min":129,"x_max":848,"o":"m 404 1143 l 404 1310 l 572 1310 l 572 1143 l 404 1143 m 330 492 l 534 492 q 633 534 607 492 q 659 671 659 576 q 599 844 659 808 q 541 858 575 857 l 330 858 l 330 492 m 129 0 l 129 1001 l 522 1001 q 768 925 689 1001 q 848 677 848 849 q 771 426 848 506 q 502 345 695 345 l 330 345 l 330 0 l 129 0 z "},"ṗ":{"ha":815,"x_min":109,"x_max":731,"o":"m 336 869 l 336 1036 l 504 1036 l 504 869 l 336 869 m 416 113 q 547 217 547 113 l 547 512 q 422 615 547 615 q 346 602 381 615 q 293 570 311 588 l 293 144 q 416 113 353 113 m 109 -278 l 109 728 l 237 728 l 256 681 q 463 744 342 744 q 657 680 584 744 q 731 509 731 616 l 731 221 q 656 54 731 123 q 432 -16 582 -16 q 293 12 354 -16 l 293 -278 l 109 -278 z "},"Ṡ":{"ha":869,"x_min":81,"x_max":793,"o":"m 353 1143 l 353 1310 l 522 1310 l 522 1143 l 353 1143 m 457 -18 q 260 7 364 -18 q 81 73 157 31 l 151 220 q 462 140 301 140 q 576 174 543 140 q 609 273 609 207 q 606 312 609 286 q 471 412 600 373 l 300 462 q 174 528 221 485 q 109 622 126 571 q 92 742 92 673 q 190 949 92 880 q 440 1018 288 1018 q 775 940 641 1018 l 718 798 q 458 860 587 860 q 290 760 295 860 q 290 750 290 755 q 316 671 290 699 q 420 618 341 642 l 590 568 q 743 469 693 536 q 793 278 793 402 q 714 68 793 155 q 457 -18 635 -18 z "},"ṡ":{"ha":674,"x_min":73,"x_max":618,"o":"m 262 869 l 262 1036 l 430 1036 l 430 869 l 262 869 m 357 -16 q 73 41 185 -16 l 111 167 q 351 113 238 113 q 448 189 437 113 q 450 207 450 199 q 388 281 450 262 l 228 332 q 112 409 146 357 q 77 534 77 460 q 77 540 77 537 q 357 744 79 744 q 602 682 494 744 l 559 568 q 465 601 524 586 q 353 615 406 615 q 277 596 301 615 q 254 533 254 578 q 304 472 254 488 l 454 425 q 582 345 545 396 q 618 201 618 293 q 551 46 618 109 q 357 -16 483 -16 z "},"Ṫ":{"ha":810,"x_min":26,"x_max":784,"o":"m 321 1143 l 321 1310 l 489 1310 l 489 1143 l 321 1143 m 304 0 l 304 848 l 26 848 l 26 1001 l 784 1001 l 784 848 l 505 848 l 505 0 l 304 0 z "},"ṫ":{"ha":551,"x_min":43,"x_max":503,"o":"m 189 1087 l 189 1255 l 357 1255 l 357 1087 l 189 1087 m 450 -8 q 212 42 284 -8 q 140 231 140 92 l 140 611 l 43 611 l 43 728 l 146 728 l 163 962 l 325 962 l 325 728 l 498 728 l 498 611 l 325 611 l 325 244 q 357 153 325 176 q 481 129 389 129 l 503 129 l 496 -8 l 450 -8 z "},"Ẁ":{"ha":1325,"x_min":27,"x_max":1298,"o":"m 612 1143 l 451 1390 l 632 1390 l 714 1143 l 612 1143 m 287 0 l 27 1001 l 222 1001 l 395 309 l 571 1001 l 741 1001 l 942 316 l 1105 1001 l 1298 1001 l 1039 0 l 870 0 l 660 714 l 467 0 l 287 0 z "},"ẁ":{"ha":1118,"x_min":31,"x_max":1086,"o":"m 507 869 l 347 1116 l 528 1116 l 610 869 l 507 869 m 233 0 l 31 728 l 203 728 l 334 206 l 486 728 l 636 728 l 793 200 l 915 728 l 1086 728 l 892 0 l 712 0 l 563 503 l 408 0 l 233 0 z "},"Ẃ":{"ha":1325,"x_min":27,"x_max":1298,"o":"m 612 1143 l 689 1390 l 871 1390 l 713 1143 l 612 1143 m 287 0 l 27 1001 l 222 1001 l 395 309 l 571 1001 l 741 1001 l 942 316 l 1105 1001 l 1298 1001 l 1039 0 l 870 0 l 660 714 l 467 0 l 287 0 z "},"ẃ":{"ha":1118,"x_min":31,"x_max":1086,"o":"m 509 869 l 586 1116 l 768 1116 l 610 869 l 509 869 m 233 0 l 31 728 l 203 728 l 334 206 l 486 728 l 636 728 l 793 200 l 915 728 l 1086 728 l 892 0 l 712 0 l 563 503 l 408 0 l 233 0 z "},"Ẅ":{"ha":1325,"x_min":27,"x_max":1298,"o":"m 745 1143 l 745 1301 l 925 1301 l 925 1143 l 745 1143 m 400 1143 l 400 1301 l 579 1301 l 579 1143 l 400 1143 m 287 0 l 27 1001 l 222 1001 l 395 309 l 571 1001 l 741 1001 l 942 316 l 1105 1001 l 1298 1001 l 1039 0 l 870 0 l 660 714 l 467 0 l 287 0 z "},"ẅ":{"ha":1118,"x_min":31,"x_max":1086,"o":"m 642 869 l 642 1027 l 821 1027 l 821 869 l 642 869 m 296 869 l 296 1027 l 475 1027 l 475 869 l 296 869 m 233 0 l 31 728 l 203 728 l 334 206 l 486 728 l 636 728 l 793 200 l 915 728 l 1086 728 l 892 0 l 712 0 l 563 503 l 408 0 l 233 0 z "},"Ỳ":{"ha":884,"x_min":0,"x_max":884,"o":"m 391 1143 l 230 1390 l 411 1390 l 493 1143 l 391 1143 m 345 0 l 345 385 l 0 1001 l 212 1001 l 447 583 l 681 1001 l 884 1001 l 546 385 l 546 0 l 345 0 z "},"ỳ":{"ha":734,"x_min":22,"x_max":724,"o":"m 321 869 l 161 1116 l 342 1116 l 424 869 l 321 869 m 100 -329 l 87 -176 q 228 -102 184 -157 q 296 24 273 -47 l 22 728 l 200 728 l 389 239 l 541 728 l 724 728 l 503 95 q 399 -140 446 -68 q 312 -244 352 -212 q 100 -329 227 -313 z "},"–":{"ha":486,"x_min":87,"x_max":399,"o":"m 87 302 l 87 415 l 399 415 l 399 302 l 87 302 z "},"—":{"ha":652,"x_min":2,"x_max":649,"o":"m 2 260 l 2 377 l 649 377 l 649 260 l 2 260 z "},"‘":{"ha":593,"x_min":201,"x_max":419,"o":"m 201 568 l 201 720 q 245 895 201 810 q 334 1019 290 980 l 406 988 q 339 883 372 949 q 307 755 307 818 l 419 755 l 419 568 l 201 568 z "},"’":{"ha":566,"x_min":174,"x_max":392,"o":"m 259 569 l 186 600 q 253 705 221 640 q 286 833 286 770 l 174 833 l 174 1020 l 392 1020 l 392 869 q 347 693 392 779 q 259 569 302 608 z "},"‚":{"ha":593,"x_min":201,"x_max":419,"o":"m 286 -264 l 214 -233 q 280 -128 248 -193 q 313 0 313 -62 l 201 0 l 201 187 l 419 187 l 419 36 q 374 -139 419 -54 q 286 -264 330 -224 z "},"“":{"ha":888,"x_min":174,"x_max":715,"o":"m 496 576 l 496 728 q 541 903 496 818 q 629 1027 586 988 l 702 996 q 635 891 667 957 q 603 764 603 826 l 715 764 l 715 576 l 496 576 m 174 576 l 174 728 q 218 903 174 818 q 307 1027 263 988 l 379 996 q 312 891 345 957 q 280 764 280 826 l 392 764 l 392 576 l 174 576 z "},"”":{"ha":916,"x_min":201,"x_max":742,"o":"m 609 577 l 536 608 q 603 713 571 648 q 635 841 635 779 l 524 841 l 524 1028 l 742 1028 l 742 877 q 697 702 742 787 q 609 577 652 616 m 286 577 l 214 608 q 280 713 248 648 q 313 841 313 779 l 201 841 l 201 1028 l 419 1028 l 419 877 q 374 702 419 787 q 286 577 330 616 z "},"„":{"ha":931,"x_min":201,"x_max":758,"o":"m 625 -264 l 552 -233 q 619 -128 587 -193 q 651 0 651 -62 l 539 0 l 539 187 l 758 187 l 758 36 q 713 -139 758 -54 q 625 -264 668 -224 m 286 -264 l 214 -233 q 280 -128 248 -193 q 313 0 313 -62 l 201 0 l 201 187 l 419 187 l 419 36 q 374 -139 419 -54 q 286 -264 330 -224 z "},"†":{"ha":694,"x_min":108,"x_max":587,"o":"m 277 0 l 277 581 l 108 581 l 108 687 l 277 687 l 277 898 l 416 898 l 416 687 l 587 687 l 587 581 l 416 581 l 416 0 l 277 0 z "},"‡":{"ha":695,"x_min":149,"x_max":547,"o":"m 277 0 l 277 260 l 149 260 l 149 386 l 277 386 l 277 592 l 149 592 l 149 718 l 277 718 l 277 898 l 416 898 l 416 718 l 547 718 l 547 592 l 416 592 l 416 386 l 547 386 l 547 260 l 416 260 l 416 0 l 277 0 z "},"•":{"ha":694,"x_min":130,"x_max":564,"o":"m 504 325 q 474 295 504 325 q 347 264 444 264 q 190 325 250 264 q 130 479 130 385 q 190 634 130 574 q 347 695 250 695 q 504 634 444 695 q 564 479 564 574 q 504 325 564 385 z "},"…":{"ha":1221,"x_min":119,"x_max":1135,"o":"m 933 0 l 933 193 l 1135 193 l 1135 0 l 933 0 m 526 0 l 526 193 l 728 193 l 728 0 l 526 0 m 119 0 l 119 193 l 321 193 l 321 0 l 119 0 z "},"‰":{"ha":1878,"x_min":87,"x_max":1767,"o":"m 425 0 l 793 981 l 910 981 l 545 0 l 425 0 m 1719 54 q 1695 20 1719 54 q 1560 -13 1671 -13 q 1402 54 1449 -13 q 1356 244 1356 120 l 1356 280 q 1401 469 1356 406 q 1559 532 1447 532 q 1718 469 1672 532 q 1767 281 1765 406 l 1767 244 q 1719 54 1767 120 m 1560 75 q 1647 140 1630 76 q 1656 235 1656 175 l 1656 294 q 1633 417 1656 390 q 1571 444 1609 444 q 1472 387 1487 444 q 1464 295 1464 353 l 1464 235 q 1488 105 1464 136 q 1560 75 1512 75 m 1207 54 q 1184 20 1207 54 q 1048 -13 1160 -13 q 891 54 937 -13 q 844 244 844 120 l 844 280 q 890 469 844 406 q 1048 532 936 532 q 1207 469 1160 532 q 1255 281 1254 406 l 1255 244 q 1207 54 1255 120 m 1048 75 q 1135 140 1119 76 q 1145 235 1145 175 l 1145 294 q 1121 417 1145 390 q 1060 444 1098 444 q 961 387 975 444 q 953 295 953 353 l 953 235 q 977 105 953 136 q 1048 75 1000 75 m 450 513 q 426 479 450 513 q 291 446 402 446 q 133 513 180 446 q 87 703 87 579 l 87 739 q 133 928 87 865 q 291 991 178 991 q 449 928 403 991 q 497 740 496 865 l 497 703 q 450 513 497 579 m 291 534 q 378 598 362 534 q 387 694 387 634 l 387 753 q 363 876 387 850 q 302 903 340 903 q 203 846 218 903 q 195 754 195 812 l 195 694 q 219 565 195 595 q 291 534 243 534 z "},"‹":{"ha":521,"x_min":118,"x_max":403,"o":"m 308 54 l 118 359 l 303 665 l 403 617 l 262 359 l 403 102 l 308 54 z "},"›":{"ha":521,"x_min":122,"x_max":407,"o":"m 222 54 l 122 102 l 262 359 l 122 617 l 217 665 l 407 359 l 222 54 z "},"⁄":{"ha":623,"x_min":37,"x_max":587,"o":"m 37 0 l 422 1028 l 587 1028 l 202 0 l 37 0 z "},"€":{"ha":1010,"x_min":31,"x_max":924,"o":"m 548 -18 q 486 -18 548 -18 q 349 0 425 -18 q 227 47 273 18 q 154 122 181 76 q 118 216 127 168 q 109 328 109 264 l 109 342 l 31 342 l 31 433 l 109 433 l 109 555 l 31 555 l 31 646 l 109 646 l 109 663 q 181 913 109 842 q 374 1006 254 986 q 527 1018 441 1019 q 897 848 837 1018 q 924 667 924 772 l 924 654 l 726 631 l 726 682 q 685 823 726 787 q 528 860 644 860 q 361 823 412 860 q 310 686 310 786 l 310 646 l 534 646 l 534 555 l 310 555 l 310 433 l 534 433 l 534 342 l 310 342 l 310 308 q 362 174 310 208 q 530 140 415 140 q 625 147 590 140 q 685 173 661 153 q 718 225 709 193 q 726 312 726 258 l 726 344 l 924 344 l 924 326 q 880 111 924 177 q 754 14 836 45 q 548 -18 672 -18 z "},"™":{"ha":1250,"x_min":90,"x_max":1091,"o":"m 234 519 l 234 903 l 90 903 l 90 981 l 469 981 l 469 903 l 326 903 l 326 519 l 234 519 m 573 519 l 573 981 l 707 981 l 832 701 l 958 981 l 1091 981 l 1091 519 l 1005 519 l 1005 901 l 888 631 l 779 631 l 658 901 l 658 519 l 573 519 z "},"∆":{"ha":768,"x_min":65,"x_max":703,"o":"m 188 335 l 583 335 l 394 905 l 188 335 m 65 237 l 65 321 l 335 1021 l 450 1021 l 703 321 l 703 237 l 65 237 z "},"∏":{"ha":1204,"x_min":103,"x_max":1101,"o":"m 958 133 q 925 100 958 133 q 799 29 892 67 q 585 -9 707 -9 q 350 56 464 -9 q 169 235 235 121 q 103 489 103 350 q 169 743 103 629 q 350 922 235 857 q 603 987 464 987 q 856 922 741 987 q 1036 743 970 857 q 1101 507 1101 629 q 1063 292 1101 385 q 958 133 1024 199 m 232 268 q 259 219 232 268 q 384 112 286 169 q 604 56 482 56 q 823 112 726 56 q 975 268 921 169 q 1029 489 1029 367 q 975 711 1029 612 q 823 866 921 810 q 604 923 726 923 q 384 866 482 923 q 232 711 286 810 q 177 490 177 612 q 232 268 177 368 m 531 503 l 657 503 q 749 595 748 503 l 749 611 q 663 720 749 720 l 531 720 l 531 503 m 442 216 l 442 782 l 661 782 q 839 616 835 782 l 839 606 q 797 486 839 530 q 652 442 755 442 l 531 442 l 531 216 l 442 216 z "},"−":{"ha":537,"x_min":83,"x_max":450,"o":"m 83 298 l 83 420 l 450 420 l 450 298 l 83 298 z "},"∕":{"ha":623,"x_min":37,"x_max":587,"o":"m 37 0 l 422 1028 l 587 1028 l 201 0 l 37 0 z "},"∙":{"ha":311,"x_min":79,"x_max":248,"o":"m 79 848 l 79 1016 l 248 1016 l 248 848 l 79 848 z "},"∞":{"ha":1389,"x_min":148,"x_max":1241,"o":"m 357 635 q 256 519 256 635 q 357 402 256 402 q 488 455 393 402 q 603 519 583 509 q 524 562 583 529 q 357 635 382 633 m 1032 402 q 1133 519 1133 402 q 1032 635 1133 635 q 901 582 996 635 q 786 519 806 529 q 901 455 806 509 q 1032 402 996 402 m 1044 793 q 1186 721 1131 793 q 1241 519 1241 649 q 1186 316 1241 389 q 1044 244 1131 244 q 783 358 958 244 q 719 402 743 384 l 694 420 q 429 263 555 311 q 345 244 379 244 q 203 316 258 244 q 148 519 148 389 q 203 721 148 649 q 345 793 258 793 q 606 680 431 793 q 670 635 646 654 l 694 617 q 960 774 834 727 q 1044 793 1010 793 z "},"∫":{"ha":470,"x_min":35,"x_max":402,"o":"m 402 872 q 363 876 382 876 q 303 851 317 876 q 288 781 288 827 l 288 29 q 247 -138 288 -97 q 119 -178 205 -178 q 35 -172 81 -178 l 35 -73 q 79 -77 63 -77 q 135 -55 121 -77 q 149 11 149 -32 l 149 764 q 191 937 149 897 q 319 978 233 978 q 402 972 349 978 l 402 872 z "},"≈":{"ha":694,"x_min":41,"x_max":654,"o":"m 423 637 q 496 614 475 614 q 580 696 580 614 l 654 696 q 607 552 654 604 q 493 500 561 500 q 270 571 425 500 q 198 595 218 594 q 114 511 114 595 l 41 511 q 87 656 41 604 q 200 708 133 707 q 423 637 267 708 m 423 903 q 496 880 475 880 q 580 963 580 880 l 654 963 q 607 819 654 871 q 491 767 561 767 q 324 814 420 767 q 198 861 228 861 q 114 778 114 861 l 41 778 q 87 922 41 871 q 200 974 133 974 q 423 903 267 974 z "},"≠":{"ha":623,"x_min":76,"x_max":521,"o":"m 76 502 l 76 619 l 321 619 l 383 798 l 480 798 l 418 619 l 521 619 l 521 502 l 377 502 l 331 369 l 521 369 l 521 252 l 290 252 l 203 0 l 106 0 l 193 252 l 76 252 l 76 369 l 234 369 l 280 502 l 76 502 z "},"≤":{"ha":849,"x_min":155,"x_max":694,"o":"m 155 0 l 155 119 l 692 119 l 692 0 l 155 0 m 694 162 l 162 443 l 162 591 l 694 874 l 694 718 l 285 518 l 694 319 l 694 162 z "},"≥":{"ha":848,"x_min":125,"x_max":723,"o":"m 125 0 l 125 119 l 723 119 l 723 0 l 125 0 m 166 160 l 166 315 l 548 516 l 166 714 l 166 872 l 670 590 l 670 441 l 166 160 z "},"◊":{"ha":749,"x_min":69,"x_max":680,"o":"m 385 127 l 538 511 l 385 886 l 214 511 l 385 127 m 316 0 l 69 511 l 316 1021 l 450 1021 l 680 511 l 450 0 l 316 0 z "},"ﬀ":{"ha":1065,"x_min":58,"x_max":1034,"o":"m 693 0 l 693 611 l 340 611 l 340 0 l 155 0 l 155 611 l 58 611 l 58 728 l 155 728 l 155 763 q 214 962 155 895 q 401 1028 273 1028 l 486 1028 l 495 900 l 434 900 q 359 878 378 900 q 340 814 340 856 l 340 728 l 693 728 l 693 763 q 752 962 693 895 q 939 1028 812 1028 l 1025 1028 l 1034 900 l 972 900 q 898 878 917 900 q 878 814 878 856 l 878 728 l 1023 728 l 1023 611 l 878 611 l 878 0 l 693 0 z "},"ﬁ":{"ha":926,"x_min":58,"x_max":818,"o":"m 633 832 l 633 996 l 818 996 l 818 832 l 633 832 m 155 0 l 155 611 l 58 611 l 58 728 l 155 728 l 155 763 q 214 962 155 895 q 401 1028 273 1028 l 486 1028 l 495 900 l 434 900 q 359 878 378 900 q 340 814 340 856 l 340 728 l 818 728 l 818 0 l 633 0 l 633 611 l 340 611 l 340 0 l 155 0 z "},"ﬂ":{"ha":996,"x_min":58,"x_max":964,"o":"m 873 -8 q 692 48 749 -8 q 635 239 635 105 l 635 900 l 434 900 q 359 878 378 900 q 340 814 340 856 l 340 728 l 485 728 l 485 611 l 340 611 l 340 0 l 155 0 l 155 611 l 58 611 l 58 728 l 155 728 l 155 763 q 214 962 155 895 q 401 1028 273 1028 l 819 1027 l 819 242 q 844 154 819 180 q 941 129 869 129 l 964 129 l 950 -8 l 873 -8 z "},"ﬃ":{"ha":1487,"x_min":76,"x_max":1374,"o":"m 1190 832 l 1190 996 l 1374 996 l 1374 832 l 1190 832 m 711 0 l 711 611 l 357 611 l 357 0 l 172 0 l 172 611 l 76 611 l 76 728 l 172 728 l 172 763 q 232 962 172 895 q 418 1028 291 1028 l 504 1028 l 513 900 l 452 900 q 377 878 396 900 q 357 814 357 856 l 357 728 l 711 728 l 711 763 q 770 962 711 895 q 957 1028 829 1028 l 1042 1028 l 1051 900 l 990 900 q 915 878 935 900 q 896 814 896 856 l 896 728 l 1374 728 l 1374 0 l 1190 0 l 1190 611 l 896 611 l 896 0 l 711 0 z "},"ﬄ":{"ha":1515,"x_min":58,"x_max":1484,"o":"m 1392 -8 q 1211 48 1268 -8 q 1154 239 1154 105 l 1154 900 l 954 900 q 879 878 898 900 q 859 814 859 856 l 859 728 l 1004 728 l 1004 611 l 859 611 l 859 0 l 674 0 l 674 611 l 340 611 l 340 0 l 155 0 l 155 611 l 58 611 l 58 728 l 155 728 l 155 763 q 214 962 155 895 q 401 1028 273 1028 l 486 1028 l 495 900 l 434 900 q 359 878 378 900 q 340 814 340 856 l 340 728 l 674 728 l 674 763 q 733 962 674 895 q 920 1028 793 1028 l 1339 1027 l 1339 242 q 1364 154 1339 180 q 1461 129 1389 129 l 1484 129 l 1470 -8 l 1392 -8 z "}}}
